<svg xmlns="http://www.w3.org/2000/svg" width="34" height="38" viewBox="0 0 34 38" fill="none"><metadata><rdf:RDF xmlns:rdf="http://www.w3.org/1999/02/22-rdf-syntax-ns#" xmlns:dc="http://purl.org/dc/elements/1.1/"><rdf:Description><dc:creator>RealFaviconGenerator</dc:creator><dc:source>https://realfavicongenerator.net</dc:source></rdf:Description></rdf:RDF></metadata><path d="M0.500002 27.5696L0.500003 9.56958L17 0.569579L33.5 9.56958L33.5 27.5696L17 36.5696L0.500002 27.5696Z" stroke="#0DCDEF"></path><path d="M28.6667 25.0273L30.5 25.7432L28.6667 26.5344H22.4792L19.5 24.5021V8.53442L21.7917 12.8861C21.7917 12.8861 20.875 22.5626 21.7917 23.963C22.7083 25.3634 28.6667 25.0273 28.6667 25.0273Z" fill="#0DCDEF"></path><path d="M5.33333 25.0273L3.5 25.7432L5.33333 26.5344H11.5208L14.5 24.5021V8.53442L12.2083 12.8861C12.2083 12.8861 13.125 22.5626 12.2083 23.963C11.2917 25.3634 5.33333 25.0273 5.33333 25.0273Z" fill="#0DCDEF"></path></svg>