<svg width="14" height="14" viewBox="0 0 14 14" fill="none" xmlns="http://www.w3.org/2000/svg">
<path d="M12.6219 3.35791L7.33906 0.317285C7.25156 0.262598 7.13125 0.240723 7 0.240723C6.86875 0.240723 6.74844 0.273535 6.66094 0.317285L1.41094 3.36885C1.225 3.47822 1.09375 3.75166 1.09375 3.95947V10.0517C1.09375 10.172 1.11562 10.3142 1.20312 10.4345L12.8844 3.65322C12.8188 3.52197 12.7203 3.42354 12.6219 3.35791Z" fill="#9B4F96"/>
<path d="M1.16992 10.4233C1.22461 10.5108 1.30117 10.5874 1.37773 10.6312L6.64961 13.6827C6.73711 13.7374 6.85742 13.7593 6.98867 13.7593C7.11992 13.7593 7.24023 13.7265 7.32773 13.6827L12.5777 10.6312C12.7637 10.5218 12.8949 10.2483 12.8949 10.0405V3.94834C12.8949 3.8499 12.884 3.74053 12.8293 3.64209L1.16992 10.4233Z" fill="#68217A"/>
<path d="M9.32969 8.32344C8.87031 9.13281 7.99531 9.67969 7 9.67969C5.52344 9.67969 4.32031 8.47656 4.32031 7C4.32031 5.52344 5.52344 4.32031 7 4.32031C7.99531 4.32031 8.87031 4.86719 9.32969 5.6875L10.7516 4.86719C10.0078 3.56563 8.60781 2.67969 7 2.67969C4.61563 2.67969 2.67969 4.61563 2.67969 7C2.67969 9.38438 4.61563 11.3203 7 11.3203C8.59688 11.3203 9.99687 10.4453 10.7406 9.15469L9.32969 8.32344ZM10.6094 7.24062L10.7078 6.77031H10.2484V6.25625H10.8063L10.9375 5.57812H11.4734L11.3422 6.24531H11.7578L11.8891 5.57812H12.4141L12.2828 6.24531H12.5453V6.75938H12.1844L12.0859 7.22969H12.5453V7.74375H11.9875L11.8562 8.4H11.3203L11.4516 7.74375H11.0359L10.9047 8.4H10.3797L10.5109 7.74375H10.2484V7.22969H10.6094V7.24062ZM11.1344 7.24062H11.55L11.6484 6.77031H11.2328L11.1344 7.24062Z" fill="white"/>
</svg>
