<svg width="12" height="12" viewBox="0 0 12 12" fill="none" xmlns="http://www.w3.org/2000/svg">
<g clip-path="url(#clip0_118_1859)">
<path d="M9.1875 0H2.8125C1.2592 0 0 1.2592 0 2.8125V9.1875C0 10.7408 1.2592 12 2.8125 12H9.1875C10.7408 12 12 10.7408 12 9.1875V2.8125C12 1.2592 10.7408 0 9.1875 0Z" fill="#0277BD"/>
<path d="M2.51967 4.81177L2.65383 6.30905H6.0045V4.81177H2.51967ZM6.00445 1.78125H2.25L2.38612 3.27853H6.00445V1.78125ZM6.00445 10.2582V8.70038L5.99789 8.70211L4.33036 8.25187L4.22377 7.05769H2.72072L2.93048 9.40866L5.99756 10.2601L6.00445 10.2582Z" fill="#EBEBEB"/>
<path d="M7.84276 6.30905L7.66895 8.25089L5.99902 8.70164V10.2593L9.06854 9.40866L9.09104 9.15567L9.44288 5.21386L9.4794 4.81177L9.74973 1.78125H5.99902V3.27853H8.10882L7.9726 4.81177H5.99902V6.30905H7.84276Z" fill="white"/>
</g>
<defs>
<clipPath id="clip0_118_1859">
<rect width="12" height="12" fill="white"/>
</clipPath>
</defs>
</svg>
