<svg width="13" height="13" viewBox="0 0 13 13" fill="none" xmlns="http://www.w3.org/2000/svg">
<path d="M11.8134 5.55204C11.7809 5.53038 11.5101 5.31913 10.9251 5.31913C10.7734 5.31913 10.6218 5.33538 10.4701 5.36246C10.3563 4.60413 9.72259 4.21954 9.69551 4.20329L9.53843 4.11121L9.44092 4.25746C9.31092 4.45246 9.20801 4.67454 9.16467 4.90204C9.05634 5.33538 9.12134 5.74704 9.34342 6.09913C9.07801 6.25079 8.64467 6.28871 8.55259 6.28871H1.41884C1.23467 6.28871 1.08301 6.44038 1.08301 6.62996C1.08301 7.25288 1.18051 7.87579 1.39717 8.46079C1.64092 9.10538 2.00926 9.58204 2.48051 9.87454C3.01134 10.1995 3.88342 10.3837 4.87467 10.3837C5.30259 10.3837 5.74676 10.3458 6.18551 10.2645C6.79217 10.1562 7.37717 9.94496 7.91342 9.63621C8.35754 9.38225 8.75506 9.05435 9.08884 8.66663C9.65759 8.03288 9.99342 7.31246 10.2372 6.68954H10.3401C10.9576 6.68954 11.3422 6.44038 11.5534 6.22913C11.6943 6.09913 11.7972 5.94204 11.873 5.75788L11.9163 5.62788L11.8134 5.55204ZM2.08509 6.08829H3.03842C3.08176 6.08829 3.12509 6.05038 3.12509 6.00163V5.14579C3.12509 5.10246 3.08717 5.05913 3.03842 5.05913H2.08509C2.03634 5.05913 1.99842 5.09704 1.99842 5.14579V6.00163C2.00384 6.05038 2.03634 6.08829 2.08509 6.08829ZM3.40134 6.08829H4.35467C4.39801 6.08829 4.44134 6.05038 4.44134 6.00163V5.14579C4.44134 5.10246 4.40342 5.05913 4.35467 5.05913H3.40134C3.35259 5.05913 3.31467 5.09704 3.31467 5.14579V6.00163C3.32009 6.05038 3.35259 6.08829 3.40134 6.08829ZM4.73926 6.08829H5.68717C5.74134 6.08829 5.77926 6.05038 5.77926 6.00163V5.14579C5.77926 5.10246 5.74676 5.05913 5.68717 5.05913H4.73926C4.69592 5.05913 4.65801 5.09704 4.65801 5.14579V6.00163C4.65801 6.05038 4.69051 6.08829 4.73926 6.08829ZM6.06092 6.08829H7.01967C7.06301 6.08829 7.10092 6.05038 7.10092 6.00163V5.14579C7.10092 5.10246 7.06842 5.05913 7.01967 5.05913H6.06092C6.01759 5.05913 5.97967 5.09704 5.97967 5.14579V6.00163C5.97967 6.05038 6.01759 6.08829 6.06092 6.08829ZM3.40134 4.87496H4.35467C4.39801 4.87496 4.44134 4.82621 4.44134 4.77746V3.92704C4.44134 3.87829 4.40342 3.84038 4.35467 3.84038H3.40134C3.35259 3.84038 3.31467 3.87288 3.31467 3.92704V4.77746C3.32009 4.82621 3.35259 4.87496 3.40134 4.87496ZM4.73926 4.87496H5.68717C5.74134 4.87496 5.77926 4.82621 5.77926 4.77746V3.92704C5.77926 3.87829 5.74676 3.84038 5.68717 3.84038H4.73926C4.69592 3.84038 4.65801 3.87288 4.65801 3.92704V4.77746C4.65801 4.82621 4.69051 4.87496 4.73926 4.87496ZM6.06092 4.87496H7.01967C7.06301 4.87496 7.10092 4.82621 7.10092 4.77746V3.92704C7.10092 3.87829 7.06301 3.84038 7.01967 3.84038H6.06092C6.01759 3.84038 5.97967 3.87288 5.97967 3.92704V4.77746C5.97967 4.82621 6.01759 4.87496 6.06092 4.87496ZM6.06092 3.63996H7.01967C7.06301 3.63996 7.10092 3.60204 7.10092 3.55329V2.70829C7.10092 2.65413 7.06301 2.61621 7.01967 2.61621H6.06092C6.01759 2.61621 5.97967 2.64871 5.97967 2.70829V3.55329C5.97967 3.59663 6.01759 3.63996 6.06092 3.63996ZM7.39342 6.08829H8.34676C8.39551 6.08829 8.43342 6.05038 8.43342 6.00163V5.14579C8.43342 5.10246 8.39551 5.05913 8.34676 5.05913H7.39342C7.35009 5.05913 7.31217 5.09704 7.31217 5.14579V6.00163C7.31217 6.05038 7.35009 6.08829 7.39342 6.08829Z" fill="#0288D1"/>
</svg>
