<svg width="14" height="14" viewBox="0 0 14 14" fill="none" xmlns="http://www.w3.org/2000/svg">
<g clip-path="url(#clip0_152_3830)">
<path d="M1.84758 4.41406V9.51838H2.44477V5.82675C2.44923 5.59317 2.43929 5.35954 2.41502 5.12719H2.43777C2.48152 5.23919 2.53547 5.3455 2.59964 5.44613L5.22464 9.51575H5.95614V4.41406H5.36158V8.00288C5.35458 8.25356 5.36858 8.50425 5.39789 8.75275H5.38433C5.31894 8.63663 5.24978 8.52267 5.17695 8.41106L2.62239 4.4145L1.84758 4.41406ZM7.28002 4.41406V9.51838H9.99383L9.99602 8.95794H7.89033V7.18737H9.73395V6.64969H7.89033V4.95438H9.86827V4.4145L7.28002 4.41406ZM10.4519 4.41406V4.95394H11.9193V9.51794H12.5165V4.95394H14V4.41406H10.4519ZM0.380204 8.78906C0.329981 8.79038 0.28053 8.80175 0.23477 8.82248C0.189009 8.84322 0.147866 8.87292 0.113766 8.90981C0.0772471 8.94674 0.0483955 8.99054 0.0288732 9.03867C0.00935088 9.0868 -0.00045637 9.13831 1.63074e-05 9.19025C-0.0006675 9.26871 0.0220795 9.34559 0.0653454 9.41105C0.108611 9.4765 0.170427 9.52756 0.24288 9.55768C0.315333 9.58779 0.395125 9.59561 0.472043 9.58011C0.548961 9.56461 0.619504 9.52651 0.674641 9.47069C0.749891 9.39762 0.793204 9.29525 0.793204 9.19025C0.793204 9.08525 0.749891 8.98287 0.674641 8.90981C0.638602 8.87163 0.595132 8.84121 0.546904 8.82045C0.498677 8.79968 0.446712 8.789 0.394204 8.78906H0.380204Z" fill="#00618A"/>
</g>
<defs>
<clipPath id="clip0_152_3830">
<rect width="14" height="14" fill="white"/>
</clipPath>
</defs>
</svg>
