<svg width="13" height="13" viewBox="0 0 13 13" fill="none" xmlns="http://www.w3.org/2000/svg">
<path d="M4.875 1.625H6.5V4.875H4.875C4.44402 4.875 4.0307 4.7038 3.72595 4.39905C3.4212 4.0943 3.25 3.68098 3.25 3.25C3.25 2.81902 3.4212 2.4057 3.72595 2.10095C4.0307 1.7962 4.44402 1.625 4.875 1.625Z" fill="#F4511E"/>
<path d="M8.125 4.875H6.5V1.625H8.125C8.55598 1.625 8.9693 1.7962 9.27405 2.10095C9.57879 2.4057 9.75 2.81902 9.75 3.25C9.75 3.68098 9.57879 4.0943 9.27405 4.39905C8.9693 4.7038 8.55598 4.875 8.125 4.875Z" fill="#FF8A65"/>
<path d="M6.5 6.5C6.5 7.39746 7.22754 8.125 8.125 8.125C9.02246 8.125 9.75 7.39746 9.75 6.5C9.75 5.60254 9.02246 4.875 8.125 4.875C7.22754 4.875 6.5 5.60254 6.5 6.5Z" fill="#29B6F6"/>
<path d="M4.875 4.875H6.5V8.125H4.875C4.44402 8.125 4.0307 7.95379 3.72595 7.64905C3.4212 7.3443 3.25 6.93098 3.25 6.5C3.25 6.06902 3.4212 5.6557 3.72595 5.35095C4.0307 5.0462 4.44402 4.875 4.875 4.875Z" fill="#7C4DFF"/>
<path d="M4.875 8.125H6.5V9.75C6.5 10.181 6.3288 10.5943 6.02405 10.899C5.7193 11.2038 5.30598 11.375 4.875 11.375C4.44402 11.375 4.0307 11.2038 3.72595 10.899C3.4212 10.5943 3.25 10.181 3.25 9.75C3.25 9.31902 3.4212 8.9057 3.72595 8.60095C4.0307 8.29621 4.44402 8.125 4.875 8.125Z" fill="#00E676"/>
</svg>
