<svg width="13" height="13" viewBox="0 0 13 13" fill="none" xmlns="http://www.w3.org/2000/svg">
<g clip-path="url(#clip0_118_1727)">
<path d="M12.6688 5.92913L7.07107 0.331613C6.74891 0.00925391 6.22607 0.00925391 5.9034 0.331613L4.74112 1.4941L6.21561 2.96858C6.55838 2.8529 6.95122 2.9305 7.22433 3.2036C7.49885 3.47843 7.57583 3.87462 7.45731 4.21851L8.87837 5.63968C9.22216 5.52115 9.61897 5.59773 9.89339 5.87276C10.2773 6.25636 10.2773 6.87823 9.89339 7.26204C9.80216 7.35331 9.69383 7.42572 9.57461 7.47512C9.45539 7.52452 9.3276 7.54995 9.19855 7.54995C9.0695 7.54995 8.94171 7.52452 8.82248 7.47512C8.70326 7.42572 8.59494 7.35331 8.50371 7.26204C8.36667 7.12486 8.27326 6.95022 8.23522 6.7601C8.19718 6.56997 8.21621 6.37284 8.28992 6.1935L6.96473 4.86831L6.96453 8.35607C7.06068 8.4034 7.14847 8.46611 7.22443 8.54172C7.60813 8.92532 7.60813 9.54699 7.22443 9.9314C6.84062 10.315 6.21855 10.315 5.83515 9.9314C5.45145 9.54709 5.45145 8.92543 5.83515 8.54172C5.92717 8.44975 6.03649 8.37692 6.1568 8.32743V4.80737C6.03635 4.75809 5.92699 4.68519 5.83515 4.59297C5.54448 4.3025 5.4745 3.87594 5.6236 3.51885L4.16993 2.06518L0.331684 5.90323C0.176834 6.05813 0.0898437 6.26819 0.0898438 6.48722C0.0898438 6.70624 0.176834 6.9163 0.331684 7.0712L5.9295 12.6687C6.25186 12.9911 6.7745 12.9911 7.09737 12.6687L12.6689 7.0972C12.8237 6.94226 12.9107 6.73218 12.9106 6.51314C12.9106 6.29411 12.8236 6.08404 12.6688 5.92913Z" fill="#F34F29"/>
</g>
<defs>
<clipPath id="clip0_118_1727">
<rect width="13" height="13" fill="white"/>
</clipPath>
</defs>
</svg>
