<svg width="12" height="12" viewBox="0 0 12 12" fill="none" xmlns="http://www.w3.org/2000/svg">
<path d="M0.5 6C0.5 7.45869 1.07946 8.85764 2.11091 9.88909C3.14236 10.9205 4.54131 11.5 6 11.5C7.45869 11.5 8.85764 10.9205 9.88909 9.88909C10.9205 8.85764 11.5 7.45869 11.5 6C11.5 4.54131 10.9205 3.14236 9.88909 2.11091C8.85764 1.07946 7.45869 0.5 6 0.5C4.54131 0.5 3.14236 1.07946 2.11091 2.11091C1.07946 3.14236 0.5 4.54131 0.5 6Z" stroke="#989898" stroke-linejoin="round"/>
<path d="M3.64258 6C3.64258 4.54131 3.89092 3.14236 4.33297 2.11091C4.77502 1.07946 5.37457 0.5 5.99972 0.5C6.62487 0.5 7.22442 1.07946 7.66647 2.11091C8.10852 3.14236 8.35686 4.54131 8.35686 6C8.35686 7.45869 8.10852 8.85764 7.66647 9.88909C7.22442 10.9205 6.62487 11.5 5.99972 11.5C5.37457 11.5 4.77502 10.9205 4.33297 9.88909C3.89092 8.85764 3.64258 7.45869 3.64258 6Z" stroke="#989898" stroke-linejoin="round"/>
<path d="M0.892578 7.83366H11.1069M0.892578 4.16699H11.1069" stroke="#989898" stroke-linecap="round"/>
</svg>
