<svg width="14" height="14" viewBox="0 0 14 14" fill="none" xmlns="http://www.w3.org/2000/svg">
<g clip-path="url(#clip0_118_1778)">
<path d="M7.56487 0C6.48096 0.7 6.27752 1.62586 6.27752 1.62586C6.27752 1.62586 6.27774 1.64839 6.26648 1.67092C6.19866 1.6823 6.15349 1.70483 6.09705 1.71609C6.01809 1.73862 5.93901 1.76127 5.85993 1.80644L5.6228 1.90816C5.46476 1.98712 5.30671 2.05483 5.14855 2.14517C5.00177 2.23552 4.8551 2.31448 4.70832 2.41609C4.69604 2.41027 4.68466 2.40272 4.67452 2.39367C3.21809 1.82919 1.93096 2.50644 1.93096 2.50644C1.81809 4.06448 2.51798 5.02425 2.65349 5.20494C2.61959 5.30655 2.58568 5.39678 2.55177 5.48712C2.43833 5.84002 2.359 6.20299 2.31487 6.57103C2.3036 6.6162 2.30349 6.68402 2.29223 6.72908C0.948664 7.39517 0.553711 8.76126 0.553711 8.76126C1.67141 10.0484 2.98107 10.1274 2.98107 10.1274C3.13912 10.421 3.34223 10.7146 3.55682 10.9742C3.64705 11.0871 3.74888 11.1886 3.83923 11.3015C3.43279 12.4644 3.90693 13.4467 3.90693 13.4467C5.16015 13.4918 5.98418 12.9047 6.15349 12.7579C6.27774 12.7918 6.40199 12.8371 6.52613 12.871C6.9061 12.9715 7.29628 13.0283 7.68912 13.0405H8.19705C8.78418 13.8872 9.82291 14 9.82291 14C10.5568 13.2209 10.602 12.4646 10.602 12.2839V12.2161C10.7488 12.1031 10.8954 11.9903 11.0536 11.8661C11.3472 11.6064 11.5956 11.2903 11.8214 10.9742C11.8439 10.9516 11.8552 10.9064 11.889 10.8839C12.7245 10.9291 13.3003 10.3646 13.3003 10.3646C13.1646 9.49517 12.6681 9.07747 12.5664 8.9985L12.5551 8.98713L12.5438 8.97575L12.5325 8.96448C12.5325 8.91931 12.5438 8.86277 12.5438 8.80644C12.5551 8.70472 12.5551 8.61448 12.5551 8.52425V8.15161C12.5551 8.12908 12.5551 8.10644 12.5438 8.07264L12.5325 7.99356L12.5212 7.91448C12.5098 7.81287 12.4873 7.72264 12.476 7.6323C12.3858 7.25977 12.2391 6.89839 12.0584 6.59345C11.8552 6.26609 11.6181 5.99506 11.3471 5.74667C11.0761 5.50955 10.7713 5.30644 10.4552 5.17092C10.1277 5.02414 9.81165 4.93391 9.47302 4.90011C9.31487 4.87747 9.13418 4.87747 8.97602 4.87747H8.71637C8.62613 4.88873 8.54727 4.89989 8.46809 4.91116C8.12946 4.97897 7.82463 5.10322 7.55371 5.26127C7.28268 5.41942 7.04555 5.63391 6.84234 5.87103C6.63912 6.10805 6.49234 6.35644 6.39062 6.62747C6.29013 6.88731 6.23294 7.16188 6.2213 7.44023V7.7338C6.2213 7.7677 6.2213 7.80161 6.23268 7.83552C6.24395 7.97092 6.26659 8.09517 6.31165 8.21942C6.39073 8.4677 6.50371 8.69345 6.65049 8.88552C6.79002 9.06871 6.95761 9.22873 7.14705 9.35966C7.33912 9.48391 7.5198 9.57403 7.72302 9.63058C7.92624 9.68713 8.10682 9.72092 8.2874 9.70955H8.54727C8.5698 9.70955 8.59234 9.6985 8.61498 9.6985C8.63751 9.6985 8.64888 9.68713 8.68268 9.68713C8.71659 9.67586 8.77291 9.66448 8.80682 9.65322C8.88579 9.63058 8.9536 9.58541 9.03257 9.56287C9.11165 9.52897 9.1682 9.48391 9.22463 9.45C9.2359 9.43874 9.25843 9.42736 9.2697 9.41609C9.33751 9.37092 9.34877 9.28069 9.29234 9.21288C9.24716 9.1677 9.16809 9.14506 9.10027 9.17897C9.08901 9.19023 9.07785 9.19034 9.05521 9.20161C9.01004 9.22414 8.94234 9.24678 8.89716 9.26931C8.82935 9.28058 8.77302 9.30322 8.70532 9.31459C8.67141 9.31459 8.63751 9.32575 8.6036 9.32575H8.32141C8.31015 9.32575 8.28751 9.32586 8.27613 9.31459C8.14062 9.29206 7.99395 9.24678 7.85854 9.19023C7.72302 9.12253 7.58751 9.04367 7.47463 8.93069C7.35142 8.81852 7.24497 8.68923 7.15854 8.54678C7.06819 8.40011 7.02291 8.23069 7.00038 8.07264C6.98912 7.9823 6.97774 7.90311 6.98912 7.81287V7.67736C6.98912 7.63219 7.00038 7.58713 7.01176 7.54195C7.07946 7.16942 7.26004 6.80805 7.54234 6.53713C7.62141 6.45805 7.68912 6.40172 7.77946 6.34528C7.8698 6.27747 7.94866 6.23241 8.03901 6.1985C8.12935 6.16459 8.23107 6.11942 8.32141 6.09678C8.42313 6.07425 8.52463 6.0515 8.61498 6.0515C8.66015 6.0515 8.71659 6.04045 8.76176 6.04045H8.89716C9.01004 6.05172 9.12302 6.06287 9.22463 6.08552C9.43912 6.13069 9.64245 6.20966 9.84566 6.32264C10.2408 6.54839 10.5794 6.88702 10.7826 7.29356C10.8843 7.49678 10.9519 7.71137 10.9971 7.9485C11.0083 8.01631 11.0084 8.06116 11.0197 8.1177V8.42253C11.0197 8.49034 11.0084 8.54678 11.0084 8.61459C10.9971 8.68241 10.9973 8.73862 10.986 8.80644C10.9746 8.87414 10.9633 8.93069 10.952 8.99839C10.9295 9.12264 10.873 9.23552 10.8392 9.35966C10.7489 9.59678 10.6245 9.82253 10.4777 10.0144C10.1842 10.4209 9.76659 10.7598 9.31509 10.9742C9.07785 11.0759 8.84073 11.1662 8.59234 11.2C8.46939 11.2224 8.34467 11.2338 8.2197 11.2338H8.02774C7.95993 11.2338 7.89234 11.234 7.82452 11.2226C7.5536 11.2001 7.29405 11.1435 7.0344 11.0758C6.77463 10.9967 6.52613 10.9064 6.28901 10.7822C5.81487 10.5339 5.39727 10.1726 5.05854 9.7662C4.90049 9.55172 4.74223 9.32575 4.61809 9.09989C4.49395 8.87403 4.4036 8.61448 4.3359 8.36609C4.25682 8.11781 4.22302 7.85805 4.21176 7.59828V7.20311C4.21176 7.07897 4.22291 6.94367 4.24555 6.80827C4.25682 6.67264 4.27935 6.54839 4.31326 6.41298C4.33579 6.27747 4.38107 6.15322 4.41498 6.0177C4.49395 5.75805 4.57291 5.50977 4.68579 5.27264C4.91154 4.7985 5.19384 4.38069 5.53257 4.04195C5.61764 3.95704 5.70822 3.87782 5.80371 3.80483C5.83762 3.77092 5.92785 3.69184 6.02946 3.63541C6.13107 3.57897 6.23268 3.51116 6.34555 3.46598C6.39084 3.44345 6.44727 3.42081 6.50371 3.38702C6.52624 3.37575 6.54866 3.36448 6.59384 3.35322C6.61648 3.34195 6.63912 3.33058 6.68418 3.31931C6.79716 3.27414 6.91015 3.22908 7.02302 3.19517C7.04566 3.18391 7.09084 3.1838 7.11337 3.17253C7.13601 3.16127 7.18096 3.16138 7.20349 3.15011C7.2713 3.13884 7.31648 3.12736 7.37302 3.10483C7.39555 3.09345 7.44073 3.09345 7.46326 3.08219C7.4859 3.08219 7.53107 3.07103 7.55371 3.07103C7.57635 3.07103 7.62152 3.05977 7.64406 3.05977L7.68912 3.04839L7.73418 3.03712C7.75671 3.03712 7.80199 3.02575 7.82452 3.02575C7.85843 3.02575 7.89234 3.01437 7.92624 3.01437C7.94877 3.01437 8.0051 3.00333 8.02774 3.00333C8.05027 3.00333 8.06176 3.00333 8.09555 2.99195H8.17463C8.20854 2.99195 8.24223 2.99195 8.27613 2.98069H8.7844C9.01015 2.99195 9.2359 3.01459 9.43912 3.05977C9.85693 3.13873 10.2745 3.27425 10.6358 3.45494C10.9972 3.62425 11.3358 3.84989 11.6067 4.08712C11.6181 4.09828 11.6407 4.10977 11.652 4.1323C11.6634 4.14356 11.6859 4.15483 11.6971 4.17736C11.731 4.2 11.7649 4.24517 11.7988 4.2677C11.8327 4.29034 11.8666 4.33552 11.9005 4.35816C11.923 4.39206 11.9681 4.42575 11.9906 4.45955C12.1149 4.5838 12.2279 4.71931 12.3295 4.84345C12.5167 5.08246 12.6794 5.3397 12.8151 5.61127C12.8262 5.62253 12.826 5.63391 12.8374 5.65655C12.8487 5.66781 12.8488 5.67897 12.86 5.70161C12.8713 5.72414 12.8826 5.76942 12.9051 5.79195C12.9165 5.81448 12.9279 5.85977 12.939 5.8823C12.9504 5.90494 12.9618 5.95011 12.973 5.97264C13.0182 6.08562 13.0634 6.19839 13.0972 6.31127C13.165 6.48058 13.1988 6.63863 13.2327 6.76298C13.2439 6.80805 13.3005 6.85322 13.3457 6.85322C13.4134 6.85322 13.4471 6.80794 13.4471 6.74023C13.4131 6.54828 13.4134 6.39045 13.402 6.1985C13.3794 5.9613 13.3343 5.69027 13.2666 5.38541C13.1988 5.08058 13.0631 4.76448 12.9051 4.41448C12.7358 4.07586 12.5213 3.71448 12.239 3.38702C12.1261 3.2515 12.002 3.12747 11.8779 2.99195C12.0811 2.21298 11.6407 1.52414 11.6407 1.52414C10.8843 1.47908 10.4099 1.76127 10.2406 1.88541C10.2181 1.87414 10.173 1.86298 10.1505 1.85172C10.0262 1.80655 9.89073 1.75 9.75532 1.70494C9.6197 1.67103 9.48429 1.61448 9.34877 1.59195C9.21326 1.55805 9.06659 1.52414 8.90843 1.5015C8.8859 1.5015 8.86326 1.49023 8.82946 1.49023C8.51326 0.4515 7.56487 0 7.56487 0Z" fill="url(#paint0_linear_118_1778)"/>
</g>
<defs>
<linearGradient id="paint0_linear_118_1778" x1="6.98893" y1="17.1567" x2="6.98893" y2="4.38007" gradientUnits="userSpaceOnUse">
<stop stop-color="#FCEE1F"/>
<stop offset="1" stop-color="#F15B2A"/>
</linearGradient>
<clipPath id="clip0_118_1778">
<rect width="14" height="14" fill="white"/>
</clipPath>
</defs>
</svg>
