<svg width="12" height="13" viewBox="0 0 12 13" fill="none" xmlns="http://www.w3.org/2000/svg">
<path d="M11.9579 0L10.8685 11.5395L5.97161 12.8231L1.08826 11.5413L0 0H11.9579Z" fill="#E44D26"/>
<path d="M5.97852 11.8419L9.93542 10.8047L10.8663 0.943604H5.97852V11.8419Z" fill="#F16529"/>
<path d="M3.86063 3.77462H5.97837V2.35913H2.22461L2.26042 2.73888L2.62838 6.6396H5.97837V5.22411H3.99745L3.86063 3.77462ZM4.19802 7.34736H2.69526L2.90498 9.5699L5.97148 10.3748L5.97837 10.373V8.90029L5.9718 8.90193L4.30461 8.47627L4.19802 7.34736Z" fill="#EBEBEB"/>
<path d="M5.97368 6.6396H7.81707L7.64326 8.47539L5.97363 8.90149V10.3741L9.04257 9.5699L9.06507 9.33074L9.4169 5.60421L9.45341 5.22411H5.97368V6.6396ZM5.97368 3.77116V3.77462H9.58963L9.61963 3.45648L9.68787 2.73888L9.72364 2.35913H5.97368V3.77116Z" fill="white"/>
</svg>
