<svg width="14" height="14" viewBox="0 0 14 14" fill="none" xmlns="http://www.w3.org/2000/svg">
<g clip-path="url(#clip0_118_1710)">
<path d="M2.47395 0.174316H11.487C12.8493 0.174316 13.9609 1.27506 13.9609 2.64826V11.3125C13.9609 12.6748 12.8602 13.7865 11.487 13.7865H2.47395C1.10074 13.7756 0 12.6748 0 11.3016V2.64826C0 1.27506 1.10074 0.174316 2.47395 0.174316Z" fill="#330000"/>
<path d="M6.74567 8.31563H4.57689L4.14095 9.67793C4.13005 9.73242 4.08646 9.76512 4.03196 9.75422H2.94212C2.87673 9.75422 2.86583 9.72152 2.87673 9.64523L4.75126 4.26141C4.77306 4.20691 4.78396 4.14152 4.80575 4.06523C4.82755 3.94535 4.83845 3.81457 4.83845 3.68379C4.82755 3.65109 4.86024 3.6293 4.88204 3.6184H6.38603C6.42962 3.6184 6.45142 3.6402 6.46231 3.66199L8.58751 9.64523C8.60931 9.71063 8.58751 9.74332 8.53302 9.74332H7.31239C7.2688 9.75422 7.2361 9.72152 7.21431 9.67793L6.74567 8.31563ZM4.91474 7.1277H6.38603C6.35333 7.00781 6.30974 6.85523 6.25524 6.71355C6.20075 6.56098 6.14626 6.3866 6.10267 6.21223C6.04817 6.02695 5.99368 5.85258 5.93919 5.6782C5.8847 5.49293 5.83021 5.32945 5.78661 5.16598C5.74302 5.0025 5.69942 4.84992 5.65583 4.70824H5.64493C5.59044 4.95891 5.52505 5.20957 5.44876 5.46023C5.36157 5.74359 5.27438 6.02695 5.1763 6.32121C5.08911 6.61547 5.00192 6.88793 4.91474 7.1277ZM9.88442 4.65375C9.68825 4.66465 9.50298 4.58836 9.3722 4.44668C9.24142 4.305 9.16513 4.10883 9.17603 3.91266C9.16513 3.71648 9.24142 3.53121 9.3831 3.40043C9.52478 3.26965 9.71005 3.19336 9.89532 3.19336C10.1242 3.19336 10.2986 3.25875 10.4293 3.40043C10.5601 3.54211 10.6255 3.72738 10.6255 3.91266C10.6364 4.10883 10.5601 4.305 10.4184 4.44668C10.2768 4.58836 10.0806 4.66465 9.88442 4.65375ZM9.23052 9.69973V5.22047C9.23052 5.16598 9.25232 5.14418 9.30681 5.14418H10.462C10.5165 5.14418 10.5383 5.17688 10.5383 5.22047V9.69973C10.5383 9.76512 10.5165 9.79781 10.462 9.79781H9.31771C9.26321 9.78691 9.23052 9.75422 9.23052 9.69973Z" fill="#FF9A00"/>
</g>
<defs>
<clipPath id="clip0_118_1710">
<rect width="13.95" height="13.95" fill="white"/>
</clipPath>
</defs>
</svg>
