<svg width="14" height="14" viewBox="0 0 14 14" fill="none" xmlns="http://www.w3.org/2000/svg">
<g clip-path="url(#clip0_118_1830)">
<path d="M10.7188 0H3.28125C1.46907 0 0 1.46907 0 3.28125V10.7188C0 12.5309 1.46907 14 3.28125 14H10.7188C12.5309 14 14 12.5309 14 10.7188V3.28125C14 1.46907 12.5309 0 10.7188 0Z" fill="#F0DB4F"/>
<path d="M3.68121 11.6993L4.75254 11.051C4.95925 11.4174 5.14727 11.7275 5.59828 11.7275C6.03058 11.7275 6.30314 11.5584 6.30314 10.9006V6.4273H7.61882V10.9192C7.61882 12.2819 6.82005 12.9021 5.65466 12.9021C4.6022 12.9021 3.99129 12.3571 3.68115 11.6992M8.33342 11.5584L9.40464 10.9381C9.68666 11.3987 10.0532 11.737 10.7016 11.737C11.2467 11.737 11.5943 11.4644 11.5943 11.0885C11.5943 10.6374 11.2372 10.4776 10.6358 10.2146L10.3069 10.0735C9.35772 9.6695 8.72804 9.162 8.72804 8.09068C8.72804 7.10389 9.47989 6.35205 10.6546 6.35205C11.491 6.35205 12.0925 6.64343 12.5247 7.40462L11.5004 8.06246C11.2748 7.65837 11.0306 7.49863 10.6546 7.49863C10.2693 7.49863 10.025 7.74297 10.025 8.06246C10.025 8.45714 10.2693 8.61693 10.8331 8.86133L11.162 9.00226C12.2803 9.4816 12.91 9.97018 12.91 11.0697C12.91 12.2539 11.9797 12.9022 10.7298 12.9022C9.50811 12.9022 8.71869 12.3196 8.33342 11.5584Z" fill="#323330"/>
</g>
<defs>
<clipPath id="clip0_118_1830">
<rect width="14" height="14" fill="white"/>
</clipPath>
</defs>
</svg>
