<svg width="14" height="14" viewBox="0 0 14 14" fill="none" xmlns="http://www.w3.org/2000/svg">
<g clip-path="url(#clip0_118_1744)">
<path d="M11.9101 6.74613C11.9101 9.51988 9.71175 11.7684 7.00002 11.7684C4.28828 11.7684 2.08984 9.51988 2.08984 6.74613C2.08984 3.97238 4.28828 1.72363 7.00002 1.72363C9.71175 1.72363 11.9101 3.97238 11.9101 6.74613Z" fill="#D33833"/>
<path d="M2.29027 7.99002C2.29027 7.99002 1.9348 2.7526 6.76065 2.60309L6.42399 2.04199L3.80523 2.92104L3.0571 3.78149L2.40238 5.03482L2.02832 6.49377L2.14043 7.46644" fill="#EF3D3A"/>
<path d="M3.63708 3.32007C2.77564 4.20164 2.24255 5.41854 2.24255 6.76495C2.24255 8.11103 2.77564 9.32826 3.63708 10.2096C4.49895 11.0908 5.68677 11.6348 7.00003 11.6348C8.3133 11.6348 9.50111 11.0908 10.363 10.2096C11.2244 9.32826 11.7576 8.11103 11.7576 6.76495C11.7576 5.41854 11.2244 4.20153 10.363 3.32007C9.50111 2.43906 8.3133 1.89513 7.00003 1.89503C5.68688 1.89513 4.49895 2.43895 3.63708 3.32018V3.32007ZM3.41909 10.4228C2.50362 9.48642 1.9375 8.1924 1.9375 6.76495C1.9375 5.33728 2.50362 4.04337 3.41909 3.10701C4.33456 2.17043 5.60156 1.58998 7.00003 1.59009C8.39872 1.58987 9.66594 2.17043 10.5811 3.10701C11.4968 4.04337 12.0629 5.33739 12.0628 6.76495C12.0628 8.19229 11.4968 9.48642 10.5811 10.4228C9.66594 11.3592 8.39872 11.9398 7.00014 11.9398C5.60156 11.9398 4.33434 11.3592 3.41909 10.4228Z" fill="#231F20"/>
<path d="M9.06693 6.77395L8.3187 6.88617L7.30862 6.99839L6.6539 7.01709L6.01788 6.9985L5.5316 6.84876L5.10132 6.38118L4.76466 5.42721L4.68985 5.22148L4.24087 5.07186L3.97902 4.64157L3.79199 4.02426L3.99773 3.48176L4.48401 3.31354L4.87688 3.50057L5.06391 3.91204L5.28846 3.87464L5.36316 3.78112L5.28846 3.35095L5.26965 2.80845L5.38187 2.06032L5.37749 1.63289L5.71863 1.08765L6.31713 0.657371L7.36473 0.208496L8.52443 0.376824L9.53451 1.10636L10.0022 1.85448L10.3014 2.39698L10.3763 3.74371L10.1517 4.90353L9.74024 5.9322L9.34748 6.4747" fill="#F0D6B7"/>
<path d="M9.62819 6.23166L9.17942 6.68065V8.42015L8.78786 10.0236L8.59963 10.0287L8.74914 11.8244L9.45986 11.7309L9.29164 10.01L8.97423 10.0187L9.83425 9.97251C9.83425 9.97251 10.2643 8.88762 10.2643 8.83151C10.2643 8.7754 10.6386 7.26034 10.6386 7.26034L9.79663 6.38129L9.6283 6.23145L9.62819 6.23166ZM5.1203 6.5121L4.65272 6.69924L3.15625 7.72802L3.24988 8.02738L3.68016 9.2992L3.86708 11.4131L3.998 11.6373L5.86842 12.2735L5.98086 12.1423L5.75631 10.5711V10.1224L8.43108 10.01L8.6367 9.89781L7.00964 9.13087L7.30889 8.55118L6.87872 8.7007L6.71028 8.49496L6.48584 7.52229L6.2987 7.46618L5.88723 7.33515L5.53177 7.0173L5.1203 6.5121Z" fill="#335061"/>
<path d="M3.99766 3.482L4.48395 3.31356L4.87682 3.5007L5.06385 3.91217L5.2884 3.87477L5.34451 3.65033L5.23229 3.22016L5.34451 2.19127L5.25088 1.63017L5.58765 1.2373L6.31718 0.6575L6.11134 0.376953L5.08255 0.881937L4.65238 1.2187L4.40913 1.74239L4.03507 2.24738L3.92285 2.84598L3.99766 3.482Z" fill="#6D6B6D"/>
<path d="M6.5017 0.43979C6.37351 0.438477 6.22355 0.451602 6.22355 0.451602L5.00785 0.919399L4.54005 1.38709L4.33432 1.76115L4.7646 1.72374C4.7646 1.72374 5.04515 1.03162 6.16745 0.694961C6.86887 0.484524 6.71541 0.442086 6.5017 0.43979ZM5.25099 1.63012L4.22221 1.87326L3.92285 2.84593L3.99766 3.48184L4.20329 3.35113C4.20329 3.35113 3.81052 2.04148 5.30688 1.85445L5.25099 1.63012Z" fill="#DCD9D8"/>
<path d="M7.65472 0.0518904C7.51066 0.0544078 7.36815 0.0820956 7.23362 0.133703C6.11144 0.563875 5.28839 1.34941 5.30698 1.85439C5.33892 2.71452 5.3258 2.71517 5.3258 2.71517C5.3258 2.71517 5.64386 1.06897 7.25266 0.750906C8.57697 0.489172 9.27259 0.806906 9.53455 1.10616C9.53455 1.10616 8.6322 0.0320936 7.65483 0.0517811L7.65472 0.0518904ZM9.65934 1.2933C9.59973 1.29297 9.12198 1.30511 9.10437 1.76109C9.10437 1.76109 9.10437 1.8358 9.14178 1.91061C9.14178 1.91061 9.57206 1.42422 9.83391 1.68606L9.66558 1.29341C9.66558 1.29341 9.66339 1.2933 9.65934 1.2933ZM6.90473 1.51314C6.81286 1.51533 6.69955 1.55372 6.56031 1.64877C6.14884 1.92931 6.18625 2.32219 6.26106 2.397C6.33587 2.47181 6.31564 2.62231 6.37262 2.51895C6.4295 2.41559 6.4108 2.07905 6.61653 1.98553C6.82227 1.89202 7.15969 1.78734 7.29028 1.96125C7.29028 1.96125 7.23319 1.50559 6.90473 1.51325V1.51314ZM9.79628 2.65895C9.79628 2.65895 9.48806 2.72392 9.45962 2.99561C9.43119 3.2673 9.79639 3.05161 9.8525 3.03291L9.79628 2.65895ZM7.53298 2.67766C7.53298 2.67766 7.12152 2.73377 7.12152 2.99561C7.12152 3.25745 7.5892 3.23875 7.72012 3.12653L7.53298 2.67766ZM4.2035 3.35119L3.77344 3.79984L3.84825 4.36105L4.07247 4.94073L4.31583 5.01577C3.96036 4.58559 4.12869 4.28612 4.2035 3.87466C4.2782 3.46308 4.98914 3.89347 4.98914 3.89347L4.97033 3.6127L4.68989 3.38848L4.2035 3.35119ZM8.42636 4.20945C8.3032 4.20398 8.25617 4.60703 8.24611 4.71105C8.28001 4.61042 8.59294 4.40808 8.59294 4.40808C8.59294 4.40808 8.59294 4.25539 8.44025 4.21186C8.43572 4.21056 8.43106 4.20975 8.42636 4.20945ZM8.24611 4.71105C8.24311 4.71874 8.24236 4.72712 8.24392 4.73522C8.24392 4.73522 8.24458 4.72636 8.24611 4.71105ZM5.04711 4.85334L4.80211 5.09069L4.85822 5.91373L5.45683 6.849C5.45683 6.849 6.12872 7.00059 6.05533 6.94263C5.25109 6.30661 5.19498 5.12809 5.17628 4.99706C5.15769 4.86625 5.04711 4.85334 5.04711 4.85334ZM7.15192 5.13214C7.07809 5.13323 7.0292 5.15708 7.01542 5.17545C6.96872 5.2378 7.06541 5.57708 7.06541 5.57708L7.15892 5.59589C7.14033 5.22172 7.36466 5.1842 7.36466 5.1842C7.28175 5.14439 7.20934 5.13127 7.15192 5.13214Z" fill="#F7E4CD"/>
<path d="M4.98938 6.49364L3.15625 7.72805L3.36198 8.30806L3.84848 10.4028L3.86708 11.5066L4.12892 11.6C4.50298 10.7021 3.77367 7.80286 3.77367 7.80286L5.53177 7.01733L4.98938 6.49364ZM5.71278 8.62077L5.66269 8.73813C5.66269 8.73813 5.62539 9.07478 5.62539 9.1683C5.62539 9.26192 5.66269 10.0477 5.66269 10.0477H5.96205V8.92516L5.71267 8.62066L5.71278 8.62077ZM5.71891 10.2159L4.87727 10.2533L5.1203 10.4217L5.71891 10.5153V10.2159ZM9.62819 6.23169L9.27294 6.62446L10.5823 7.59724L10.6197 7.14836L9.62819 6.23169ZM9.25413 9.89794L8.59963 10.0288L8.69303 10.5527C8.93617 10.6649 9.34775 10.3655 9.34775 10.3655L9.25413 9.89794Z" fill="#49728B"/>
<path d="M5.53125 6.84912V7.01734L5.76903 7.27929L6.51716 7.61595L6.53597 7.05496L6.01764 6.99853L5.53125 6.84912ZM11.0065 9.50518L10.4078 9.69232L9.83363 9.97265L9.52858 9.91687L9.29102 10.0102L9.49139 11.5817L10.2207 11.3757L11.605 11.3009L11.8107 10.665L11.4366 9.5614L11.0065 9.50518ZM8.59911 10.0288L7.50864 10.029L5.7558 10.1224L5.78762 10.9831L5.98034 12.1424L6.36753 13.714L7.22787 13.901L8.64953 13.7887L8.66812 13.5081L8.49969 11.993L8.59911 10.0288ZM8.74316 9.87936L8.33158 8.83187L7.9013 8.21456C7.9013 8.21456 7.99481 7.95271 8.12584 7.95271H8.55602L8.96748 8.10234L8.93019 8.79446L8.74316 9.87936Z" fill="white"/>
<path d="M5.69966 7.11084L5.64355 7.18576L5.96162 7.41009L6.4852 7.5222L6.4666 7.29798C6.27957 7.35409 5.69966 7.11084 5.69966 7.11084ZM8.29951 7.91507L7.86945 7.97107L8.59898 9.69198L8.74849 9.71079L8.8233 9.52376C8.8233 9.52376 8.2994 8.51357 8.2994 8.36395C8.2994 8.36395 8.39302 8.13951 8.52394 8.19551C8.65498 8.25173 8.93563 8.40136 8.93563 8.40136V8.046L8.29951 7.91507ZM10.0766 9.87912L9.83349 9.97253L10.0392 11.0013C9.96441 10.9826 9.47813 11.2073 9.47813 11.2073L9.53391 11.5065L9.73998 11.4316L10.3945 11.3382L10.5816 11.5813L11.1427 11.5999L11.4795 11.5251L11.7787 11.0763L11.7599 10.7395L11.5543 10.1409C11.6104 10.5897 11.3859 11.0201 11.3859 11.0201C11.2923 11.0201 10.245 10.9639 10.245 10.9639C10.245 10.8517 10.0766 9.87912 10.0766 9.87912ZM8.63616 9.89772L8.35562 10.01C8.35562 10.01 8.26221 11.9555 8.54276 13.3396C8.54276 13.3396 7.98166 13.695 7.15851 13.7884L8.72968 13.7323L8.91682 13.6201L8.69238 10.5524L8.63616 9.89772ZM9.12507 11.8989C9.04457 11.8994 8.92491 11.9565 8.84037 11.9509C8.82801 12.2463 8.86946 12.7201 8.88335 13.0301C9.07979 13.0303 9.1639 12.9872 9.31057 12.9378C9.32709 12.573 9.19496 12.2354 9.15701 11.9023C9.14662 11.8997 9.13579 11.8985 9.12507 11.8989Z" fill="#DCD9D8"/>
<path d="M9.27241 6.98002C9.03266 6.99118 8.70935 7.29688 8.55874 7.35048C8.5782 7.40648 8.61014 7.45078 8.61255 7.5222C8.7181 7.49617 8.84661 7.51399 8.93816 7.55895C8.83228 7.57076 8.71525 7.5701 8.64525 7.62053C8.61955 7.69457 8.65127 7.79552 8.6341 7.89834C8.88522 7.96921 9.17211 8.00706 9.48941 8.01635C9.55131 7.93618 9.57231 7.78306 9.56488 7.63157C9.55613 7.44892 9.50811 7.07332 9.39535 7.00759C9.35816 6.98604 9.31681 6.97806 9.27241 6.98002ZM6.80764 7.06184C6.55345 7.06731 6.57992 7.51115 6.59228 7.78284C6.60267 8.01231 6.72222 8.25512 6.77384 8.4077C6.79834 8.47879 6.80381 8.55448 6.86463 8.56848C6.97225 8.59363 7.32728 8.45177 7.42845 8.39665C7.64228 8.28006 7.80831 8.09477 7.98988 7.97042L7.99666 7.78907C7.8875 7.7346 7.7615 7.69588 7.60105 7.68888C7.70988 7.6342 7.86978 7.63496 7.96888 7.56988L7.97172 7.49748C7.79081 7.48359 7.7218 7.40298 7.60258 7.33768C7.40745 7.23115 7.11433 7.11488 6.86233 7.06676C6.84432 7.06321 6.82599 7.06156 6.80764 7.06184ZM8.27655 7.43995C8.2282 7.44038 8.17056 7.45865 8.10483 7.50262C8.09236 7.64032 8.12452 7.68527 8.15219 7.84332C8.53424 7.96287 8.53774 7.4382 8.27655 7.43995Z" fill="#D33833"/>
<path d="M9.24873 6.84912L8.53801 7.26059L8.50039 7.46622V7.87768L8.76223 7.97131C8.76223 7.97131 8.63131 7.78428 8.72493 7.72817C8.81845 7.67206 8.91207 7.72817 8.96818 7.63465C9.02429 7.54103 8.96818 7.48492 8.98678 7.3727C9.00548 7.26048 9.09899 7.24189 9.19251 7.22318C9.28603 7.20459 9.54798 7.16707 9.58539 7.26059L9.47317 6.92393L9.24873 6.84912ZM6.89323 6.96178C6.80059 6.95981 6.71615 6.97512 6.65424 7.01723C6.21445 7.31637 6.56893 8.00773 6.7844 8.41439C6.76615 8.18061 6.74653 7.94695 6.72556 7.7134C6.68596 7.27809 6.83023 7.35411 7.20768 7.35411C7.26543 7.35411 7.5626 7.42279 7.58393 7.46632C7.68598 7.67468 7.41331 7.62831 7.7014 7.78548C7.94465 7.91804 8.37428 7.70487 8.27606 7.41011C8.22104 7.34448 7.9895 7.38965 7.90648 7.34667L7.4681 7.11939C7.34035 7.053 7.0971 6.96604 6.89323 6.96178ZM6.78429 8.41428L6.79818 8.58862L6.86512 8.56861C6.84281 8.52431 6.81492 8.47203 6.7844 8.41439L6.78429 8.41428Z" fill="#EF3D3A"/>
<path d="M7.38991 0.000697682C6.99725 0.00813518 6.61323 0.0734321 6.2932 0.191229C6.05531 0.278729 5.82486 0.357041 5.61595 0.47976C5.05694 0.807885 4.46347 1.02751 4.29777 1.68803C3.88936 1.8709 3.7662 2.3936 3.78677 3.0002C3.7907 3.11843 3.85491 3.2662 3.8327 3.37743C3.82133 3.43387 3.74477 3.50617 3.72945 3.54292C3.53367 4.00962 3.69063 4.6231 3.91681 4.95484C4.05353 5.15521 4.27994 5.33295 4.57853 5.38009C4.59045 5.55892 4.63344 5.71281 4.71602 5.89404C4.7683 6.00867 4.96353 6.21473 4.89167 6.36096C4.85558 6.43468 4.53763 6.5947 4.43219 6.65803C4.07617 6.87153 3.81816 7.00245 3.48948 7.23903C3.27686 7.39215 2.94425 7.41184 2.99675 7.7649C3.03208 8.00312 3.1677 8.29843 3.24525 8.53731C3.32925 8.7951 3.44956 9.03124 3.51869 9.29878C3.67236 9.89498 3.70441 10.4567 3.74181 11.039C3.75647 11.2671 3.73219 11.5084 3.79136 11.6343C3.85239 11.7644 4.07858 11.806 4.24198 11.8819C4.71394 12.1001 5.21466 12.4334 5.83361 12.3672C5.98116 12.8633 6.12061 13.3917 6.29769 13.8262C6.93239 14.0544 7.93437 14.0187 8.59423 13.9394C8.79483 13.9152 9.00647 13.8162 9.05361 13.6423C9.0395 13.5351 9.02386 13.429 9.03064 13.3022C9.23692 13.2596 9.51769 13.2244 9.56308 12.996C9.62673 12.6757 9.36084 12.2169 9.44955 11.8655C9.56898 11.8268 9.69652 11.7965 9.67748 11.6079C9.87874 11.5031 10.1175 11.4797 10.3723 11.4896C10.4052 11.553 10.4519 11.614 10.4939 11.6489C10.8509 11.7207 11.1966 11.7266 11.493 11.6299C11.8285 11.5203 11.9885 10.8342 11.9118 10.5077C11.8573 10.2764 11.7342 9.89739 11.6292 9.67339C11.3447 9.06526 10.4968 9.44698 10.043 9.67251C10.2632 9.09337 10.4525 8.4929 10.6468 7.84321C10.7047 7.64853 10.8194 7.37257 10.7937 7.17089C10.7696 6.98123 10.4738 6.78195 10.3182 6.63167C10.2317 6.54832 9.82831 6.24207 9.80491 6.12745C9.78227 6.01654 9.96941 5.76531 10.0296 5.63964C10.116 5.45982 10.1779 5.23976 10.2204 5.09003C10.5376 3.97484 10.5699 2.44271 10.1164 1.52593C9.94469 1.17867 9.46453 0.699057 9.1643 0.471885C8.72155 0.137198 8.04408 -0.0115523 7.38991 0.000697682ZM7.44219 0.311323C7.97233 0.306182 8.56186 0.493213 8.96108 0.718416C9.29467 0.906541 9.54077 1.27054 9.77548 1.5734C9.44638 1.47573 9.16627 1.64362 9.21734 1.91509C9.49286 1.66254 9.9635 1.91235 10.1027 2.19159C10.2358 2.45846 10.235 2.85407 10.2554 3.25089C10.305 4.21317 10.0793 5.20596 9.59578 5.90148C9.4665 6.0872 9.358 6.2902 9.17622 6.41806C8.73806 6.72573 8.07208 7.00463 7.5018 6.81334C6.7482 6.56046 6.40586 6.05832 5.99133 5.48334C6.00259 5.79921 6.22473 6.05843 6.44414 6.30004C6.635 6.51059 6.86534 6.74848 7.11319 6.8467C6.90647 6.79813 6.58906 6.78293 6.50288 6.96854C6.02053 6.93649 5.57231 6.88717 5.34416 6.56024C5.16434 6.30256 4.98169 5.86429 4.89977 5.52578C4.88303 5.45621 4.85438 5.30812 4.86138 5.27017C4.88828 5.12328 5.14991 5.05874 5.04698 4.85345C4.85711 4.8517 4.81434 5.02626 4.64011 5.04354C4.18894 5.08817 3.87066 4.44559 3.89111 4.05785C3.9085 3.7282 4.18719 3.41276 4.56836 3.45443C4.83775 3.48396 4.9293 3.77796 4.98158 4.03959C5.13689 4.0479 5.36122 4.03292 5.43472 3.91173C5.42411 3.61609 5.28684 3.37896 5.29625 3.10728C5.31397 2.59671 5.59211 2.13603 5.37752 1.63312C5.6072 1.11206 6.28106 0.700807 6.77948 0.452198C6.97253 0.355948 7.20123 0.313948 7.4423 0.311541L7.44219 0.311323ZM6.07084 0.567916C6.0925 0.571416 6.11241 0.58826 6.13166 0.608823C6.12838 0.697526 6.04088 0.695666 5.98181 0.724104C5.88994 0.837088 5.75563 0.889916 5.64384 1.01373C5.52911 1.1406 5.40081 1.48142 5.24878 1.51904C5.17255 1.53807 5.08548 1.50592 5.01909 1.51029C4.84355 1.52134 4.71995 1.61124 4.54189 1.63706C4.7718 1.13448 5.48897 0.727823 6.04842 0.569338C6.05572 0.567318 6.06335 0.566833 6.07084 0.567916ZM7.02678 1.65871C6.73836 1.65904 6.40991 1.96737 6.32427 2.20264C6.28948 2.29823 6.23458 2.48592 6.3725 2.51928C6.52705 2.17485 6.78036 1.84279 7.29016 1.96146C7.38805 1.80057 7.21305 1.68234 7.08377 1.66287C7.06487 1.66006 7.04589 1.65867 7.02678 1.65871ZM5.20503 1.71121C5.40213 2.21281 5.06361 2.8089 5.18972 3.35742C5.22833 3.52542 5.36188 3.78617 5.14859 3.79185C5.15417 3.31388 4.56125 3.01059 4.11445 3.29157C4.08459 2.9291 4.03286 2.41953 4.28005 2.14762C4.50809 1.89649 4.82244 1.7402 5.20503 1.71121ZM9.77428 2.54214C9.75798 2.81743 9.86025 2.98314 9.93123 3.17782C9.80852 3.25504 9.56975 3.20692 9.43139 3.2674C9.42155 3.6746 10.0614 3.4739 10.1587 3.24717C10.0133 3.03585 9.91363 2.78232 9.79834 2.54312L9.77428 2.54214ZM7.55123 2.54837C7.47555 2.76318 7.68117 3.12784 7.79645 3.31224C7.64628 3.45804 7.37623 3.33696 7.17531 3.32756C6.98358 3.63042 7.5497 3.6874 7.79263 3.61565C7.85913 3.59607 7.97419 3.49643 7.99005 3.45159C8.05753 3.26204 7.92147 3.17892 7.85147 3.11067C7.69616 2.95929 7.6605 2.74864 7.55123 2.54837ZM8.70503 2.74634C8.69037 2.74437 8.67277 2.74962 8.65166 2.76493C8.63798 3.26981 9.01314 3.68773 9.29292 4.02493C9.42964 4.18954 9.59436 4.2836 9.44266 4.53932C9.19809 4.63229 8.80227 4.89862 8.46222 4.84043C8.28175 4.80959 8.32244 4.60473 8.25769 4.49339C8.13322 4.65712 8.182 4.90485 8.31019 5.0162C8.90945 5.07548 9.31731 4.81998 9.68306 4.58493C9.66852 4.49284 9.79375 4.32681 9.75897 4.18834C9.74694 4.14065 9.63844 4.07153 9.57259 3.99945C9.3043 3.70687 8.93669 3.2697 8.79056 2.92779C8.77744 2.89717 8.76858 2.75476 8.70503 2.74634ZM4.44159 3.69079C4.30302 3.6886 4.17745 3.77993 4.14781 3.99518C4.20928 3.95493 4.25883 3.84042 4.36963 3.89489C4.27228 4.08487 4.29569 4.45489 4.42814 4.5752C4.42738 4.34967 4.39227 3.96412 4.58455 3.97582C4.71919 3.98392 4.74642 4.27223 4.86105 4.33764C4.94013 3.95723 4.6727 3.69429 4.44159 3.69079ZM9.91592 4.82392C9.62356 4.95735 9.38764 5.15171 9.0057 5.18835C8.98722 5.25146 8.99509 5.41071 9.00527 5.51538C9.50478 5.50499 9.74574 5.14799 9.91592 4.82392ZM7.52236 5.03403C7.66838 5.42482 8.32659 5.56263 8.88331 5.53485C8.88244 5.41914 8.88298 5.30189 8.8598 5.20695C8.42667 5.21964 7.84097 5.20148 7.52236 5.03403ZM7.46188 5.34662C7.18045 5.34695 7.4178 5.50346 7.46548 5.56471C7.56414 5.69159 7.67986 5.90804 7.86011 6.00385C8.14427 6.15479 8.70864 6.09146 8.91339 6.00823C8.98908 5.9776 9.05011 5.89262 9.07822 5.82087C8.43947 5.83618 7.68227 5.89984 7.46188 5.34662ZM9.58769 6.42178C9.80644 6.59798 9.93856 6.76379 10.1483 6.95224C10.2621 7.05429 10.4861 7.17657 10.5087 7.34162C10.5213 7.43371 10.4649 7.65935 10.4441 7.76293C10.3522 8.21728 10.1455 8.81753 9.94863 9.29364C9.87709 9.46667 9.80863 9.68301 9.71423 9.72042C9.45567 9.82279 9.14188 9.71046 8.92214 9.84729C9.21745 9.33487 9.53902 8.85078 9.82842 8.33223C9.78434 8.22942 9.67628 8.18556 9.64489 8.07104C9.84811 7.68724 9.7547 6.49571 9.23605 6.74728C9.30856 6.64074 9.49898 6.55281 9.58769 6.42178ZM5.02413 6.69303C5.07127 6.67443 5.41536 7.1221 5.46622 7.15842C5.74513 7.35639 6.09141 7.51279 6.41527 7.66734C6.43506 7.81598 6.48089 8.00859 6.56161 8.26628C6.65053 8.55087 6.72392 8.95249 7.09995 8.74731C7.06419 8.90984 6.85528 9.01068 6.91292 9.20023C6.94902 9.31912 7.34386 9.46601 7.46899 9.53667C7.69988 9.66682 7.91053 9.73879 8.08794 9.81492C7.28184 9.83701 6.52486 9.90263 5.77991 10.004C5.69066 9.86578 5.72664 9.65271 5.71723 9.43254C5.70695 9.19345 5.80638 8.65445 5.71242 8.62098C5.60622 8.58325 5.58631 8.79849 5.58248 8.84596C5.56258 9.0984 5.70269 9.63292 5.56455 9.93512C5.41339 9.89235 5.33891 9.77871 5.19727 9.72709C5.1417 9.90209 5.31233 9.91051 5.29483 10.0216C5.27164 10.1685 4.99328 10.0457 4.99481 10.2641C5.17605 10.2932 5.45408 10.2078 5.64778 10.2895C5.69842 10.8837 5.7798 11.4468 5.86894 12.078C5.09806 12.038 4.59909 11.6549 4.03089 11.3893C3.99556 10.1325 3.7953 8.82879 3.29939 7.76457C3.81958 7.36317 4.40167 6.93857 5.02424 6.69314L5.02413 6.69303ZM9.29872 6.98024C9.33328 6.98188 9.36577 6.99053 9.39541 7.00781C9.50828 7.07365 9.5563 7.44924 9.56505 7.6319C9.57238 7.78339 9.55127 7.93629 9.48958 8.01657C9.17217 8.00728 8.88539 7.96954 8.63427 7.89867C8.65144 7.79585 8.6195 7.69468 8.6452 7.62053C8.71509 7.57021 8.83234 7.57109 8.93811 7.55928C8.84667 7.51421 8.71827 7.49639 8.61272 7.52242C8.6102 7.45089 8.57816 7.4067 8.5588 7.3507C8.71488 7.29503 9.05689 6.96832 9.29872 6.98024ZM8.72997 6.99413C8.59675 7.08098 8.48333 7.18959 8.35547 7.28234C8.07186 7.29645 7.91709 7.26276 7.70873 7.0999C7.71202 7.08678 7.73302 7.09268 7.73389 7.0766C8.03741 7.2119 8.4235 7.02148 8.72997 6.99413ZM5.73889 6.99949C5.89716 7.10942 6.20341 7.08229 6.43648 7.1232C6.44852 7.1979 6.38814 7.29601 6.38924 7.40003C6.19313 7.38799 5.57691 7.16378 5.73889 6.99949ZM6.8077 7.06217C6.82462 7.06173 6.84285 7.06337 6.86239 7.06709C7.11439 7.11521 7.40752 7.23137 7.60264 7.33801C7.72186 7.4032 7.79088 7.4837 7.97178 7.4977L7.96905 7.5701C7.86995 7.63518 7.70994 7.63442 7.60122 7.6891C7.76156 7.6961 7.88778 7.73471 7.99694 7.78918L7.98983 7.97064C7.80816 8.09499 7.64223 8.28017 7.42841 8.39676C7.32723 8.45189 6.97231 8.59385 6.8648 8.5687C6.80388 8.55459 6.79841 8.47901 6.77402 8.40792C6.72228 8.25534 6.60295 8.01264 6.59245 7.78317C6.58009 7.51137 6.55352 7.06731 6.8077 7.06217ZM8.26173 7.44093C8.27668 7.43977 8.2909 7.44017 8.30439 7.44214C8.53692 7.47637 8.52008 7.9586 8.15214 7.84354C8.12447 7.6856 8.09242 7.64054 8.10478 7.50284C8.16406 7.46335 8.21656 7.44454 8.26173 7.44093ZM8.47348 7.98934C8.6067 8.00356 8.71214 8.18731 8.90223 8.17528C8.87172 8.67096 8.88769 9.1684 8.74933 9.62253C8.49153 9.14981 8.33983 8.57909 8.00612 8.17692C8.04134 8.13951 8.07284 8.09806 8.10741 8.05978C8.25856 8.123 8.35722 7.97687 8.47348 7.98934ZM9.23998 8.14706C9.42352 8.14564 9.5738 8.26562 9.65638 8.39829C9.39781 8.84126 9.15041 9.29604 8.84372 9.68673C8.97223 9.30851 9.02736 8.67556 9.04683 8.193C9.1071 8.16378 9.17302 8.14811 9.23998 8.14706ZM7.84327 8.31582C8.14952 8.70454 8.33589 9.2045 8.54108 9.68706C8.05633 9.54093 7.56108 9.30381 7.13627 9.0634C7.21961 8.70203 7.54642 8.51478 7.84327 8.31582ZM11.071 9.59857C11.2041 9.60185 11.3364 9.70992 11.3942 9.79753C11.4988 9.95546 11.5965 10.4204 11.6513 10.6673C11.733 11.0347 11.5493 11.3923 11.2572 11.4632C11.0446 11.5148 10.7184 11.5285 10.5792 11.4612C10.7496 11.3682 11.0056 11.3676 11.2028 11.3037C10.9203 11.1821 10.5023 11.2967 10.1626 11.2755C10.1215 10.8561 10.0906 10.4013 9.99117 10.0702C10.1895 9.85943 10.6685 9.80879 10.9405 9.63478C10.9794 9.60987 11.0249 9.59725 11.071 9.59857ZM11.048 9.98992C10.6998 10.0002 10.4278 10.0924 10.2725 10.3113C10.555 10.3293 10.7584 10.0479 11.048 9.98992ZM9.67639 10.0758C9.70111 10.0767 9.72517 10.0798 9.74858 10.0849C9.93364 10.4031 9.97345 10.9324 9.96733 11.3165C9.85194 11.3388 9.77702 11.4049 9.63702 11.4005C9.60125 10.9629 9.49964 10.5028 9.45786 10.0858C9.52458 10.0845 9.60234 10.0727 9.67639 10.0758ZM7.53231 10.0805C7.89762 10.0746 8.252 10.096 8.5588 10.1599C8.63372 10.6469 8.60583 11.1273 8.66052 11.6047C8.73292 12.24 8.67867 12.9647 8.8027 13.5599C8.12753 13.7692 7.20692 13.7489 6.44305 13.517C6.09884 12.4623 5.91116 11.4612 5.78166 10.2702C6.28336 10.1764 6.9232 10.0903 7.53231 10.0805ZM9.15369 10.1225C9.27433 10.5586 9.26711 11.1134 9.32639 11.6064C9.14395 11.6464 9.01052 11.666 8.81419 11.6955C8.77514 11.1834 8.74528 10.6789 8.75228 10.1674C8.89141 10.1208 9.01413 10.1237 9.15369 10.1225ZM10.7381 10.3736C10.6003 10.3754 10.4763 10.4053 10.4231 10.4865C10.6626 10.5062 10.9396 10.4679 11.1756 10.4429C11.068 10.4058 10.8943 10.3715 10.7381 10.3736ZM10.6986 10.728C10.5752 10.7295 10.4664 10.7529 10.4105 10.813C10.6625 10.8341 10.9922 10.8393 11.2574 10.8336C11.1499 10.7835 10.9042 10.7254 10.6986 10.728ZM9.08883 11.9022C9.11464 11.8982 9.13805 11.8973 9.15741 11.9024C9.19547 12.2355 9.32748 12.573 9.31097 12.9378C9.16441 12.9872 9.08019 13.0305 8.88364 13.0302C8.86986 12.7202 8.8283 12.2464 8.84077 11.9509C8.91317 11.9557 9.0115 11.9144 9.08883 11.9022Z" fill="#231F20"/>
<path d="M9.24033 8.14699C9.17333 8.14802 9.10736 8.1637 9.04706 8.19292C9.02759 8.67549 8.97269 9.30844 8.84406 9.68655C9.15086 9.29597 9.39816 8.84108 9.65672 8.39822C9.57403 8.26555 9.42386 8.14556 9.24033 8.14699ZM7.84361 8.31586C7.54677 8.51492 7.22017 8.70217 7.13672 9.06355C7.56153 9.30395 8.05678 9.54097 8.54153 9.68709C8.33634 9.20475 8.14997 8.70469 7.84361 8.31586Z" fill="#81B0C4"/>
<path d="M8.73022 6.9939C8.597 7.08085 8.48358 7.18935 8.35572 7.28221C8.07211 7.29621 7.91734 7.26252 7.70898 7.09966C7.71237 7.08654 7.73337 7.09244 7.73414 7.07636C8.03766 7.21166 8.42364 7.02124 8.73022 6.9939Z" fill="#F0D6B7"/>
<path d="M8.65495 8.39193C8.65495 8.41921 8.64412 8.44538 8.62482 8.46467C8.60553 8.48396 8.57937 8.4948 8.55209 8.4948C8.5248 8.4948 8.49864 8.48396 8.47935 8.46467C8.46006 8.44538 8.44922 8.41921 8.44922 8.39193C8.44922 8.36465 8.46006 8.33848 8.47935 8.31919C8.49864 8.2999 8.5248 8.28906 8.55209 8.28906C8.57937 8.28906 8.60553 8.2999 8.62482 8.31919C8.64412 8.33848 8.65495 8.36465 8.65495 8.39193ZM8.75787 8.86891C8.75787 8.89621 8.74703 8.92239 8.72773 8.94169C8.70843 8.96099 8.68225 8.97184 8.65495 8.97184C8.62766 8.97184 8.60148 8.96099 8.58218 8.94169C8.56287 8.92239 8.55203 8.89621 8.55203 8.86891C8.55203 8.84162 8.56287 8.81544 8.58218 8.79614C8.60148 8.77684 8.62766 8.76599 8.65495 8.76599C8.68225 8.76599 8.70843 8.77684 8.72773 8.79614C8.74703 8.81544 8.75787 8.84162 8.75787 8.86891Z" fill="#1D1919"/>
</g>
<defs>
<clipPath id="clip0_118_1744">
<rect width="14" height="14" fill="white"/>
</clipPath>
</defs>
</svg>
