<svg width="14" height="14" viewBox="0 0 14 14" fill="none" xmlns="http://www.w3.org/2000/svg">
<g clip-path="url(#clip0_118_1739)">
<path d="M6.92658 0.208459C6.80329 0.214715 6.6825 0.24532 6.57129 0.29848L1.72138 2.61571C1.59586 2.67565 1.48558 2.76287 1.39871 2.87089C1.31185 2.97891 1.25063 3.10494 1.21961 3.23964L0.0232927 8.44473C-0.00432727 8.56464 -0.00741814 8.68883 0.014203 8.80995C0.0358241 8.93106 0.081718 9.04665 0.14917 9.14986C0.165537 9.17511 0.183141 9.19956 0.201918 9.2231L3.55864 13.3968C3.64552 13.5048 3.75583 13.592 3.88135 13.6519C4.00688 13.7118 4.1444 13.7429 4.28371 13.7429L9.66688 13.7416C9.80614 13.7417 9.94363 13.7107 10.0692 13.6509C10.1947 13.5911 10.305 13.504 10.392 13.3961L13.7475 9.2219C13.8344 9.11386 13.8957 8.98777 13.9267 8.85302C13.9577 8.71826 13.9578 8.5783 13.9268 8.44354L12.7284 3.23844C12.6974 3.10373 12.6362 2.97767 12.5493 2.86963C12.4624 2.76159 12.3521 2.67436 12.2266 2.6144L7.37625 0.29848C7.23633 0.231602 7.08171 0.200648 6.92658 0.208459Z" fill="#326CE5"/>
<path d="M6.9726 1.97754V1.97863C6.81217 1.98015 6.68226 2.12423 6.68226 2.30253C6.68226 2.30558 6.68281 2.3082 6.68281 2.3106C6.68259 2.33479 6.6815 2.364 6.68226 2.38514C6.68608 2.48824 6.70842 2.56693 6.72204 2.66142C6.74057 2.81617 6.74547 2.939 6.74646 3.06324L6.75038 3.04537C6.74864 2.95829 6.74435 2.87129 6.73752 2.78446C6.75267 2.91829 6.76367 3.0421 6.75779 3.15413C6.75615 3.11871 6.75114 3.08035 6.7506 3.04711L6.74667 3.06499C6.747 3.1028 6.75714 3.15108 6.75419 3.18737C6.74754 3.21898 6.72248 3.24132 6.7033 3.26824L6.70057 3.28143C6.71943 3.25669 6.73915 3.23304 6.75071 3.20525C6.7361 3.25135 6.70493 3.292 6.67365 3.32448C6.68237 3.31096 6.68957 3.29592 6.69981 3.28252L6.70264 3.26944C6.68684 3.29156 6.6779 3.31925 6.66068 3.33592L6.66003 3.33657L6.65306 3.45864C6.47714 3.47325 6.30246 3.50005 6.13026 3.53885C5.40455 3.70302 4.74434 4.08003 4.23415 4.62161C4.20189 4.59959 4.14696 4.56058 4.13061 4.54837L4.13007 4.54783L4.12898 4.54804C4.07688 4.55502 4.02544 4.5706 3.95787 4.53137C3.82851 4.44418 3.71037 4.32354 3.56727 4.17826C3.50177 4.10884 3.45426 4.04247 3.37611 3.97544C3.35835 3.96007 3.33143 3.93948 3.31159 3.92389C3.25361 3.87718 3.18219 3.85025 3.10779 3.84706C3.01788 3.84401 2.93124 3.8791 2.87457 3.95027C2.77376 4.07669 2.80612 4.26992 2.94628 4.38184L2.95064 4.38468C2.9696 4.40026 2.99314 4.42021 3.0108 4.43328C3.09384 4.49442 3.16959 4.52581 3.25165 4.5742C3.42537 4.68144 3.5688 4.77015 3.6828 4.87707C3.72661 4.9236 3.73445 5.00676 3.74056 5.04327V5.04414L3.83287 5.12632C3.33579 5.87547 3.1054 6.80032 3.24086 7.74259L3.12065 7.77791L3.12022 7.77856C3.08807 7.82008 3.04262 7.88449 2.99652 7.90356C2.84765 7.95043 2.67959 7.96765 2.47667 7.9889C2.38163 7.99686 2.29946 7.99228 2.1981 8.01146C2.17576 8.01582 2.1447 8.02366 2.1204 8.02933L2.11789 8.02999L2.11353 8.03119C1.94133 8.07293 1.83017 8.23139 1.86613 8.38778C1.90177 8.54417 2.07026 8.6391 2.24366 8.60172L2.24791 8.60106H2.24812C2.2503 8.60052 2.25227 8.59943 2.25357 8.5991C2.27755 8.59387 2.30763 8.5881 2.32877 8.58232C2.42828 8.55562 2.50031 8.5166 2.58957 8.48249C2.78139 8.41361 2.94028 8.35607 3.09493 8.33373C3.15836 8.32871 3.22615 8.37318 3.26026 8.39225L3.26113 8.39269L3.38668 8.37122C3.67811 9.27295 4.28755 10.0016 5.05916 10.4596L5.00685 10.5851L5.00717 10.5862C5.02614 10.6353 5.04684 10.7014 5.033 10.7488C4.97677 10.8944 4.88042 11.0484 4.77057 11.2203C4.71738 11.2996 4.66267 11.3614 4.61472 11.4525C4.60306 11.4744 4.58856 11.5078 4.57745 11.5307C4.50225 11.6914 4.55739 11.8769 4.70202 11.9466C4.84751 12.0166 5.02788 11.9426 5.10602 11.7817L5.10679 11.7808V11.7797C5.11768 11.7571 5.13316 11.7276 5.14264 11.7062C5.18384 11.6119 5.19768 11.5311 5.22656 11.4402H5.22623C5.30317 11.247 5.34546 11.0449 5.45063 10.9195C5.47897 10.8857 5.52561 10.8724 5.57444 10.8593L5.57553 10.8589L5.64092 10.7408C6.50186 11.0718 7.45454 11.0742 8.31714 10.7475C8.33588 10.7805 8.36923 10.8418 8.3785 10.8576L8.37893 10.8582L8.3798 10.8587C8.42972 10.8749 8.48312 10.883 8.52693 10.9476C8.60562 11.0824 8.65968 11.2422 8.7255 11.4353C8.75438 11.526 8.76877 11.607 8.80997 11.7013C8.81945 11.7231 8.83503 11.7531 8.84593 11.7759C8.92385 11.9374 9.10477 12.0116 9.25059 11.9415C9.3951 11.8718 9.45025 11.6865 9.37516 11.5258C9.36404 11.5029 9.34867 11.4693 9.33723 11.4474C9.28917 11.3563 9.23446 11.2952 9.18138 11.2158C9.07131 11.044 8.98053 10.9014 8.92418 10.7557C8.90097 10.681 8.9281 10.6354 8.94663 10.5862L8.94729 10.5847L8.9462 10.5836C8.94235 10.5778 8.93907 10.5717 8.93639 10.5653C8.93175 10.5549 8.92739 10.5443 8.92331 10.5337C8.91459 10.5108 8.90587 10.4855 8.8989 10.4687C9.7008 9.99465 10.2924 9.23884 10.5707 8.36588C10.6085 8.37176 10.6721 8.38277 10.6928 8.38691L10.6939 8.38713L10.6948 8.38669C10.7387 8.35781 10.7777 8.32065 10.8556 8.32686C11.0103 8.3492 11.169 8.40685 11.3611 8.47573C11.4501 8.50974 11.5223 8.54952 11.6219 8.57611C11.643 8.58177 11.6731 8.58711 11.6971 8.59235C11.6984 8.59267 11.7002 8.59365 11.7025 8.5942H11.7027L11.7071 8.59463C11.8804 8.6318 12.049 8.53709 12.0846 8.3807C12.1203 8.22431 12.0093 8.06595 11.837 8.02443C11.8123 8.01876 11.777 8.00906 11.7525 8.00438C11.6512 7.98519 11.5691 7.98999 11.4739 7.98203C11.2712 7.96078 11.1031 7.94356 10.954 7.8967C10.8944 7.87349 10.8514 7.80166 10.83 7.77158L10.8293 7.77093L10.7132 7.73715C10.7753 7.28581 10.7546 6.82693 10.6521 6.38301C10.5495 5.93464 10.3654 5.50891 10.1091 5.12697C10.1394 5.09951 10.1946 5.05057 10.2106 5.03586L10.2114 5.0352V5.03411C10.2162 4.9818 10.212 4.9284 10.2653 4.87129C10.3792 4.76449 10.523 4.67545 10.6966 4.56842C10.7788 4.52004 10.8551 4.48876 10.9379 4.42751C10.9568 4.41356 10.9824 4.39176 11.002 4.37596C11.1421 4.26414 11.1746 4.07102 11.0737 3.94449C10.9729 3.81807 10.7775 3.80641 10.6374 3.91812C10.6176 3.93392 10.5906 3.9543 10.5727 3.96966C10.4945 4.03702 10.4463 4.10328 10.3809 4.1727C10.2378 4.3182 10.1195 4.43928 9.99005 4.52647C9.93479 4.55851 9.85295 4.5475 9.81535 4.54521H9.81447L9.70505 4.62357C9.07567 3.96443 8.2196 3.54288 7.29759 3.46049C7.29487 3.41786 7.29255 3.37521 7.29061 3.33254V3.33167L7.28996 3.33102C7.25182 3.29472 7.20713 3.26454 7.1958 3.18737V3.18716C7.18326 3.03153 7.20419 2.8638 7.22849 2.66142C7.24212 2.56693 7.26468 2.48813 7.26838 2.38514C7.26936 2.3616 7.26784 2.32771 7.26784 2.30253C7.26784 2.12325 7.13673 1.97754 6.97489 1.97754H6.9726ZM3.13907 3.85578C3.15448 3.85796 3.16966 3.86108 3.18463 3.86515C3.16968 3.86095 3.15446 3.85781 3.13907 3.85578ZM6.60892 4.2345L6.52315 5.75265L6.51693 5.75581L6.51672 5.75723C6.5165 5.76268 6.51519 5.76758 6.51454 5.77281C6.51093 5.80547 6.50121 5.83715 6.48587 5.86621C6.48188 5.87391 6.47748 5.88143 6.47269 5.88877C6.45283 5.91772 6.42723 5.94228 6.39749 5.96092C6.38986 5.96582 6.38147 5.96964 6.37329 5.97378C6.34342 5.98793 6.31113 5.99628 6.27815 5.99841C6.27324 5.99873 6.26856 5.99993 6.26365 5.99993C6.2582 5.99993 6.25341 5.99754 6.24807 5.9971C6.21181 5.99365 6.17674 5.98235 6.1453 5.96397C6.14039 5.96114 6.13505 5.9595 6.13037 5.95645L6.12971 5.95885L6.13015 5.95645C6.12535 5.95351 6.11903 5.95471 6.11445 5.95133L6.11315 5.95024L6.11075 5.95176L4.86604 5.06932C4.87617 5.0594 4.88696 5.05035 4.89732 5.04054C5.00719 4.93602 5.12487 4.84002 5.24934 4.75337C5.27517 4.73539 5.30089 4.71719 5.32726 4.69997C5.45967 4.61359 5.59874 4.53786 5.74314 4.4735C5.7693 4.46184 5.79622 4.45127 5.8227 4.44026C5.96569 4.38125 6.11304 4.33345 6.26344 4.29727C6.27651 4.294 6.28937 4.28997 6.30267 4.28703C6.36545 4.27286 6.42931 4.26458 6.49285 4.25444L6.4935 4.25172H6.49394L6.49328 4.25444C6.53197 4.24834 6.57012 4.23918 6.60892 4.2345ZM7.34195 4.23471C7.36342 4.23733 7.38445 4.24213 7.40581 4.24529C7.52189 4.26248 7.63687 4.28635 7.7502 4.31678C7.7951 4.32884 7.8396 4.34192 7.88371 4.35601C7.99626 4.39201 8.10663 4.43451 8.21426 4.48331C8.25509 4.50183 8.29549 4.52127 8.33545 4.54161C8.44171 4.59591 8.54469 4.65639 8.64387 4.72275C8.68122 4.74789 8.71809 4.77393 8.75449 4.80089C8.84946 4.87091 8.94029 4.94638 9.02652 5.02692C9.04221 5.04153 9.05889 5.05493 9.07425 5.06997L7.83772 5.94664L7.83336 5.94501L7.83227 5.94588C7.82736 5.94937 7.82202 5.95078 7.81701 5.95394C7.78776 5.97245 7.75506 5.98483 7.72088 5.99034C7.71249 5.99165 7.70421 5.99361 7.69582 5.99394C7.65889 5.99541 7.62208 5.98886 7.58792 5.97476C7.57797 5.97086 7.56832 5.96623 7.55904 5.96092C7.52722 5.94334 7.49951 5.91919 7.47774 5.89008C7.47229 5.88256 7.46815 5.87417 7.46357 5.8661C7.44689 5.83624 7.43623 5.8034 7.43218 5.76943C7.43153 5.76344 7.42935 5.75821 7.42892 5.7521V5.75091L7.42772 5.75025L7.34195 4.23471ZM10.3578 5.56694C10.4109 5.67527 10.4588 5.78589 10.5013 5.8988C10.4587 5.78597 10.4108 5.67523 10.3578 5.56694ZM4.40983 5.64214L5.54654 6.65875L5.54523 6.66485L5.54632 6.66572C5.64876 6.75476 5.66293 6.90876 5.57825 7.0148C5.5752 7.01861 5.57084 7.02101 5.56757 7.02461C5.53837 7.05698 5.50138 7.08136 5.46011 7.09545C5.45543 7.09708 5.45161 7.10013 5.44693 7.10144L5.4454 7.10166L5.44409 7.10678L3.9873 7.52746C3.98512 7.5073 3.98512 7.48714 3.98327 7.46697C3.97239 7.34582 3.96904 7.2241 3.97324 7.10253C3.97462 7.06039 3.97691 7.01832 3.9801 6.97633C3.98926 6.85528 4.00589 6.73491 4.02991 6.61591C4.0387 6.57159 4.04862 6.52746 4.05966 6.4835C4.08854 6.36653 4.12457 6.25144 4.16756 6.13889C4.18282 6.09864 4.19909 6.05879 4.21638 6.01933C4.26445 5.90752 4.31941 5.7988 4.38095 5.6938C4.39076 5.6768 4.39948 5.65892 4.40983 5.64214ZM9.53231 5.6429C9.54288 5.66012 9.5515 5.67821 9.56174 5.69554C9.62387 5.80143 9.67955 5.91098 9.72849 6.02358C9.74483 6.06129 9.76096 6.09922 9.77578 6.13758C9.82089 6.25459 9.85875 6.37426 9.88913 6.49592C9.89403 6.51499 9.90046 6.53363 9.90482 6.55292C9.98002 6.88009 9.99855 7.20672 9.96782 7.52245L8.50372 7.10068L8.50252 7.09446L8.50099 7.09403C8.49609 7.09272 8.49184 7.09032 8.48715 7.08869C8.45555 7.07781 8.42632 7.06098 8.40106 7.0391C8.39466 7.03358 8.38849 7.02777 8.38253 7.02166C8.35871 6.99573 8.34049 6.96515 8.32902 6.93186C8.32607 6.92336 8.32422 6.91464 8.32215 6.90581C8.31499 6.8739 8.31388 6.84092 8.31888 6.8086C8.31986 6.80326 8.31997 6.79814 8.32106 6.7928C8.32215 6.78789 8.3252 6.78364 8.32651 6.77874C8.33862 6.73756 8.3611 6.70019 8.39179 6.67019C8.3955 6.66659 8.39768 6.66191 8.4016 6.65853L8.40269 6.65744L8.40204 6.65417L9.53231 5.6429ZM10.538 6.0031C10.5741 6.1083 10.6055 6.21503 10.6322 6.32329C10.6055 6.21524 10.5741 6.1084 10.538 6.0031ZM6.74275 6.73896H7.20724L7.49605 7.10013L7.39251 7.55056L6.9751 7.7511L6.55693 7.54969L6.45307 7.09937L6.74275 6.73896ZM8.23878 7.98083C8.2584 7.97974 8.27769 7.98171 8.29687 7.98519L8.29839 7.98552L8.3009 7.98225L9.80793 8.23706C9.80096 8.25667 9.79191 8.27531 9.7845 8.29482C9.7416 8.40702 9.69211 8.5166 9.63628 8.62297C9.61565 8.6625 9.59411 8.70151 9.57166 8.74002C9.51039 8.84449 9.44295 8.94523 9.36971 9.04169C9.34326 9.07656 9.31609 9.11075 9.28819 9.14424C9.21035 9.23748 9.12701 9.32599 9.03861 9.40929C9.00694 9.43908 8.97453 9.46814 8.9414 9.49648C8.84991 9.5752 8.75384 9.64842 8.65368 9.71576C8.63624 9.72742 8.6199 9.74028 8.60235 9.75161L8.01765 8.33841L8.01928 8.33601L8.01885 8.33482C8.01667 8.32991 8.01601 8.32479 8.01416 8.31988C8.0032 8.2888 7.99821 8.25593 7.99945 8.223C7.99988 8.21417 8.0001 8.20534 8.00141 8.19662C8.00681 8.16215 8.0192 8.12914 8.03781 8.09963C8.04272 8.09178 8.04849 8.0847 8.05416 8.07739C8.07471 8.05195 8.09984 8.03058 8.12827 8.0144C8.13295 8.01179 8.13688 8.00841 8.14167 8.00612C8.17317 7.99097 8.20608 7.98236 8.23878 7.98083ZM5.69835 7.98694L5.69977 7.98716C5.70304 7.98716 5.70631 7.98803 5.7098 7.98825C5.75802 7.99148 5.80434 8.00829 5.84341 8.03674C5.85089 8.04212 5.85801 8.04786 5.86477 8.05396C5.90066 8.08626 5.92669 8.12805 5.93986 8.1745C5.94073 8.17777 5.94226 8.18093 5.94313 8.18431C5.95512 8.23651 5.95021 8.29111 5.92896 8.34027L5.92842 8.34157L5.93278 8.34702L5.35407 9.74605C5.33718 9.73516 5.32138 9.72295 5.30492 9.71172C5.20476 9.64442 5.10869 9.57124 5.0172 9.49256C4.98421 9.46408 4.95183 9.4349 4.92009 9.40504C4.83245 9.32252 4.74977 9.23489 4.67248 9.14261C4.64415 9.1086 4.61654 9.07406 4.58965 9.03896C4.51787 8.94467 4.45164 8.84627 4.3913 8.74427C4.36756 8.70402 4.34477 8.66321 4.32297 8.62188C4.26791 8.51774 4.21893 8.4105 4.17628 8.3007C4.16865 8.28098 4.15949 8.26191 4.1523 8.24196L5.64615 7.98846L5.64866 7.99173L5.65018 7.99119C5.66617 7.98828 5.68215 7.98686 5.69835 7.98694ZM6.96584 8.60172C6.97216 8.6015 6.97826 8.60314 6.98459 8.60335C7.01268 8.60449 7.04039 8.61035 7.06654 8.62068C7.07243 8.62297 7.07875 8.62395 7.08442 8.62678V8.627C7.13286 8.64989 7.1727 8.68771 7.19809 8.7349L7.19874 8.73621H7.20452L7.94092 10.0672C7.91084 10.0773 7.88022 10.0861 7.84981 10.0951C7.81382 10.1059 7.77763 10.1159 7.74126 10.1253C7.71042 10.1334 7.6798 10.1417 7.64863 10.1488C7.63511 10.1519 7.62138 10.1538 7.60765 10.1566C7.45759 10.1886 7.30529 10.2091 7.15209 10.2177C7.12158 10.2195 7.09128 10.2216 7.06077 10.2224C6.90343 10.2267 6.74601 10.2186 6.58995 10.1981C6.55944 10.1942 6.52892 10.1889 6.49862 10.184C6.34884 10.1598 6.2011 10.1242 6.05669 10.0777C6.04285 10.0732 6.02868 10.0698 6.01484 10.0652L6.74962 8.73686H6.75071L6.75147 8.73555C6.7543 8.73032 6.75855 8.72629 6.76171 8.72138C6.77916 8.69398 6.80155 8.67007 6.82776 8.65087C6.83669 8.64433 6.84614 8.63837 6.85609 8.633C6.88492 8.61779 6.91634 8.60811 6.94873 8.60444C6.95462 8.6039 6.95996 8.60194 6.96584 8.60172ZM8.24848 10.7657C8.13186 10.8073 8.01351 10.843 7.89341 10.8728C8.01343 10.8429 8.13193 10.8072 8.24848 10.7657Z" fill="white"/>
</g>
<defs>
<clipPath id="clip0_118_1739">
<rect width="13.95" height="13.95" fill="white"/>
</clipPath>
</defs>
</svg>
