<svg width="14" height="14" viewBox="0 0 14 14" fill="none" xmlns="http://www.w3.org/2000/svg">
<g clip-path="url(#clip0_118_1807)">
<path d="M13.9838 3.98998C13.9803 3.97685 13.9738 3.96548 13.9689 3.95279C13.9607 3.92921 13.9504 3.90638 13.9383 3.88454C13.9167 3.85313 13.893 3.82317 13.8674 3.79485C13.8552 3.78363 13.8424 3.77312 13.8289 3.76335C13.8174 3.75279 13.8053 3.74286 13.7926 3.7336L13.7734 3.72485L13.7581 3.71435L11.1331 2.40185C11.0723 2.37151 11.0054 2.35571 10.9375 2.35571C10.8696 2.35571 10.8027 2.37151 10.7419 2.40185L8.11694 3.71435L8.10162 3.72485L8.08238 3.7336C8.06975 3.74286 8.05763 3.75279 8.04606 3.76335C8.01368 3.78569 7.9859 3.81407 7.96425 3.84692C7.95425 3.85895 7.9449 3.87151 7.93625 3.88454C7.92426 3.90639 7.91416 3.92922 7.90606 3.95279C7.90169 3.96548 7.89469 3.97685 7.89119 3.98998C7.88062 4.02773 7.87518 4.06672 7.875 4.10592V6.46054L6.125 7.33554V2.35592C6.12482 2.31672 6.11938 2.27773 6.10881 2.23998C6.10531 2.22685 6.09875 2.21548 6.09394 2.20279C6.0857 2.17921 6.07545 2.15638 6.06331 2.13454C6.0548 2.12152 6.0456 2.10896 6.03575 2.09692C6.0141 2.06407 5.98632 2.03569 5.95394 2.01335C5.94237 2.0028 5.93025 1.99286 5.91762 1.9836L5.89838 1.97485L5.88306 1.96435L3.25806 0.651854C3.19734 0.62151 3.13038 0.605713 3.0625 0.605713C2.99462 0.605713 2.92766 0.62151 2.86694 0.651854L0.241937 1.96435L0.226625 1.97485L0.207375 1.9836C0.194747 1.99286 0.182626 2.0028 0.171062 2.01335C0.157642 2.02312 0.144788 2.03363 0.132563 2.04485C0.11665 2.06105 0.102023 2.07845 0.0888125 2.09692C0.0789625 2.10896 0.069762 2.12152 0.06125 2.13454C0.049262 2.15639 0.0391628 2.17922 0.0310625 2.20279C0.0266875 2.21548 0.0196875 2.22685 0.0161875 2.23998C0.00562244 2.27773 0.000177883 2.31672 0 2.35592L0 10.6684C4.33775e-05 10.7496 0.0226988 10.8293 0.0654291 10.8983C0.108159 10.9674 0.169277 11.0232 0.241937 11.0595L2.86694 12.372L5.49194 13.6845C5.49806 13.6876 5.50506 13.6867 5.51206 13.6894C5.56657 13.7165 5.62662 13.7306 5.6875 13.7306C5.74838 13.7306 5.80843 13.7165 5.86294 13.6894C5.8695 13.6867 5.87694 13.6876 5.88306 13.685L11.1331 11.06C11.2058 11.0236 11.267 10.9677 11.3097 10.8986C11.3524 10.8294 11.375 10.7497 11.375 10.6684V8.31379L13.7581 7.12204C13.8307 7.08573 13.8918 7.02991 13.9346 6.96083C13.9773 6.89176 14 6.81214 14 6.73092V4.10592C13.9998 4.06672 13.9944 4.02773 13.9838 3.98998ZM4.04075 9.35592L5.88306 8.43454H5.8835L8.3125 7.22004L9.95925 8.04342L5.6875 10.1793L4.04075 9.35592ZM10.5 5.68879V7.33554L8.75 6.46054V4.81379L10.5 5.68879ZM10.9375 3.28254L12.5842 4.10592L10.9375 4.92929L9.29075 4.10592L10.9375 3.28254ZM3.5 8.64804V3.93879L5.25 3.06379V7.77304L3.5 8.64804ZM3.0625 1.53254L4.70925 2.35592L3.0625 3.17929L1.41575 2.35592L3.0625 1.53254ZM0.875 3.06379L2.625 3.93879V11.273L0.875 10.398V3.06379ZM3.5 10.0638L5.25 10.9388V12.5855L3.5 11.7105V10.0638ZM10.5 10.398L6.125 12.5855V10.9388L10.5 8.75129V10.398ZM13.125 6.46054L11.375 7.33554V5.68879L13.125 4.81379V6.46054Z" fill="#FF5252"/>
</g>
<defs>
<clipPath id="clip0_118_1807">
<rect width="14" height="14" fill="white"/>
</clipPath>
</defs>
</svg>
