<svg width="14" height="14" viewBox="0 0 14 14" fill="none" xmlns="http://www.w3.org/2000/svg">
<path d="M5.8623 4.72495L5.89147 5.39578L5.4248 6.27078L4.69564 7.69995L4.5498 8.89578L5.0748 10.5875L6.27064 11.2583H8.07897L9.77064 9.97495L10.529 7.96245L8.77897 5.83328L8.28314 4.63745L5.8623 4.72495Z" fill="#ECEFF1"/>
<path d="M10.0046 6.38739C9.53794 5.71656 9.15877 5.30823 8.95461 4.46239C8.75044 3.61656 9.01294 3.84989 8.83794 3.12073C8.75044 2.74156 8.60461 2.47906 8.45877 2.27489C8.28377 2.07073 8.07961 1.95406 7.96294 1.92489C7.70044 1.77906 7.08794 1.54573 6.32961 1.95406C5.54211 2.36239 5.62961 3.23739 5.77544 5.01656C5.77544 5.13323 5.74627 5.27906 5.68794 5.39573C5.57127 5.65823 5.36711 5.89156 5.19211 6.09573C4.98794 6.38739 4.78377 6.67906 4.63794 6.99989C4.28794 7.67073 3.96711 8.51656 4.05461 8.83739C4.20044 8.80823 6.03794 11.6082 6.03794 11.6666C6.15461 11.6374 6.65044 11.6374 7.08794 11.6374C7.70044 11.6082 8.05044 11.5791 8.54627 11.6957C8.54627 11.6082 8.51711 11.5207 8.51711 11.4332C8.51711 11.2582 8.54627 11.1124 8.57544 10.9082C8.60461 10.7624 8.63377 10.6166 8.66294 10.4416C8.37127 10.7041 7.84627 10.9957 7.35044 11.0832C6.91294 11.1707 6.18377 11.0249 5.83377 10.5874C5.86294 10.5874 5.92127 10.5874 5.95044 10.5582C6.03794 10.5291 6.12544 10.4999 6.15461 10.4416C6.24211 10.2957 6.18377 10.1499 6.12544 10.0624C6.06711 9.97489 5.62961 9.65406 5.42544 9.47906C5.22127 9.30406 5.10461 9.21656 4.98794 9.09989L4.75461 8.86656C4.69627 8.80823 4.66711 8.74989 4.63794 8.72073C4.57961 8.57489 4.55044 8.39989 4.57961 8.16656C4.60877 7.84573 4.72544 7.58323 4.87127 7.29156C4.92961 7.17489 5.07544 6.94156 5.07544 6.94156C5.07544 6.94156 4.57961 8.16656 4.84211 8.54573C4.84211 8.54573 4.87127 8.16656 4.98794 7.78739C5.07544 7.52489 5.22127 7.14573 5.39627 6.94156C5.57127 6.73739 6.00877 5.97906 6.03794 5.51239C6.03794 5.30823 6.06711 5.10406 6.06711 4.95823C5.95044 4.84156 7.99211 4.54989 8.10877 4.87073C8.13794 4.98739 8.54627 6.03739 8.77961 6.59156C8.89627 6.85406 9.04211 7.08739 9.12961 7.37906C9.21711 7.69989 9.27544 8.13739 9.27544 8.57489C9.27544 8.66239 9.27544 8.80823 9.24627 8.95406C9.30461 8.95406 10.4421 7.72906 9.10044 6.70823C9.10044 6.70823 9.91711 7.08739 9.94627 7.84573C9.97544 8.45823 9.71294 8.95406 9.65461 9.04156C9.68377 9.04156 10.2671 9.30406 10.2963 9.30406C10.4129 9.30406 10.6463 9.21656 10.6463 9.21656C10.6754 9.12906 10.7629 8.89573 10.7629 8.80823C10.9671 8.13739 10.4713 7.05823 10.0046 6.38739Z" fill="#263238"/>
<path d="M6.30007 4.46256C6.50947 4.46256 6.67923 4.2014 6.67923 3.87923C6.67923 3.55707 6.50947 3.2959 6.30007 3.2959C6.09066 3.2959 5.9209 3.55707 5.9209 3.87923C5.9209 4.2014 6.09066 4.46256 6.30007 4.46256Z" fill="#ECEFF1"/>
<path d="M7.61302 4.52087C7.88686 4.52087 8.10885 4.22052 8.10885 3.85003C8.10885 3.47954 7.88686 3.1792 7.61302 3.1792C7.33918 3.1792 7.11719 3.47954 7.11719 3.85003C7.11719 4.22052 7.33918 4.52087 7.61302 4.52087Z" fill="#ECEFF1"/>
<path d="M6.51259 3.91894C6.48835 3.72717 6.37801 3.58317 6.26614 3.59731C6.15427 3.61145 6.08324 3.77837 6.10748 3.97015C6.13172 4.16192 6.24205 4.30592 6.35392 4.29178C6.46579 4.27764 6.53683 4.11071 6.51259 3.91894Z" fill="#212121"/>
<path d="M7.58366 4.34574C7.74474 4.34574 7.87533 4.17598 7.87533 3.96657C7.87533 3.75716 7.74474 3.5874 7.58366 3.5874C7.42258 3.5874 7.29199 3.75716 7.29199 3.96657C7.29199 4.17598 7.42258 4.34574 7.58366 4.34574Z" fill="#212121"/>
<path d="M11.463 10.3835C11.3463 10.3252 11.1421 10.2377 10.9671 9.97516C10.8796 9.82933 10.9088 9.421 10.763 9.246C10.6755 9.12933 10.5588 9.18766 10.5296 9.18766C10.2671 9.246 9.65464 9.65433 9.24631 9.18766C9.18798 9.12933 9.10048 9.04183 8.95464 9.04183C8.80881 9.04183 8.75048 9.10016 8.69214 9.21683C8.63381 9.3335 8.63381 9.421 8.63381 9.71266C8.63381 9.946 8.63381 10.2085 8.60464 10.4127C8.54631 10.9085 8.45881 11.2002 8.45881 11.4918C8.45881 11.8127 8.54631 12.0168 8.66298 12.1043C8.75048 12.1918 8.89631 12.2502 9.21714 12.2502C9.53798 12.2502 9.74214 12.1335 9.94631 11.9293C10.0921 11.7835 10.2088 11.7252 10.6171 11.4335C10.938 11.2293 11.4338 10.9668 11.5213 10.8793C11.5796 10.821 11.6671 10.7918 11.6671 10.6168C11.6671 10.471 11.5505 10.4127 11.463 10.3835ZM5.60048 10.471C5.30881 10.0043 5.27964 9.91683 5.07548 9.62516C4.90048 9.3335 4.52131 8.77933 4.28798 8.77933C4.11298 8.77933 4.02548 8.86683 3.90881 8.9835C3.79214 9.10016 3.67548 9.36266 3.47131 9.5085C3.29631 9.65433 2.80048 9.62516 2.68381 9.80016C2.56714 9.97516 2.80048 10.2377 2.80048 10.6752C2.80048 10.8502 2.65464 10.9668 2.62548 11.0835C2.59631 11.2293 2.56714 11.3168 2.62548 11.4335C2.74214 11.6085 2.88798 11.6668 3.87964 11.871C4.40464 11.9877 4.90048 12.2793 5.22131 12.3085C5.54214 12.3377 6.09631 12.3085 6.09631 11.521C6.12548 11.0543 5.86298 10.9377 5.60048 10.471ZM6.15464 5.19183C5.97964 5.07516 5.83381 4.9585 5.83381 4.7835C5.83381 4.6085 5.95048 4.55016 6.12548 4.40433C6.15464 4.37516 6.47548 4.0835 6.79631 4.0835C7.11714 4.0835 7.49631 4.28766 7.64214 4.346C7.90464 4.40433 8.16714 4.46266 8.13798 4.66683C8.10881 4.9585 8.07964 5.01683 7.78798 5.16266C7.58381 5.221 7.20464 5.54183 6.94214 5.54183C6.82548 5.54183 6.65048 5.54183 6.53381 5.51266C6.44631 5.4835 6.30048 5.33766 6.15464 5.19183Z" fill="#FFC107"/>
<path d="M6.09625 4.95843C6.15459 5.01676 6.24209 5.0751 6.32959 5.10426C6.38792 5.13343 6.47542 5.1626 6.47542 5.1626H6.73792C6.88375 5.1626 7.08792 5.10426 7.29209 4.9876C7.49625 4.9001 7.52542 4.84176 7.67125 4.78343C7.81709 4.69593 7.96292 4.60843 7.90459 4.57926C7.84625 4.5501 7.78792 4.57926 7.58375 4.69593C7.40875 4.8126 7.26292 4.87093 7.08792 4.95843C7.00042 4.9876 6.88375 5.04593 6.79625 5.04593H6.53375C6.44625 5.04593 6.38792 5.01676 6.30042 4.9876C6.24209 4.95843 6.21292 4.92926 6.18375 4.92926C6.12542 4.9001 6.00875 4.78343 5.95042 4.75426C5.95042 4.75426 5.89209 4.75426 5.92125 4.78343L6.09625 4.95843ZM6.97125 4.31676C7.00042 4.3751 7.05875 4.3751 7.08792 4.40426C7.11709 4.43343 7.14625 4.43343 7.14625 4.43343C7.17542 4.40426 7.14625 4.34593 7.11709 4.34593C7.11709 4.2876 6.97125 4.2876 6.97125 4.31676ZM6.50459 4.3751C6.50459 4.40426 6.56292 4.43343 6.56292 4.40426C6.59209 4.3751 6.62125 4.34593 6.65042 4.34593C6.70875 4.31676 6.67959 4.2876 6.59209 4.2876C6.53375 4.31676 6.53375 4.34593 6.50459 4.3751Z" fill="#634703"/>
<path d="M9.33346 9.53756V9.62506C9.3918 9.74172 9.53763 9.77089 9.6543 9.77089C9.8293 9.77089 10.0043 9.65422 10.0918 9.53756C10.0918 9.50839 10.121 9.47922 10.1501 9.45006C10.2085 9.36256 10.2376 9.30422 10.2668 9.27506C10.2668 9.27506 10.2376 9.24589 10.2376 9.21672C10.2085 9.15839 10.121 9.10006 10.0043 9.07089C9.9168 9.04172 9.77096 9.01256 9.71263 9.01256C9.45013 8.98339 9.3043 9.07089 9.2168 9.15839C9.2168 9.15839 9.24596 9.15839 9.24596 9.18756C9.3043 9.24589 9.33346 9.30422 9.33346 9.39172C9.36263 9.45006 9.33346 9.47922 9.33346 9.53756Z" fill="#455A64"/>
</svg>
