<svg width="14" height="14" viewBox="0 0 14 14" fill="none" xmlns="http://www.w3.org/2000/svg">
<g clip-path="url(#clip0_118_1853)">
<path d="M12.8723 10.7453C12.1096 10.7244 11.5273 10.7957 11.0291 11.0055C10.8876 11.0653 10.6621 11.0666 10.639 11.2439C10.7168 11.3255 10.7287 11.4472 10.7907 11.5476C10.9095 11.7395 11.1103 11.9975 11.2894 12.133C11.485 12.2804 11.6867 12.4385 11.8965 12.5662C12.2699 12.794 12.6865 12.9239 13.0454 13.1516C13.2574 13.2862 13.4675 13.4554 13.6743 13.6071C13.7765 13.6819 13.8453 13.7985 13.9776 13.8455V13.8242C13.9079 13.7354 13.89 13.6131 13.8259 13.5204L13.5439 13.2385C13.2683 12.8727 12.9184 12.5515 12.5468 12.2848C12.2502 12.0717 11.5863 11.7841 11.4628 11.4394L11.4411 11.4176C11.6513 11.3936 11.8974 11.3176 12.0918 11.2654C12.4177 11.1783 12.7092 11.2009 13.0454 11.1137L13.5008 10.9839V10.8972C13.3308 10.7228 13.2095 10.4917 13.0241 10.3337C12.5383 9.92014 12.0085 9.50736 11.463 9.16304C11.1604 8.97207 10.7866 8.84772 10.4658 8.68584C10.3577 8.63159 10.1684 8.60293 10.0971 8.51237C9.92875 8.29789 9.83688 8.02576 9.70705 7.7754C9.43492 7.25117 9.16783 6.67914 8.92644 6.12756C8.76194 5.75164 8.65475 5.38075 8.44967 5.04365C7.4653 3.42523 6.40578 2.44818 4.76428 1.48809C4.41483 1.28389 3.99439 1.20317 3.55 1.09762L2.83436 1.05442C2.68867 0.993716 2.53741 0.815544 2.40069 0.728809C1.85699 0.385044 0.462017 -0.362206 0.0590796 0.620419C-0.195108 1.24036 0.439377 1.84531 0.66622 2.15976C0.82558 2.37983 1.02935 2.62712 1.14299 2.87497C1.21824 3.03815 1.23103 3.20134 1.29513 3.37361C1.45241 3.79831 1.58989 4.26053 1.79377 4.65275C1.89669 4.85137 2.01033 5.06039 2.1407 5.23812C2.22022 5.34706 2.35727 5.3954 2.37914 5.56329C2.24494 5.75087 2.23728 6.04181 2.16214 6.27893C1.8233 7.34753 1.95149 8.67534 2.44411 9.46579C2.59538 9.70893 2.95172 10.2292 3.44128 10.0297C3.86981 9.85495 3.77411 9.31453 3.89672 8.83732C3.9245 8.72926 3.90744 8.64975 3.96169 8.57712V8.59889L4.35216 9.37906C4.64102 9.84434 5.15322 10.3305 5.58777 10.6586C5.81297 10.8287 5.99027 11.1226 6.28164 11.2221V11.2004H6.25988C6.20344 11.1123 6.11506 11.076 6.04331 11.0056C5.87367 10.839 5.68489 10.6322 5.54467 10.4416C5.1495 9.90548 4.80038 9.31836 4.48253 8.7075C4.33039 8.41568 4.19838 8.09401 4.07019 7.79706C4.02064 7.68254 4.02152 7.50907 3.91849 7.45012C3.77838 7.66756 3.57155 7.84365 3.46305 8.10036C3.29002 8.51095 3.26738 9.01211 3.20328 9.5312C3.16522 9.54487 3.18195 9.53547 3.15975 9.55297C2.85766 9.4799 2.75178 9.16928 2.63935 8.90229C2.35563 8.22811 2.30269 7.14245 2.55261 6.36578C2.61714 6.16497 2.90939 5.53267 2.79105 5.34684C2.73461 5.16189 2.54835 5.05459 2.44411 4.91317C2.31505 4.73839 2.18653 4.50815 2.09717 4.30603C1.86475 3.78048 1.75669 3.19007 1.5118 2.65862C1.39477 2.40443 1.19735 2.14718 1.03503 1.92165C0.855111 1.67129 0.65397 1.48667 0.514627 1.18425C0.46508 1.07662 0.398033 0.904356 0.471095 0.794216C0.494611 0.719403 0.527533 0.688231 0.601361 0.66395C0.726923 0.566934 1.07736 0.696434 1.20806 0.750684C1.55588 0.895059 1.84594 1.03265 2.1407 1.22789C2.28169 1.3214 2.42486 1.50264 2.5957 1.55306H2.79094C3.09599 1.62317 3.43778 1.57439 3.72314 1.66112C4.22725 1.81447 4.67886 2.0529 5.08902 2.31179C6.3383 3.10093 7.3603 4.22367 8.05921 5.56395C8.17153 5.77975 8.22031 5.98526 8.31941 6.21418C8.51891 6.67564 8.77058 7.15032 8.9692 7.60193C9.16783 8.05179 9.36099 8.50646 9.64164 8.88107C9.78908 9.07806 10.3582 9.18361 10.617 9.29298C10.7986 9.36943 11.096 9.44939 11.2677 9.55318C11.5958 9.75104 11.9137 9.98686 12.2218 10.2034C12.3751 10.3119 12.8485 10.5499 12.872 10.7456L12.8723 10.7453ZM3.18108 2.48526C3.02216 2.48231 2.90983 2.50233 2.79105 2.52847V2.55023H2.81238C2.88839 2.70576 3.02216 2.80617 3.11611 2.94026L3.33267 3.3957L3.35444 3.37437C3.48864 3.27954 3.55011 3.12828 3.54924 2.89717C3.49542 2.84029 3.48777 2.76986 3.44074 2.70193C3.37927 2.61181 3.25917 2.56095 3.18097 2.48537L3.18108 2.48526Z" fill="#00618A"/>
</g>
<defs>
<clipPath id="clip0_118_1853">
<rect width="14" height="14" fill="white"/>
</clipPath>
</defs>
</svg>
