<svg width="19" height="10" viewBox="0 0 19 10" fill="none" xmlns="http://www.w3.org/2000/svg">
<path fill-rule="evenodd" clip-rule="evenodd" d="M16.9985 3.99993C16.555 3.99988 16.1242 3.85253 15.7736 3.58103C15.423 3.30953 15.1726 2.92926 15.0616 2.49996H12.7697C12.533 2.49999 12.304 2.58399 12.1234 2.73701C11.9428 2.89002 11.8224 3.10213 11.7835 3.33562L11.7013 3.82888C11.6262 4.28265 11.3963 4.69644 11.0507 4.99992C11.3961 5.30349 11.6258 5.71726 11.7007 6.17096L11.7829 6.66422C11.8218 6.8977 11.9423 7.10982 12.1228 7.26283C12.3034 7.41585 12.5324 7.49984 12.7691 7.49988H13.0616C13.1833 7.02856 13.4727 6.6178 13.8756 6.3446C14.2785 6.07139 14.7672 5.95451 15.2501 6.01584C15.733 6.07718 16.1769 6.31253 16.4987 6.67777C16.8205 7.04302 16.9981 7.51309 16.9981 7.99987C16.9981 8.48665 16.8205 8.95672 16.4987 9.32196C16.1769 9.68721 15.733 9.92256 15.2501 9.9839C14.7672 10.0452 14.2785 9.92834 13.8756 9.65514C13.4727 9.38194 13.1833 8.97118 13.0616 8.49986H12.7691C12.2957 8.49997 11.8375 8.33205 11.4763 8.02599C11.115 7.71994 10.8741 7.29561 10.7964 6.82855L10.7142 6.33557C10.6753 6.10209 10.5549 5.88997 10.3743 5.73696C10.1937 5.58394 9.96467 5.49994 9.72797 5.49991H8.93578C8.82471 5.92916 8.5742 6.30936 8.2236 6.58079C7.873 6.85222 7.44216 6.9995 6.99877 6.9995C6.55538 6.9995 6.12455 6.85222 5.77395 6.58079C5.42334 6.30936 5.17283 5.92916 5.06176 5.49991H3.93643C3.81473 5.97123 3.52532 6.38199 3.12244 6.65519C2.71955 6.92839 2.23086 7.04528 1.74796 6.98395C1.26506 6.92261 0.821112 6.68726 0.499322 6.32201C0.177533 5.95677 0 5.4867 0 4.99992C0 4.51314 0.177533 4.04307 0.499322 3.67782C0.821112 3.31258 1.26506 3.07723 1.74796 3.01589C2.23086 2.95456 2.71955 3.07144 3.12244 3.34465C3.52532 3.61785 3.81473 4.02861 3.93643 4.49993H5.06232C5.17339 4.07067 5.4239 3.69047 5.77451 3.41904C6.12511 3.14761 6.55594 3.00033 6.99933 3.00033C7.44272 3.00033 7.87356 3.14761 8.22416 3.41904C8.57476 3.69047 8.82527 4.07067 8.93635 4.49993H9.72854C10.2173 4.49993 10.6343 4.1466 10.7148 3.66427L10.7969 3.17129C10.8746 2.70423 11.1156 2.2799 11.4768 1.97384C11.8381 1.66779 12.2962 1.49987 12.7697 1.49998H15.0619C15.1554 1.13781 15.3486 0.809125 15.6195 0.551255C15.8905 0.293384 16.2283 0.116663 16.5947 0.0411644C16.961 -0.0343341 17.3412 -0.00558423 17.692 0.124148C18.0428 0.253881 18.3502 0.479397 18.5793 0.77508C18.8084 1.07076 18.95 1.42476 18.988 1.79688C19.0259 2.16899 18.9588 2.54429 18.7942 2.88016C18.6296 3.21603 18.3741 3.49901 18.0567 3.69695C17.7393 3.89489 17.3725 3.99986 16.9985 3.99993ZM16.9987 2.99995C17.1301 2.99995 17.2601 2.97409 17.3814 2.92383C17.5027 2.87358 17.613 2.79992 17.7058 2.70706C17.7987 2.61421 17.8724 2.50397 17.9226 2.38265C17.9729 2.26132 17.9987 2.13129 17.9987 1.99997C17.9987 1.86865 17.9729 1.73861 17.9226 1.61729C17.8724 1.49597 17.7987 1.38573 17.7058 1.29287C17.613 1.20002 17.5027 1.12636 17.3814 1.0761C17.2601 1.02585 17.1301 0.999985 16.9987 0.999985C16.7335 0.999985 16.4792 1.10534 16.2917 1.29287C16.1041 1.48041 15.9988 1.73476 15.9988 1.99997C15.9988 2.26518 16.1041 2.51953 16.2917 2.70706C16.4792 2.8946 16.7335 2.99995 16.9987 2.99995ZM1.99955 5.9999C2.26477 5.9999 2.51912 5.89455 2.70665 5.70702C2.89418 5.51948 2.99954 5.26513 2.99954 4.99992C2.99954 4.73471 2.89418 4.48036 2.70665 4.29282C2.51912 4.10529 2.26477 3.99993 1.99955 3.99993C1.73434 3.99993 1.47999 4.10529 1.29246 4.29282C1.10493 4.48036 0.999571 4.73471 0.999571 4.99992C0.999571 5.26513 1.10493 5.51948 1.29246 5.70702C1.47999 5.89455 1.73434 5.9999 1.99955 5.9999ZM7.9989 4.99992C8.00112 5.13263 7.9769 5.26445 7.92765 5.38771C7.8784 5.51096 7.80511 5.62318 7.71204 5.71781C7.61898 5.81245 7.50801 5.88761 7.38559 5.93892C7.26318 5.99022 7.13178 6.01665 6.99905 6.01665C6.86632 6.01665 6.73492 5.99022 6.61251 5.93892C6.4901 5.88761 6.37913 5.81245 6.28606 5.71781C6.193 5.62318 6.1197 5.51096 6.07045 5.38771C6.02121 5.26445 5.99699 5.13263 5.99921 4.99992C6.0036 4.73764 6.11087 4.4876 6.2979 4.30367C6.48493 4.11975 6.73674 4.01668 6.99905 4.01668C7.26136 4.01668 7.51317 4.11975 7.7002 4.30367C7.88723 4.4876 7.9945 4.73764 7.9989 4.99992ZM15.9988 7.99987C15.9988 8.26508 15.8934 8.51943 15.7059 8.70697C15.5183 8.8945 15.264 8.99985 14.9988 8.99985C14.7336 8.99985 14.4792 8.8945 14.2917 8.70697C14.1042 8.51943 13.9988 8.26508 13.9988 7.99987C13.9988 7.73466 14.1042 7.48031 14.2917 7.29278C14.4792 7.10524 14.7336 6.99989 14.9988 6.99989C15.264 6.99989 15.5183 7.10524 15.7059 7.29278C15.8934 7.48031 15.9988 7.73466 15.9988 7.99987Z" fill="#EA4B71"/>
</svg>
