<svg width="14" height="14" viewBox="0 0 14 14" fill="none" xmlns="http://www.w3.org/2000/svg">
<g clip-path="url(#clip0_118_1715)">
<path d="M2.60205 2.45397C3.03518 2.80703 3.19924 2.78209 4.01693 2.72741L11.7257 2.26497C11.8897 2.26497 11.7532 2.10091 11.6981 2.07334L10.4176 1.14803C10.1739 0.956405 9.84574 0.74028 9.21881 0.792343L1.75637 1.33922C1.48293 1.36416 1.42824 1.50109 1.53762 1.61047L2.60205 2.45397ZM3.06449 4.25209V12.3616C3.06449 12.7969 3.28105 12.961 3.77105 12.9334L12.2432 12.4434C12.7332 12.4158 12.7901 12.1175 12.7901 11.7622V3.70741C12.7901 3.35172 12.6532 3.16272 12.3526 3.19028L3.50024 3.70741C3.17212 3.73497 3.06493 3.89641 3.06493 4.24991L3.06449 4.25209ZM11.4273 4.68478C11.482 4.93109 11.4273 5.17478 11.181 5.20453L10.7732 5.28678V11.2727C10.4176 11.4643 10.0921 11.5737 9.8208 11.5737C9.3833 11.5737 9.27393 11.4367 8.94799 11.029L6.27749 6.83641V10.8925L7.12274 11.0841C7.12274 11.0841 7.12274 11.5741 6.44156 11.5741L4.56162 11.6835C4.50693 11.5741 4.56162 11.3007 4.75324 11.2482L5.24324 11.1112V5.74966L4.56206 5.69497C4.50737 5.44866 4.6443 5.09559 5.02449 5.06847L7.04093 4.93153L9.8208 9.17878V5.42109L9.11205 5.33884C9.05737 5.04047 9.27393 4.82172 9.54737 4.79634L11.4273 4.68478ZM1.12987 0.60378L8.8933 0.0319679C9.84574 -0.0502821 10.0921 0.00440545 10.691 0.439718L13.1703 2.18272C13.5781 2.48109 13.715 2.56334 13.715 2.88928V12.4438C13.715 13.0432 13.4962 13.3963 12.735 13.451L3.71593 13.9957C3.1463 14.0232 2.87287 13.941 2.57187 13.5603L0.746617 11.1904C0.42068 10.7551 0.28418 10.4292 0.28418 10.049V1.55666C0.28418 1.06666 0.50293 0.658905 1.12943 0.604218L1.12987 0.60378Z" fill="white"/>
</g>
<defs>
<clipPath id="clip0_118_1715">
<rect width="14" height="14" fill="white"/>
</clipPath>
</defs>
</svg>
