<svg width="13" height="13" viewBox="0 0 13 13" fill="none" xmlns="http://www.w3.org/2000/svg">
<path d="M12.297 9.34367L9.48167 4.46867C9.41107 4.34472 9.30877 4.24177 9.18527 4.17038C9.06177 4.09899 8.9215 4.06173 8.77886 4.06242C8.63604 4.06088 8.49544 4.09778 8.37179 4.16926C8.24814 4.24073 8.14599 4.34415 8.07604 4.46867L7.15386 6.06523L5.5776 3.33929C5.50651 3.21576 5.40411 3.11314 5.28073 3.04179C5.15734 2.97043 5.01733 2.93286 4.87479 2.93286C4.73226 2.93286 4.59224 2.97043 4.46886 3.04179C4.34547 3.11314 4.24307 3.21576 4.17198 3.33929L0.702605 9.34367C0.631328 9.46712 0.593787 9.60716 0.59375 9.74971C0.593713 9.89226 0.631183 10.0323 0.702396 10.1558C0.773609 10.2793 0.876059 10.3819 0.999459 10.4533C1.12286 10.5246 1.26286 10.5623 1.40542 10.5624H5.02714C5.4551 10.5624 5.87554 10.4498 6.24615 10.2358C6.61677 10.0218 6.9245 9.71394 7.13842 9.34326L8.77886 6.49992L10.1845 8.93742H9.24604L8.30761 10.5624H11.5942C11.7367 10.5623 11.8767 10.5246 12.0001 10.4533C12.1235 10.3819 12.226 10.2793 12.2972 10.1558C12.3684 10.0323 12.4059 9.89226 12.4058 9.74971C12.4058 9.60716 12.3683 9.46712 12.297 9.34367ZM5.02673 8.93742H2.8151L4.87479 5.37054L6.21542 7.69023L5.73076 8.53076C5.65947 8.65441 5.55686 8.7571 5.43327 8.82849C5.30968 8.89987 5.16946 8.93745 5.02673 8.93742Z" fill="#00E676"/>
</svg>
