<svg width="13" height="13" viewBox="0 0 13 13" fill="none" xmlns="http://www.w3.org/2000/svg">
<g clip-path="url(#clip0_118_1705)">
<path d="M2.30212 0.162598H10.6979C11.9709 0.162598 13 1.19173 13 2.46471V10.5355C13 11.8085 11.9709 12.8376 10.6979 12.8376H2.30212C1.02913 12.8376 0 11.8085 0 10.5355V2.46471C0 1.19173 1.02913 0.162598 2.30212 0.162598Z" fill="#001E36"/>
<path d="M4.65817 3.3855C4.49567 3.3855 4.33317 3.3855 4.16529 3.39098C3.9973 3.39637 3.84019 3.39637 3.69394 3.40185C3.54769 3.40723 3.4123 3.40723 3.2823 3.41262C3.15769 3.418 3.07105 3.418 2.97894 3.418C2.94105 3.418 2.9248 3.43963 2.9248 3.47762V9.05137C2.9248 9.10012 2.94644 9.12185 2.9898 9.12185H4.04067C4.07855 9.11637 4.10567 9.08387 4.10019 9.04598V7.30723C4.20307 7.30723 4.27894 7.30723 4.33317 7.31262C4.3873 7.318 4.47394 7.318 4.60394 7.318C5.04817 7.318 5.45442 7.26925 5.82269 7.13386C6.1748 7.00387 6.47817 6.77637 6.6948 6.473C6.91147 6.16966 7.0198 5.78508 7.0198 5.31925C7.0198 5.0755 6.97654 4.84262 6.89529 4.61512C6.8092 4.38334 6.67433 4.17276 6.4998 3.99762C6.29382 3.7975 6.04586 3.64575 5.77394 3.55338C5.47057 3.43963 5.1023 3.3855 4.65817 3.3855ZM4.77903 4.45241C4.972 4.45607 5.15989 4.48979 5.33519 4.56088C5.4923 4.6205 5.6223 4.72887 5.71442 4.86963C5.80081 5.01532 5.84403 5.18255 5.83904 5.35185C5.83904 5.59012 5.7848 5.77435 5.67105 5.90973C5.55182 6.04512 5.40019 6.1481 5.22692 6.19685C5.02644 6.26185 4.81519 6.29425 4.60394 6.29425H4.31682C4.25182 6.29425 4.18154 6.28887 4.10567 6.28348V4.46348C4.14355 4.458 4.21942 4.45262 4.32779 4.4581C4.43067 4.45262 4.55519 4.45262 4.69605 4.45262C4.72382 4.45194 4.75147 4.45187 4.77903 4.45241ZM9.32192 4.72897C8.9373 4.72897 8.61769 4.78848 8.36317 4.91848C8.13029 5.02685 7.9298 5.20012 7.79442 5.41675C7.67529 5.61723 7.61019 5.83925 7.61019 6.07223C7.60556 6.26385 7.64837 6.45365 7.73481 6.62473C7.83611 6.8069 7.97677 6.96418 8.14654 7.08512C8.38482 7.24809 8.64339 7.3792 8.91567 7.47511C9.18106 7.578 9.35981 7.65925 9.44654 7.72963C9.53317 7.80012 9.57654 7.8705 9.57654 7.94636C9.57654 8.04387 9.51692 8.13598 9.43029 8.17387C9.33279 8.22262 9.18654 8.24973 8.98067 8.24973C8.76404 8.24973 8.54731 8.22262 8.34144 8.16848C8.10506 8.11569 7.87843 8.02614 7.6698 7.9031C7.65355 7.89223 7.6373 7.88685 7.62105 7.89772C7.6048 7.90848 7.59942 7.93012 7.59942 7.94636V8.88886C7.59404 8.93223 7.62106 8.97011 7.65904 8.99175C7.83469 9.07381 8.02049 9.13211 8.21154 9.16511C8.45529 9.21386 8.69894 9.2355 8.94807 9.2355C9.33807 9.2355 9.66317 9.17598 9.92856 9.06223C10.1723 8.96473 10.3836 8.79685 10.5352 8.58012C10.6772 8.36705 10.7509 8.11575 10.7464 7.85973C10.7518 7.66633 10.709 7.47463 10.6219 7.30185C10.5189 7.11761 10.3727 6.96598 10.1939 6.85223C9.93244 6.68801 9.65245 6.55527 9.35981 6.45675C9.22912 6.40266 9.1008 6.34302 8.97519 6.278C8.9048 6.24012 8.8398 6.19137 8.79105 6.13175C8.75855 6.08838 8.73692 6.03973 8.73692 5.99098C8.73692 5.94223 8.75317 5.8881 8.78019 5.84473C8.81817 5.7906 8.87769 5.75262 8.94807 5.73637C9.05105 5.70935 9.1648 5.693 9.27307 5.69838C9.47894 5.69838 9.67932 5.7255 9.8798 5.76887C10.064 5.80675 10.2373 5.86636 10.3998 5.9531C10.4214 5.96387 10.4486 5.96387 10.4973 5.9531C10.5058 5.94683 10.5126 5.93865 10.5173 5.92922C10.5221 5.9198 10.5245 5.9094 10.5244 5.89887V5.01598C10.5244 4.99425 10.5189 4.97262 10.5136 4.95098C10.5027 4.92935 10.4811 4.90762 10.4594 4.90223C10.31 4.84117 10.1535 4.7993 9.99356 4.77762C9.77114 4.74523 9.54668 4.72904 9.32192 4.72897Z" fill="#31A8FF"/>
</g>
<defs>
<clipPath id="clip0_118_1705">
<rect width="13" height="13" fill="white"/>
</clipPath>
</defs>
</svg>
