<svg width="14" height="14" viewBox="0 0 14 14" fill="none" xmlns="http://www.w3.org/2000/svg">
<path d="M0 6.99996C0 9.03356 3.13403 10.6823 7 10.6823C10.866 10.6823 14 9.03356 14 6.99996C14 4.96635 10.8659 3.31763 7 3.31763C3.13414 3.31763 0 4.96635 0 6.99996Z" fill="url(#paint0_radial_118_1842)"/>
<path d="M7 10.4088C10.7149 10.4088 13.7266 8.88252 13.7266 6.99995C13.7266 5.11717 10.7149 3.59106 7 3.59106C3.28508 3.59106 0.273438 5.11717 0.273438 6.99995C0.273438 8.88252 3.28508 10.4088 7 10.4088Z" fill="#777BB3"/>
<path d="M3.80343 7.42259C4.10891 7.42259 4.33685 7.36626 4.48112 7.25524C4.62396 7.14521 4.72251 6.95479 4.77424 6.68923C4.82237 6.44095 4.80399 6.2677 4.71955 6.17407C4.63337 6.07848 4.44688 6.03002 4.16535 6.03002H3.6771L3.40662 7.42259H3.80343ZM2.20666 9.13791C2.19546 9.1379 2.1844 9.1354 2.17428 9.13061C2.16415 9.12582 2.15522 9.11884 2.14811 9.11018C2.141 9.10153 2.13589 9.0914 2.13316 9.08054C2.13042 9.06968 2.13012 9.05834 2.13229 9.04735L2.84946 5.35726C2.85285 5.34001 2.86211 5.32447 2.87567 5.31328C2.88924 5.30209 2.90625 5.29595 2.92383 5.2959H4.46974C4.95558 5.2959 5.31718 5.42781 5.54457 5.68801C5.77294 5.94941 5.8436 6.31516 5.75424 6.77465C5.71782 6.96179 5.65526 7.13559 5.5683 7.29134C5.47782 7.45156 5.36232 7.5963 5.22618 7.72009C5.05873 7.87671 4.86918 7.99046 4.66323 8.05729C4.46066 8.12335 4.20035 8.15682 3.88994 8.15682H3.26388L3.08516 9.07645C3.08179 9.09375 3.0725 9.10935 3.05889 9.12056C3.04529 9.13178 3.0282 9.13791 3.01057 9.13791H2.20666Z" fill="black"/>
<path d="M3.73962 6.10602H4.1652C4.50503 6.10602 4.62304 6.18061 4.66318 6.22513C4.72957 6.29885 4.74226 6.45449 4.69939 6.67488C4.65137 6.92174 4.56234 7.09685 4.4347 7.19506C4.30411 7.29569 4.09148 7.34666 3.80328 7.34666H3.49856L3.73962 6.10602ZM4.46959 5.22008H2.92379C2.88854 5.22008 2.85439 5.23234 2.82717 5.25474C2.79996 5.27715 2.78138 5.30831 2.77461 5.34291L2.05743 9.03311C2.0532 9.05509 2.05387 9.07774 2.0594 9.09943C2.06493 9.12112 2.07518 9.14132 2.08942 9.1586C2.10366 9.17587 2.12154 9.18978 2.14178 9.19934C2.16202 9.2089 2.18413 9.21388 2.20651 9.21391H3.01042C3.04567 9.21387 3.07981 9.2016 3.107 9.17917C3.13419 9.15674 3.15275 9.12557 3.1595 9.09097L3.32629 8.23282H3.88968C4.20818 8.23282 4.47637 8.19803 4.6867 8.12957C4.90293 8.05935 5.10189 7.94024 5.27798 7.77552C5.4198 7.6464 5.54012 7.4955 5.63443 7.3285C5.72532 7.16586 5.79073 6.9843 5.82857 6.78917C5.92264 6.30541 5.84618 5.91811 5.60151 5.63811C5.35914 5.36063 4.97829 5.21997 4.46959 5.21997V5.22008ZM3.31426 7.49847H3.80328C4.12739 7.49854 4.36875 7.43748 4.52734 7.31527C4.68593 7.19321 4.79305 6.98937 4.84868 6.70375C4.90177 6.42944 4.87752 6.23592 4.77595 6.12319C4.67423 6.01046 4.47065 5.9541 4.1652 5.9541H3.61439L3.31426 7.49847ZM4.4697 5.37167C4.93476 5.37167 5.27393 5.49374 5.48722 5.73786C5.7005 5.98199 5.76466 6.32273 5.67971 6.76008C5.64457 6.94033 5.58532 7.10505 5.50198 7.25424C5.41849 7.40357 5.30944 7.54018 5.17484 7.66406C5.01442 7.81427 4.83607 7.92128 4.63978 7.98508C4.44356 8.04895 4.19356 8.08086 3.88979 8.08078H3.20117L3.01053 9.06188H2.20662L2.9239 5.37167H4.4697Z" fill="white"/>
<path d="M7.59722 8.15696C7.58601 8.15697 7.57494 8.1545 7.5648 8.14973C7.55466 8.14495 7.5457 8.13799 7.53857 8.12934C7.53143 8.1207 7.52631 8.11058 7.52355 8.09971C7.52079 8.08885 7.52048 8.07751 7.52263 8.0665L7.83982 6.43375C7.87011 6.27844 7.86268 6.1671 7.81903 6.11985C7.79224 6.09108 7.71196 6.04285 7.4745 6.04285H6.89963L6.50085 8.0956C6.49742 8.11288 6.4881 8.12844 6.47448 8.13961C6.46085 8.15079 6.44376 8.15688 6.42614 8.15685H5.6288C5.6176 8.15685 5.60653 8.15439 5.5964 8.14962C5.58626 8.14485 5.57731 8.1379 5.57017 8.12927C5.56303 8.12064 5.55789 8.11054 5.55511 8.09969C5.55233 8.08884 5.55199 8.0775 5.5541 8.0665L6.27138 4.3763C6.27478 4.35901 6.28407 4.34344 6.29768 4.33225C6.31128 4.32106 6.32835 4.31494 6.34597 4.31494H7.14332C7.15452 4.31493 7.16558 4.3174 7.17572 4.32217C7.18585 4.32694 7.19481 4.33388 7.20195 4.34252C7.20909 4.35115 7.21423 4.36125 7.21701 4.3721C7.21978 4.38295 7.22013 4.39428 7.21802 4.40529L7.04499 5.29603H7.66329C8.13436 5.29603 8.45374 5.37894 8.63978 5.54989C8.82933 5.72413 8.88861 6.00271 8.81566 6.37819L8.48196 8.0956C8.47854 8.11286 8.46923 8.12841 8.45563 8.13958C8.44202 8.15075 8.42496 8.15685 8.40736 8.15685L7.59722 8.15696Z" fill="black"/>
<path d="M7.14314 4.23877H6.34569C6.31042 4.23878 6.27626 4.25105 6.24904 4.27347C6.22182 4.2959 6.20325 4.32709 6.1965 4.36171L5.47933 8.0518C5.47508 8.07379 5.47573 8.09645 5.48125 8.11815C5.48678 8.13986 5.49702 8.16008 5.51127 8.17736C5.52551 8.19464 5.5434 8.20857 5.56365 8.21814C5.5839 8.2277 5.60601 8.23268 5.62841 8.23271H6.42586C6.46113 8.2327 6.49529 8.22043 6.52251 8.198C6.54973 8.17558 6.5683 8.14438 6.57505 8.10977L6.96191 6.1186H7.474C7.71113 6.1186 7.761 6.16924 7.76286 6.17153C7.7773 6.18685 7.79622 6.25849 7.76494 6.41916L7.44775 8.0518C7.4435 8.0738 7.44416 8.09647 7.44968 8.11818C7.45521 8.13989 7.46547 8.16012 7.47972 8.1774C7.49398 8.19469 7.51188 8.20861 7.53214 8.21817C7.55241 8.22773 7.57453 8.2327 7.59694 8.23271H8.40719C8.44244 8.23267 8.47658 8.22039 8.50377 8.19797C8.53097 8.17554 8.54952 8.14437 8.55627 8.10977L8.88997 6.39258C8.96817 5.98943 8.90124 5.68711 8.69091 5.49385C8.4901 5.30944 8.15388 5.21986 7.663 5.21986H7.13691L7.29233 4.41979C7.2966 4.39778 7.29596 4.3751 7.29044 4.35337C7.28492 4.33165 7.27467 4.31141 7.26041 4.29411C7.24615 4.27681 7.22824 4.26288 7.20797 4.25331C7.1877 4.24374 7.16556 4.23878 7.14314 4.23877ZM7.14314 4.3908L6.9525 5.37168H7.663C8.11005 5.37168 8.41838 5.4497 8.58799 5.60574C8.75774 5.76163 8.8087 6.01429 8.74089 6.36371L8.40708 8.08079H7.59694L7.91424 6.44803C7.95033 6.26232 7.93702 6.13566 7.87431 6.06807C7.81161 6.00055 7.67824 5.96679 7.47422 5.96679H6.83667L6.42586 8.08068H5.6283L6.34558 4.39047H7.14314V4.3908Z" fill="white"/>
<path d="M10.0777 7.42259C10.3832 7.42259 10.6113 7.36626 10.7556 7.25524C10.8983 7.14521 10.9969 6.95479 11.0487 6.68923C11.0968 6.44095 11.0785 6.2677 10.994 6.17407C10.9078 6.07848 10.7213 6.03002 10.4398 6.03002H9.95162L9.68092 7.42259H10.0777ZM8.4813 9.13791C8.47007 9.13793 8.45899 9.13546 8.44884 9.13068C8.43869 9.1259 8.42972 9.11893 8.42259 9.11027C8.41546 9.10161 8.41033 9.09147 8.40758 9.08059C8.40484 9.06971 8.40454 9.05836 8.4067 9.04735L9.12387 5.35726C9.12727 5.33997 9.13657 5.3244 9.15017 5.31321C9.16378 5.30202 9.18085 5.2959 9.19847 5.2959H10.7443C11.2301 5.2959 11.5917 5.42781 11.819 5.68801C12.0475 5.94941 12.118 6.31516 12.0287 6.77465C11.9945 6.95563 11.9317 7.13003 11.8428 7.29134C11.7523 7.45156 11.6368 7.5963 11.5007 7.72009C11.3334 7.87671 11.1436 7.99046 10.9377 8.05729C10.7352 8.12335 10.4749 8.15682 10.1644 8.15682H9.5384L9.3598 9.07645C9.35642 9.09377 9.34712 9.10938 9.33348 9.1206C9.31985 9.13181 9.30274 9.13794 9.28509 9.13791H8.4813Z" fill="black"/>
<path d="M10.014 6.10602H10.4396C10.7794 6.10602 10.8975 6.18061 10.9375 6.22513C11.0042 6.29885 11.0167 6.45449 10.9739 6.67488C10.9258 6.92174 10.8368 7.09685 10.7091 7.19506C10.5784 7.29569 10.3658 7.34666 10.0777 7.34666H9.77297L10.014 6.10602ZM10.744 5.22008H9.19821C9.16297 5.22011 9.12885 5.23237 9.10165 5.25478C9.07446 5.27718 9.0559 5.30833 9.04913 5.34291L8.33185 9.03311C8.32761 9.0551 8.32828 9.07776 8.33382 9.09946C8.33935 9.12116 8.34962 9.14137 8.36387 9.15864C8.37812 9.17591 8.39602 9.18982 8.41627 9.19938C8.43653 9.20893 8.45864 9.21389 8.48104 9.21391H9.28494C9.32019 9.21387 9.35433 9.2016 9.38152 9.17917C9.40872 9.15674 9.42727 9.12557 9.43402 9.09097L9.60082 8.23282H10.1641C10.4825 8.23282 10.7508 8.19803 10.961 8.12957C11.1773 8.05935 11.3763 7.94024 11.5525 7.77541C11.6943 7.64631 11.8146 7.49545 11.9088 7.3285C11.9998 7.16586 12.065 6.9843 12.103 6.78917C12.1971 6.30541 12.1207 5.91811 11.8759 5.63811C11.6336 5.36063 11.2528 5.21997 10.7439 5.21997L10.744 5.22008ZM9.58868 7.49847H10.0776C10.4017 7.49854 10.6431 7.43748 10.8019 7.31527C10.9605 7.19321 11.0675 6.98937 11.123 6.70375C11.1763 6.42944 11.152 6.23592 11.0503 6.12319C10.9485 6.01046 10.7449 5.9541 10.4396 5.9541H9.88891L9.58868 7.49847ZM10.744 5.37167C11.2091 5.37167 11.5482 5.49374 11.7615 5.73786C11.9748 5.98199 12.0389 6.32273 11.9539 6.76008C11.9189 6.94033 11.8597 7.10505 11.7763 7.25424C11.6929 7.40357 11.5838 7.54018 11.449 7.66406C11.2886 7.81427 11.1103 7.92128 10.914 7.98508C10.7178 8.04895 10.4679 8.08086 10.1641 8.08078H9.47558L9.28472 9.06188H8.48082L9.1981 5.37167H10.744Z" fill="white"/>
<defs>
<radialGradient id="paint0_radial_118_1842" cx="0" cy="0" r="1" gradientUnits="userSpaceOnUse" gradientTransform="translate(4.20284 4.61219) scale(9.19202)">
<stop stop-color="#AEB2D5"/>
<stop offset="0.3" stop-color="#AEB2D5"/>
<stop offset="0.75" stop-color="#484C89"/>
<stop offset="1" stop-color="#484C89"/>
</radialGradient>
</defs>
</svg>
