<svg width="13" height="13" viewBox="0 0 13 13" fill="none" xmlns="http://www.w3.org/2000/svg">
<g clip-path="url(#clip0_118_1689)">
<path d="M11.8177 3.23923L11.8174 0.827125C11.8173 0.607757 11.7301 0.39739 11.575 0.242283C11.4199 0.0871756 11.2095 2.6923e-05 10.9901 0L8.65278 0C8.53346 3.19685e-05 8.41556 0.0258607 8.30715 0.075716C8.19875 0.125571 8.1024 0.198275 8.02472 0.288844L1.3807 8.04009C1.25223 8.19009 1.18163 8.38108 1.18164 8.57858V10.9907C1.18164 11.2101 1.26879 11.4205 1.42393 11.5756C1.57906 11.7308 1.78947 11.8179 2.00887 11.8179H4.34633C4.46567 11.8179 4.58359 11.7921 4.69201 11.7422C4.80044 11.6924 4.8968 11.6197 4.97449 11.5291L11.6184 3.77782C11.7469 3.62779 11.8175 3.43676 11.8175 3.23923H11.8177Z" fill="#D249FC"/>
<path d="M11.8179 2.94934V0.827419C11.8179 0.370356 11.4475 0 10.9904 0H8.33127C8.29206 0 8.25299 0.00290495 8.21407 0.00871447L0.710213 1.08013C0.513108 1.10843 0.332807 1.20682 0.202364 1.35727C0.0719203 1.50772 7.52449e-05 1.70015 0 1.89927V5.0826C0 5.54009 0.370356 5.91045 0.827855 5.91001L4.59285 5.90914C4.68174 5.90914 4.77019 5.89477 4.85428 5.86644L11.2523 3.73406C11.417 3.67904 11.5602 3.57362 11.6617 3.43272C11.7632 3.29181 11.8178 3.12256 11.8179 2.94891V2.94934Z" fill="url(#paint0_linear_118_1689)"/>
<path d="M12.9995 12.1724V5.27372C12.9995 4.94258 12.8021 4.64368 12.4984 4.5134L4.88304 1.24904C4.78003 1.20499 4.66915 1.18231 4.55713 1.18237H0.827855C0.370356 1.18237 0 1.55273 0 2.00936V5.65845C0 5.82228 0.0483642 5.98175 0.139428 6.1177L4.48654 12.6316C4.63991 12.8617 4.89829 12.9998 5.17497 12.9998H12.1725C12.6291 12.9998 12.9995 12.629 12.9995 12.1724Z" fill="url(#paint1_linear_118_1689)"/>
<path d="M10.5624 2.4375H2.4375V10.5622H10.5625L10.5624 2.4375Z" fill="black"/>
<path d="M7.11662 3.46875C6.91079 3.46868 6.72554 3.50626 6.56087 3.58148C6.39763 3.65671 6.26922 3.76166 6.17565 3.89633C6.08343 4.03134 6.03739 4.18544 6.03752 4.35864C6.03746 4.49914 6.06576 4.62687 6.12243 4.74184C6.1791 4.85501 6.2624 4.95273 6.36516 5.02662C6.4716 5.10198 6.59646 5.15316 6.73973 5.18018L7.35073 5.29718C7.45134 5.31715 7.53002 5.35974 7.58676 5.42495C7.64492 5.48886 7.67403 5.56835 7.6741 5.66341C7.6741 5.73992 7.65067 5.80801 7.60382 5.86766C7.5571 5.92731 7.4919 5.97413 7.40821 6.00812C7.32588 6.04075 7.2321 6.057 7.12688 6.05687C7.01638 6.05687 6.91695 6.03879 6.829 6.00182C6.74247 5.96492 6.67371 5.91387 6.62273 5.84866C6.57343 5.78307 6.54722 5.70301 6.54818 5.62096H5.96491C5.96775 5.80262 6.01877 5.96434 6.11796 6.10613C6.21736 6.24662 6.35436 6.35583 6.52898 6.43377C6.70347 6.51177 6.89999 6.5508 7.11855 6.55087C7.33834 6.55087 7.53547 6.51227 7.71005 6.43417C7.88454 6.35617 8.02073 6.2476 8.11864 6.10846C8.21668 5.9679 8.26577 5.80817 8.26591 5.62929C8.26584 5.48473 8.23459 5.35141 8.17216 5.22934C8.11003 5.10628 8.01866 5.00033 7.90607 4.92079C7.79266 4.83846 7.66144 4.78382 7.51241 4.75687L6.92051 4.64616C6.8268 4.62782 6.75367 4.59091 6.70113 4.53546C6.64862 4.47889 6.62263 4.40902 6.62263 4.32685C6.62263 4.25576 6.64395 4.1936 6.68651 4.13957C6.7291 4.08405 6.78875 4.04072 6.86546 4.00957C6.94204 3.97839 7.02644 3.96265 7.12292 3.96265C7.21934 3.96265 7.3058 3.9789 7.38231 4.0114C7.45903 4.04268 7.51868 4.08672 7.56127 4.14353C7.60521 4.20027 7.62715 4.26547 7.62708 4.33914H8.20832C8.20683 4.16899 8.15855 4.01864 8.06349 3.8881C7.96999 3.75607 7.84026 3.65315 7.6743 3.57935C7.50967 3.50572 7.32249 3.46875 7.11662 3.46875ZM3.45255 3.51994V6.49968H4.03339V5.37376H4.71457C4.92731 5.37376 5.11388 5.33543 5.27428 5.25879C5.4361 5.18079 5.56028 5.07154 5.64681 4.93105C5.73477 4.79059 5.77884 4.62453 5.77884 4.44152C5.77878 4.2585 5.73544 4.09742 5.64884 3.95828C5.5636 3.81928 5.44152 3.71152 5.28261 3.63501C5.12377 3.55829 4.94011 3.51994 4.73163 3.51994H3.45255ZM4.03298 4.00317H4.69314C4.79105 4.00317 4.87619 4.02169 4.94857 4.05873C5.02237 4.09407 5.07911 4.14509 5.11879 4.21178C5.1586 4.27688 5.1783 4.35651 5.1783 4.44588C5.1783 4.53539 5.15847 4.61421 5.11879 4.68232C5.07918 4.74915 5.0223 4.80044 4.94857 4.83741C4.87612 4.87295 4.79098 4.89069 4.69314 4.89062H4.03298V4.00317ZM3.45215 8.93738V9.54676H6.70215V8.93738H3.45215Z" fill="white"/>
</g>
<defs>
<linearGradient id="paint0_linear_118_1689" x1="11.4517" y1="-0.145638" x2="0.559191" y2="4.90456" gradientUnits="userSpaceOnUse">
<stop offset="0.16" stop-color="#D249FC"/>
<stop offset="0.55" stop-color="#FF2D90"/>
</linearGradient>
<linearGradient id="paint1_linear_118_1689" x1="0.808827" y1="0.85783" x2="12.733" y2="12.7822" gradientUnits="userSpaceOnUse">
<stop offset="0.3" stop-color="#FF2D90"/>
<stop offset="0.7" stop-color="#7256FF"/>
</linearGradient>
<clipPath id="clip0_118_1689">
<rect width="13" height="13" fill="white"/>
</clipPath>
</defs>
</svg>
