<svg width="12" height="12" viewBox="0 0 12 12" fill="none" xmlns="http://www.w3.org/2000/svg">
<path d="M5.75 7.91338C8.78757 7.91338 11.25 6.97318 11.25 5.81338C11.25 4.65358 8.78757 3.71338 5.75 3.71338C2.71243 3.71338 0.25 4.65358 0.25 5.81338C0.25 6.97318 2.71243 7.91338 5.75 7.91338Z" stroke="#61DAFB" stroke-width="0.5"/>
<path d="M3.93154 6.86313C5.45032 9.49374 7.49577 11.1562 8.50019 10.5763C9.5046 9.99637 9.08763 7.39374 7.56884 4.76313C6.05006 2.13253 4.00461 0.470101 3.00019 1.05C1.99578 1.6299 2.41276 4.23253 3.93154 6.86313Z" stroke="#61DAFB" stroke-width="0.5"/>
<path d="M3.93154 4.76372C2.41276 7.39433 1.99579 9.99695 3.0002 10.5769C4.00461 11.1568 6.05007 9.49433 7.56885 6.86372C9.08763 4.23311 9.50461 1.63049 8.50019 1.05059C7.49578 0.470687 5.45033 2.13311 3.93154 4.76372Z" stroke="#61DAFB" stroke-width="0.5"/>
<path d="M5.7501 6.83906C6.31619 6.83906 6.7751 6.38015 6.7751 5.81406C6.7751 5.24797 6.31619 4.78906 5.7501 4.78906C5.18401 4.78906 4.7251 5.24797 4.7251 5.81406C4.7251 6.38015 5.18401 6.83906 5.7501 6.83906Z" fill="#61DAFB"/>
</svg>
