<svg xmlns="http://www.w3.org/2000/svg" id="Calque_2" data-name="Calque 2" viewBox="0 0 20.35 14.71"><defs><style>.cls-1{fill:#db9294}.cls-2{fill:#c54f51}.cls-3{fill:#110f0e}.cls-4{fill:#080808}.cls-6{fill:#d98b8d}.cls-7{fill:#c44f51}.cls-8{fill:#efdb6b}.cls-9{fill:#515855}.cls-10{fill:#d76186}.cls-12{fill:#fbfbfb}.cls-13{fill:#e4d66a}.cls-14{fill:#1b170b}.cls-15{fill:#eedb6b}.cls-16{fill:#cbb294}.cls-19{fill:#f4de6c}.cls-20{fill:#d58385}.cls-21{fill:#ceb497}.cls-22{fill:#2d1313}.cls-23{fill:#b5b5b9}</style></defs><g id="Calque_1-2" data-name="Calque 1"><path d="M9.7 13.71c.04.26-.04.64-.36.68.08-.24.29-.39.24-.68zM10.14 13.83c0 .12 0 .23-.04.34-.06.15-.29.31-.22.09.03-.12.2-.25.14-.43zM13.71 13.79c.14.19-.49.09-.44-.14.03-.12.16.04.21.07s.22.06.23.07M15.54 12.44s0-.21-.04-.3-.09-.17-.14-.25c-.02-.03-.26-.22-.11-.24.22-.03.56.68.42.78-.03.02-.11.03-.12.02ZM14.83 12.16c-.08-.13.06-.13.16-.1.14.05.43.39.34.54-.14.12-.14-.15-.22-.26s-.26-.17-.27-.18ZM7.83 14.31c-.18-.1-.14-.38-.02-.52.16-.04.03.43.02.52" class="cls-4"/><path d="M0 3.58c.07-.81.49-1.61 1.09-2.15.09-.08.58-.4.6-.43.03-.05-.18-.46.06-.58.29-.14.5.27.62.29.04 0 .58-.14.71-.15 1.31-.1 2.78.54 3.26 1.83.03.09.2.52 0 .51-.14 0-.32-.12-.52-.11-.35 0-.95.26-1.21.5-.09.09-.34.49-.38.49-.06 0-.55-.29-.73-.1l.8 2.8c.4 0 .78-.2 1.19-.16-.3-.4-.18-.89.28-1.1-.12-.55-.01-1.03.29-1.5.18-.28.3-.45.46-.77.04-.08.17-.22.19-.29s-.12-.38-.14-.5c-.13-1.12.68-1.2 1.25-.42.16-.18 1-.32 1.08-.4.06-.06.07-.34.15-.47.46-.73 1.79-.75 2.4-.18.18.16.35.57.41.62.05.04.61.2.66.18.04-.02.23-.29.32-.36.23-.19.51-.35.79-.16.37.26.16.98.05 1.34l.19.23c.3-1.49 1.8-2.4 3.28-2.3.14 0 .6.12.67.11.14-.03.33-.52.64-.3.2.14.02.51.07.59 0 .02.26.13.32.17.79.54 1.4 1.41 1.5 2.38v.99c-.18.02-.29-.14-.45-.21-.58-.25-1.22-.29-1.79.02-.09.05-.24.21-.32.19-.12-.2-.21-.43-.42-.56l-.72 3.24v.3c.13.13.32-.5.6-.26.47.41-.7 1.6-1.15.79-.04-.08-.05-.31-.14-.29-.11.03-.62.46-.78.57-.12.08-.25.17-.39.18.13.44.15.84.2 1.29.01.11.1.26.07.35-.02.09-.24.22-.29.31-.05.11-.05.32-.1.46-.14.41-.37.78-.66 1.09-.04.04-.14.08-.14.1-.01.08.47.73.52.75.04.02.26-.16.48.04.39.36-.23.66-.41.92-.32.28-.54.2-.87 0-.28-.16-.46-.34-.66-.57-.04-.04-.5-.32-.53-.32-.07 0-.37.11-.49.13-.88.16-1.74.22-2.63.09-.06.29.09.23.23.38-.11.22-.07.53-.13.73-.04.12-.69.74-.81.77-.3.09-.68-.2-.58-.5.03-.08.17-.19.18-.22 0-.04-.36-.44-.31-.63.01-.05.12-.03.12-.12 0-.04-.36-.75-.39-.79-.07-.09-.34-.19-.45-.27-.44-.32-.76-.83-.92-1.34-.03-.1-.04-.33-.08-.4-.05-.09-.49-.21-.53-.35-.13-.44.19-1.37.23-1.84-.43-.13-.89-.32-1.25-.6-.1 1.21-1.68.31-1.32-.37.17-.32.45.09.61.21.12 0 0-.49-.02-.57-.22-.96-.59-1.92-.81-2.88-.04-.08-.2.11-.22.14-.07.1-.14.35-.23.37-.1.03-.14-.09-.21-.13-.57-.35-1.29-.26-1.87.04-.13.07-.29.24-.42.22l-.06-.16c.02-.3-.03-.62 0-.91ZM18.36.52c.22-.46-.25-.4-.35-.13-.02.06.16.11.2.12.05.01.1.04.15.02Zm-2.82.2c-.09.05-.19.1-.28.16-.57.36-1.12.93-1.19 1.63.43-.09.99-.04 1.39.16.17.08.49.36.6.52.01.02-.02.08.02.08.09.01.05-.02.06-.08v-.04h.08v.12c.08-.03.15-.07.24-.08.53-.06.91.16 1.27.52.03.03 0 .09.12.16.03.02.03.05.1.04.05 0 .05-.04.06-.04.13-.09.27-.16.44-.2.08-.02.16-.03.24-.04.51-.04 1.05.04 1.49.32.04-.04.02-.14.02-.2v-.32c-.03-.45-.16-.91-.36-1.31-.06-.13-.12-.2-.2-.32-.22-.31-.36-.41-.64-.64-.08-.07-.13-.15-.28-.24-.06-.04-.21-.17-.27-.11-.02.01 0 .07 0 .07h-.08c0-.04-.03-.06-.04-.08 0-.03.03-.09-.02-.12-.06-.04-.16-.02-.21-.04-.05-.01-.07-.13-.2-.04l-.04-.04a.37.37 0 0 0-.22-.08c-.09 0-.04.06-.06.08h-.04c0-.14.02-.11-.1-.12-.76-.07-1.19-.07-1.89.28Zm-5.28.8V.49c-.4.2-.65.59-.79.99.06-.03.15.04.18.04h.62Zm.12 0c.11 0 .83-.01.83-.1-.16-.34-.41-.9-.83-.93zm1.31-.16c-.13-.4-.53-.8-.95-.85.23.27.5.57.56.93l.4-.08ZM9.98.53c-.48.05-.9.36-.91.87.37.16.4-.27.58-.51.1-.13.25-.22.34-.36ZM1.84.92C2.3.87 2.19.58 1.8.56zM2.75.8c-.13.03-.27.03-.4.08l.04.08h-.08c-.12 0-.17-.03-.24.08-.04.06-.03.1-.04.16h-.08s.01-.12-.02-.12c-.09-.01-.14.09-.18.12-.09.06-.19.09-.28.16-.31.23-.49.41-.72.72-.04.06-.07.08-.12.16-.4.66-.51 1.42-.48 2.18.15-.05.29-.16.44-.22a2.55 2.55 0 0 1 1.47-.14c.06.01.11.11.28.12h.08c.02.08 0 .08.12.12 0 0 .02-.13.04-.16s.13-.16.16-.2c.09-.11.47-.4.6-.44.08-.02.37-.05.46-.04.11 0 .29.08.34.08s.06-.07.08-.08c0 0 .05.01.08-.03.04-.04.06-.16.08-.17.08-.08.38-.3.48-.36.04-.02.26-.15.28-.16.09-.03.55-.11.66-.12.17 0 .3.02.46.04 0-.19-.12-.33-.2-.48s-.09-.18-.2-.32c-.22-.3-.33-.38-.64-.6-.12-.09-.18-.12-.32-.2C4.41.8 4.12.71 3.55.7h-.28c-.18.01-.34.05-.52.08Zm10.73.84s-.33.09-.28.25c0 .02.31.27.33.26.26-.44.22-1.46-.49-.97-.07.05-.35.32-.36.39-.01.08.02.05.05.07.04.03.33.17.35.15.02-.11.02-.23.04-.34.01-.07-.03-.07.08-.06v.2s.42-.1.28.04Zm-5.8.24c.05-.07-.36-.41-.45-.45-.66-.25-.52.71-.43 1.08.04.04.31-.22.32-.3 0-.17-.4-.34-.32-.42.06-.06.28.21.32.16-.03-.08.04-.38.16-.28.02.01-.09.35-.04.44l.44-.24Zm1.31-.32s-.09.3-.09.33c0 .31.59.35.82.38.51.06 1.28.06 1.76-.15.28-.13.51-.37.19-.6-.59.12-1.23.2-1.83.16-.14-.01-.79-.16-.85-.11Zm1.74.87c-.21.01-.46 0-.68 0-.58-.02-1.57-.01-1.23-.87-.94.18-1.82.79-2.26 1.65.62-.27 1.18-.38 1.81-.07 1.25.61 1.39 2.41.22 3.18-.32.21-.61.26-.97.34.34.25.75.33 1.13.5.51.24 1.25.81 1.8.67.76-.19 1.45-.97 2.2-1.19 0-.06-.06-.06-.1-.08-.98-.36-1.6-1.08-1.35-2.19.28-1.22 1.62-1.76 2.72-1.21-.36-.85-1.16-1.44-2.05-1.65-.12-.03-.02.15-.01.22.01.52-.83.67-1.23.69Zm6.12.92c-.13 0-.28-.02-.41 0-.1.02-.27.17-.36.15-.03 0-.23-.34-.31-.41-.43-.4-1.23-.58-1.78-.38.11.2.21.51.32.69.25.39.54.5.62 1.09.05.34-.09.71-.07.9 0 .08.09.13.11.21.06.25-.07.5-.23.69.47-.06.95-.04 1.42 0l.68-2.93ZM9.25 4.8c0-.93-.76-1.69-1.69-1.69s-1.69.76-1.69 1.69.76 1.69 1.69 1.69 1.69-.76 1.69-1.69m5.54 0c0-.93-.76-1.69-1.69-1.69s-1.69.76-1.69 1.69.76 1.69 1.69 1.69 1.69-.76 1.69-1.69m2.19-1.4-.62 2.81.28.06.62-2.81zm-13.62.29-.27.07.77 2.75.27-.07zm6.74 4.34-1.34-.71c-.56-.17-1.05-.47-1.58-.73-.39-.19-.62-.18-.96-.55-.1-.11-.35-.56-.38-.58-.06-.03-.13-.02-.2-.02-.12.11.35.58.44.66.78.68 1.66.95 2.56 1.38.49.23.88.63 1.46.55m4.33-1.98c.32.02.52-.18.34-.48zM7.79 7.32s.2.16.32.12c-.06-.11-.22-.12-.32-.16-.8-.34-1.73-.87-2.24-1.59-.09-.04-.07.18-.06.22.07.75 1.71 1.22 2.31 1.41Zm3.06.71c.02.08.06.06.12.06 1.06-.03 2.17-.68 2.99-1.3.22-.16.47-.34.62-.57zm.48.16c-.16.03-.32.07-.48.08h-.4c-.03.06.04.1.04.12v.48c.03.64.05 1.27.08 1.91.71.02 1.41 0 2.11-.12.75-.13 1.66-.36 2.21-.91-.07-.59-.16-1.12-.33-1.7-.03-.1-.22-.55-.21-.58 0-.05.13-.08.16-.06s.18.55.2.64c.05.04.86-.53.95-.62.26-.26.14-.68.12-1.01h-.62c-.64 0-.81.31-1.28.63-.92.64-1.43.94-2.55 1.16Zm4.61-.99c.52-.1.72-.82 0-.75 0 .26.07.49 0 .75m-5.61 1.04c-.26-.07-.52-.04-.79-.1-.32-.07-.66-.27-.97-.38-.8-.28-1.65-.49-2.39-.91-.13-.07-.43-.33-.52-.35-.12-.03-.62 0-.74.04-.16.05-.12.81-.19.97 0 .05 0 .08.04.12.07.07 1.07.51 1.11.46-.02-.08.09-.76.24-.6.09.09-.56 2.23-.38 2.54.02.03.5.26.58.3 1.12.46 2.41.42 3.61.41.15-.82.43-1.65.4-2.49ZM4.14 6.56s-.2.05-.22.08c-.02.02.02.19.02.2.06.06.19-.23.2-.28m.56.04c-.5-.08-.82.41-.35.73.07.05.26.18.28.04.03-.25.02-.52.08-.78Zm8.66 0c-.38.01-.69.24-1.02.39l-.49.32c.07.01.12 0 .19-.03.44-.16.96-.4 1.32-.68m3.81.4c-.21.04-.26.33-.5.32-.2 0-.16-.19-.2-.32-.19.22-.38.24-.25.56.24.6 1.12-.07.94-.56Zm-13.11.32c-.12.73-.49.03-.62 0-.22-.05-.01.41.06.5.35.43.94.33.87-.29zm7.55.16c-.13.03-.24.12-.36.18-.05.03-.1-.01-.08.1.13-.03.24-.12.36-.18.05-.03.1.01.08-.1m-.48.28-.6.22c.06.08.07.04.14.02.14-.04.37-.12.46-.24m3.42 2.46c-1.25.63-2.7.78-4.09.7-.08-.06-.01-.55-.04-.68l-.08-.7c-.12.37-.12.94-.25 1.28-.01.03-.02.05-.06.06-1.24.03-2.51.03-3.69-.39-.04.59.42 1.24.9 1.56 1.02.68 3.19.74 4.37.53 1.3-.22 2.74-.93 2.93-2.37Zm-1.95 2.26s.42.33.49.31c.05-.01.43-.43.52-.51.12-.1.27-.06.2-.28-.08-.25-.36.08-.51.17-.22.12-.46.23-.7.31m1.43-.23c-.2-.01-.85.6-.83.73.01.07.63.47.74.49.34.07.35-.12.53-.28.12-.11.51-.32.27-.52-.19-.16-.28.09-.47.05-.02-.18-.19-.3-.25-.47Zm-4.92.51-1.31-.24.34.67c.13-.13.93-.16.97-.19zm.02 1.22c.08-.1.15-.51.17-.65.02-.2-.35-.17-.48-.16-.12.01-.74.16-.78.26-.06.16.3.45.32.59.01.1-.37.15-.18.41.1.13.25.15.39.08.03-.02.53-.48.57-.53Z" style="fill:#0e0c09"/><path d="M8.99 1.56c.06-.05.71.1.85.11.6.05 1.24-.04 1.83-.16.32.23.09.48-.19.6-.47.21-1.24.21-1.76.15-.23-.02-.81-.06-.82-.38 0-.03.07-.32.09-.33Z" class="cls-8"/><path d="M13.48 1.64c.14-.14-.27-.03-.28-.04v-.2c-.1 0-.07 0-.08.06-.02.11-.02.23-.04.34-.02.02-.3-.12-.35-.15-.03-.02-.06 0-.05-.07s.29-.35.36-.39c.71-.49.76.54.49.97-.02 0-.33-.24-.33-.26-.05-.17.25-.22.28-.25Z" class="cls-16"/><path d="M10.38 1.52V.49c.42.03.67.59.83.93 0 .09-.72.11-.83.1" style="fill:#c5ea85"/><path d="M10.26 1.52h-.62s-.12-.07-.18-.04c.14-.41.4-.8.79-.99v1.03Z" class="cls-10"/><path d="m7.68 1.88-.44.24c-.05-.09.06-.42.04-.44-.12-.1-.19.2-.16.28-.04.05-.26-.22-.32-.16-.08.08.32.25.32.42 0 .07-.28.34-.32.3-.1-.37-.24-1.33.43-1.08.09.03.5.38.45.45ZM4.7 6.6c-.06.25-.05.53-.08.78-.02.13-.21 0-.28-.04-.46-.32-.15-.81.35-.73Z" class="cls-16"/><path d="M9.98.53c-.09.14-.24.23-.34.36-.18.24-.21.68-.58.51.02-.51.44-.83.91-.87Z" class="cls-6"/><path d="m11.69 1.36-.4.08c-.05-.36-.32-.67-.56-.93.43.06.82.45.95.85Z" style="fill:#5f6bd1"/><path d="M15.94 7.2c.07-.27 0-.49 0-.75.72-.07.52.66 0 .75" class="cls-16"/><path d="M10.73 2.43c.02.12-.06.08-.14.08h-.4c-.08 0-.16.04-.14-.08.21 0 .47.01.68 0" class="cls-21"/><path d="M10.73 2.43c.4-.02 1.25-.17 1.23-.69 0-.06-.1-.24.01-.22.89.21 1.69.8 2.05 1.65-1.1-.55-2.44-.01-2.72 1.21-.25 1.11.37 1.83 1.35 2.19.04.02.1.02.1.08-.76.23-1.44 1-2.2 1.19-.54.14-1.29-.44-1.8-.67-.37-.17-.79-.26-1.13-.5.36-.09.65-.14.97-.34 1.16-.77 1.03-2.56-.22-3.18-.64-.31-1.19-.2-1.81.07.44-.86 1.32-1.47 2.26-1.65-.34.86.65.85 1.23.87-.02.12.06.08.14.08h.4c.08 0 .16.04.14-.08Zm-2.34.04c-.28 0-.59-.1-.86.03-.06.03-.08.03-.05.11.04.11.35-.02.46-.02.19 0 .52.18.46-.12Zm3.62.28c.2-.05.47-.1.65-.16.05-.02.11-.02.1-.1-.03-.15-.72.07-.75.1-.02.02 0 .11 0 .15Zm-1.68 1.64c-.36 0-.89.45-.7.84.09.17.11.22.19.41.21.52.81.61.95.03.02-.08 0-.18.02-.26.03-.11.2-.13.19-.36s-.39-.65-.65-.65Zm.21 1.74h-.26c-.06 0-.16-.04-.14.06.1.11.27.05.4.06z" class="cls-21"/><path d="M10.33 4.39c.25 0 .64.41.65.65s-.16.25-.19.36c-.02.08 0 .18-.02.26-.14.59-.74.49-.95-.03-.08-.19-.1-.24-.19-.41-.19-.38.33-.83.7-.84Zm-.04.16c-.57.05-.21.43.16.21.19-.11 0-.22-.16-.21m.35.23s-.1.1-.15.13c-.09.04-.38.05-.48.02-.08-.02-.2-.25-.26.04-.09.43.33.29.53.29.13 0 .24.08.39.03.26-.08.12-.53-.03-.5Zm-.34.63c0 .06 0 .18.06.2.18.06.2-.26-.06-.2m.32.32s-.48.04-.56.1c.18.18.49.17.56-.1M8.39 2.47c.07.29-.27.12-.46.12-.11 0-.41.13-.46.02-.03-.08 0-.08.05-.11.27-.13.58-.03.86-.03Z" class="cls-3"/><path d="M12.01 2.75s-.02-.13 0-.15c.03-.03.72-.26.75-.1 0 .08-.05.08-.1.1-.19.06-.46.11-.65.16Z" class="cls-14"/><path d="M10.64 4.78c.15-.03.29.43.03.5-.15.04-.26-.03-.39-.03-.2 0-.62.14-.53-.29.06-.29.18-.06.26-.04.1.03.39.02.48-.02.06-.03.12-.12.15-.13Z" style="fill:#c5b8a4"/><path d="M10.29 4.55c.17-.01.35.09.16.21-.37.22-.73-.16-.16-.21" class="cls-9"/><path d="M10.62 5.73c-.07.27-.38.28-.56.1.08-.06.52-.13.56-.1" class="cls-1"/><path d="M9.25 4.8c0 .93-.76 1.69-1.69 1.69S5.87 5.73 5.87 4.8s.76-1.69 1.69-1.69 1.69.76 1.69 1.69m-1.69-.42c-.87-.17-.76 1.12 0 .9.2-.06.44-.48.28-.6-.08-.06-.41.21-.28-.29Z" class="cls-12"/><path d="M7.56 4.38c-.13.51.2.24.28.29.16.12-.07.54-.28.6-.76.22-.87-1.07 0-.9Z" class="cls-4"/><path d="M10.3 5.41c.26-.07.24.25.06.2-.07-.02-.07-.14-.06-.2" class="cls-23"/><path d="M14.79 4.8c0 .93-.76 1.69-1.69 1.69s-1.69-.76-1.69-1.69.76-1.69 1.69-1.69 1.69.76 1.69 1.69m-1.43-.5c-.77-.18-.89.96-.14.92.32-.02.45-.31.42-.6-.3.11-.36-.05-.28-.32" class="cls-12"/><path d="M13.36 4.3c-.08.27-.03.43.28.32.03.29-.1.58-.42.6-.75.04-.63-1.1.14-.92" class="cls-4"/><path d="M15.54.72c.7-.35 1.13-.34 1.89-.28.12.01.1-.02.1.12-.08-.01-.13-.06-.24 0 0 .31.29.35.28 0 .01-.02-.03-.08.06-.08.08 0 .15.03.22.08-.54.38-.87 1.01-1.24 1.54-.03.02-.08.01-.11 0-.02 0-.05-.05-.13-.04-.23.04-.13.25.06.28-.13.28-.23.49-.28.79v.04h-.08c-.11-.16-.43-.44-.6-.52.16.02.27-.31.1-.4-.23.04-.28.38-.1.4-.4-.19-.96-.25-1.39-.16.07-.7.62-1.27 1.19-1.63.04.42.49.09.28-.16Zm.8-.11c-.08.04-.21.04-.12.18.15.22.18.02.24-.06 0 0 .07.02.08-.02.02-.1-.03-.2-.14-.17-.04.01-.05.07-.07.07Zm.44.36c-.05.08.05.31.22.2.27-.18-.13-.32-.22-.2m-1.04.31c-.07.05-.25.06-.1.2.17.16.21.05.26-.12.01-.04.1-.11-.03-.15-.17-.06-.13.07-.13.07m.91.12c-.1-.15-.39-.04-.3.15.11.22.35-.08.3-.15m-1.9.24c-.13-.13-.56.27-.08.32.01-.06.12-.27.08-.32m.59.2c-.1.1-.2.2.04.26.12.03.14-.09.16-.18 0-.01.05-.03.04-.09-.06-.21-.16-.06-.23 0Z" class="cls-7"/><path d="M18.08.65 18 .92c.19.06.28.11.31-.12 0 .02.04.04.04.08.03.25.03.85 0 1.09 0 .05-.11.1-.12.2 0 .02.08 0 .08.08 0 .06-.03.23-.04.3-.14-.01-.24.36-.08.32-.06.25-.12.4-.2.64-.13-.21-.21.09-.28.2-.36-.36-.74-.57-1.27-.52.11-.15.1-.48-.16-.28.18-.55.75-1.38 1.13-1.83.08-.09.38-.42.46-.48.12-.09.15.03.2.04Zm-.47.91c.2.08.31.06.28-.18-.03-.32-.31-.02-.28.18m-.4.47c.05-.15.21-.28.02-.39-.24.13-.38.32-.02.39m.47.48c.03-.08.06-.17.04-.25-.05-.33-.58.3-.04.25m-.71.16c.05-.15.1-.35-.09-.39-.12.07-.16.2-.15.33zm.35.17c-.1-.16-.35.19-.3.27.03.05.22.11.26.08 0-.09.08-.28.04-.35" class="cls-7"/><path d="M18.72.92c-.03.26.02.34.28.24.28.23.42.33.64.64-.08.08-.02.25-.04.36l.24-.04c.2.4.32.86.36 1.31-.32-.14-.36.49 0 .32 0 .06.02.16-.02.2-.44-.27-.98-.36-1.49-.32-.02-.29-.29-.26-.24.04-.17.04-.31.11-.44.2.09-.26.19-.52.26-.79s.1-.49.14-.8c.11.04.17-.33.04-.36.03-.34.09-.7 0-1.03 0 0-.01-.06 0-.07.06-.05.21.08.27.11Zm.59.95c.03-.43-.34-.48-.27 0 .09.05.18.02.27 0m-.71.28c.25.15.31-.3.13-.35s-.19.32-.13.35m.91.48c0 .05 0 .11.02.16.05.06.19.03.26.04-.02-.06-.02-.14-.04-.2 0-.03.01-.08-.02-.12-.08-.11-.21 0-.22.12m-.63-.03s-.07-.03-.09.02c-.02.08.01.2 0 .29.1 0 .27.04.28-.1 0-.13-.02-.19-.13-.21 0 0-.01-.03-.03-.03-.03 0-.04.02-.04.03Zm.32.67c-.01.27.25.2.28.16s-.03-.12-.04-.16c-.02-.07.02-.15-.1-.16-.13-.01-.13.06-.14.16" class="cls-7"/><circle cx="18.92" cy="2.63" r=".05" class="cls-7"/><path d="m16.355 6.205.623-2.802.274.061-.623 2.802z" class="cls-23"/><path d="M17.17 7c.18.49-.7 1.16-.94.56-.13-.33.05-.35.25-.56.04.14 0 .31.2.32.24.01.29-.28.5-.32Z" class="cls-7"/><path d="M18.44.88c.09.34.03.69 0 1.03-.01.12-.03.24-.04.36-.04.31-.06.53-.14.8s-.17.53-.26.79c-.01 0 0 .04-.06.04-.07 0-.07-.03-.1-.04.15-.07.12-.25.16-.36.08-.23.14-.38.2-.64.02-.1.07-.25.08-.32s.05-.24.04-.3c0-.07-.08-.06-.08-.08 0-.1.11-.15.12-.2.03-.24.02-.85 0-1.09h.08ZM17.89.61c-.07.05-.38.39-.46.48-.38.45-.95 1.28-1.13 1.83-.03.09-.08.08-.08.24h-.08c.04-.31.15-.52.28-.79.03-.06.12-.12.08-.24.03 0 .09.01.11 0 .36-.54.7-1.17 1.24-1.54l.04.04Z" class="cls-22"/><path d="M18.36.52c-.05.02-.1 0-.15-.02-.04-.01-.22-.06-.2-.12.11-.27.57-.33.35.13Z" class="cls-23"/><path d="M16.45 3.19c-.08 0-.16.05-.24.08v-.12c0-.16.05-.15.08-.24.26-.2.27.12.16.28M18.08.65c.06.02.15 0 .21.04.05.03.01.09.02.12-.04.23-.12.17-.31.12l.08-.27Z" class="cls-20"/><path d="M15.26.88c.09-.05.19-.11.28-.16.21.25-.24.58-.28.16" class="cls-1"/><path d="M20.19 3.43v.32c-.36.17-.32-.46 0-.32" class="cls-6"/><path d="M18 3.51c-.04.11 0 .28-.16.36-.12-.06-.09-.13-.12-.16.07-.1.15-.41.28-.2" class="cls-20"/><path d="M17.53.57h.04c.01.36-.27.31-.28 0 .11-.06.16-.01.24 0" class="cls-1"/><path d="m19.83 2.12-.24.04c.01-.11-.04-.28.04-.36.08.12.13.19.2.32M18.72.92c.15.08.2.17.28.24-.25.1-.3.02-.28-.24M18.68 3.62c-.08 0-.16.02-.24.04-.05-.3.22-.33.24-.04" class="cls-20"/><path d="M16.14 3.19c0 .06.03.09-.06.08-.04 0 0-.06-.02-.08z" class="cls-22"/><path d="M15.46 2.67c-.18-.02-.13-.35.1-.4.17.09.06.41-.1.4M14.75 1.64s-.07.25-.08.32c-.48-.05-.05-.44.08-.32M16.65 1.4c.05.07-.19.38-.3.15-.1-.2.19-.3.3-.15M16.78.97c.08-.12.49.02.22.2-.17.11-.27-.12-.22-.2" class="cls-6"/><path d="M16.49 2.12c.04.12-.05.17-.08.24-.19-.03-.28-.24-.06-.28.08-.01.12.04.13.04ZM15.74 1.28c.02.07.09.09.16.08-.05.17-.09.28-.26.12-.15-.14.03-.15.1-.2M15.54 1.92c-.02.09-.04.22-.16.18-.24-.07-.14-.16-.04-.26zM16.34.61l.12.12c-.06.08-.09.28-.24.06-.09-.14.04-.14.12-.18" class="cls-1"/><path d="m15.54 1.92-.2-.08c.07-.07.17-.22.23 0 .02.06-.03.08-.04.09ZM16.34.61s.02-.06.07-.07c.11-.03.16.07.14.17-.01.04-.08.02-.08.02l-.12-.12ZM15.9 1.36c-.07 0-.14 0-.16-.08 0 0-.03-.13.13-.07.13.04.04.12.03.15" class="cls-20"/><path d="M17.32 2.84c.04.07-.03.26-.04.35-.04.03-.23-.03-.26-.08-.05-.09.19-.44.3-.27M16.97 2.67l-.24-.06c0-.13.03-.26.15-.33.19.05.14.25.09.39M17.21 2.03c-.36-.08-.22-.26.02-.39.19.11.03.25-.02.39M17.68 2.51c-.54.05 0-.59.04-.25.01.09-.02.17-.04.25M17.61 1.56c-.03-.19.25-.5.28-.18.03.24-.08.25-.28.18" class="cls-6"/><path d="M18.28 2.55c-.01.07-.06.22-.08.32-.16.05-.06-.33.08-.32" class="cls-1"/><path d="M19.31 1.87c-.09.02-.18.05-.27 0-.07-.48.3-.43.27 0M18.6 2.15c-.06-.03-.04-.4.13-.35s.12.5-.13.35M18.88 2.6s-.02.05 0 .07.05.02.07 0 .02-.05 0-.07c.1.03.13.09.13.21 0 .14-.17.1-.28.1.01-.09-.02-.21 0-.29.01-.05.06-.02.09-.02ZM18.95 2.6s-.02-.01-.03-.02-.03 0-.04.01c0 0 .01-.04.04-.03.01 0 .02.03.03.03Z" class="cls-6"/><path d="M19.75 2.63c.02.06.02.14.04.2-.07 0-.21.03-.26-.04-.02-.05-.02-.11-.02-.16zM19.43 3.27s.06.12.04.16-.29.11-.28-.16z" class="cls-1"/><path d="M19.43 3.27h-.24c0-.1 0-.17.14-.16.12.01.08.09.1.16M19.75 2.63h-.24c.01-.12.14-.23.22-.12.03.04 0 .09.02.12M18.44 1.92c.13.03.07.4-.04.36.01-.12.03-.24.04-.36" class="cls-20"/><path d="M3.27.72c-.03.39.51.35.28 0 .57 0 .86.1 1.35.36-.02.22.13.49.32.2.3.21.41.3.64.6-.24.13-.04.53.2.32.08.15.21.29.2.48-.16-.02-.29-.05-.46-.04-.1 0-.57.08-.66.12-.04-.03-.08-.05-.12-.08-.02-.01-.03-.09-.1-.08-.14.03-.07.15-.06.2v.12c-.1.06-.4.28-.48.36-.01-.03-.07-.03-.08-.04-.02-.02.03-.12-.16-.08-.19-.39-.54-.96-.79-1.31.34-.14-.02-.51-.2-.28-.07-.08-.43-.42-.52-.48.15-.01.2-.15.12-.28.18-.03.33-.07.52-.08Zm.78.13c-.24.04.11.6.25.18 0-.04-.21-.19-.25-.18m.61 1.02c.07.04.25-.1.23-.17-.27-.34-.42-.21-.23.17m-.8-.23c-.11.11.02.12.04.16.02.05-.02.19.13.15.25-.06 0-.48-.17-.31m1.18.48c-.14.04-.11.33.11.27s.02-.31-.11-.27M4 2.31c-.15.04.03.51.22.3.14-.15-.12-.32-.22-.3M1.76 1.2s.09-.13.18-.12c.03 0 .02.08.02.12-.02.33-.05.62-.04.95-.22-.1-.19-.03-.24.12-.01.04-.09.11-.02.16.1.07.24.06.26-.08 0 0 .03.03.04.06.06.61.16 1.2.4 1.76-.17 0-.22-.1-.28-.12-.01-.38-.24-.46-.28-.04-.39-.04-.83.03-1.19.18-.15.06-.28.16-.44.22-.03-.76.07-1.53.48-2.18-.04.21.03.25.23.24.06-.15.1-.37-.12-.39.23-.31.41-.49.72-.72.14.31.34.14.28-.16m-.36.64c-.21-.03-.21.21-.2.36h.24v-.28c-.06-.02-.04.16-.12.08-.02-.02.11-.09.08-.16M.69 3.15c.32.15.38-.18.17-.35-.11-.02-.2.27-.17.35m.99.08c0-.09.01-.18-.06-.24-.14-.12-.35.31.06.24m-.6.35s-.06.06-.04.13c.03.09.17.06.24.06v-.2c-.01-.11 0-.16-.14-.16-.11 0-.04.06-.06.16Zm-.59.12c-.21-.03-.21.21-.2.36h.24v-.28c-.06-.02-.04.16-.12.08-.02-.02.11-.09.08-.16" class="cls-2"/><path d="M2.31.96c.2.2.44.35.64.56-.19 0-.1.24-.12.36.14 0 .3.04.28-.16.42.52.87 1.18 1.03 1.83-.04 0-.23-.08-.34-.08-.09 0-.38.02-.46.04.25-.06 0-.41-.09-.4-.16.03-.11.45.09.4-.12.04-.5.33-.6.44-.1-.14-.07-.19-.28-.16.03.11-.1.41.12.36-.02.03-.03.15-.04.16-.12-.04-.09-.04-.12-.12-.1-.31-.22-.63-.28-.95.34.01.3-.14.04-.28-.03-.02-.09 0-.11-.06-.03-.09 0-.2 0-.29.34.04.19-.42-.04-.36h-.04c-.02-.28.01-.56.04-.83.21 0 .32.03.24-.2-.04-.11-.05-.17-.2-.16.07-.11.12-.08.24-.08Zm.5 1.52c-.13.04-.03.52.22.29.08-.07-.05-.35-.22-.29m.89.19c-.05-.04-.24.13-.24.14 0 .23.29.19.32.07 0-.01-.07-.21-.08-.21" class="cls-2"/><path d="m3.095 3.766.27-.076.77 2.744-.27.076z" class="cls-23"/><path d="m4.06 7.32.31.21c.08.62-.52.72-.87.29-.07-.09-.28-.55-.06-.5.13.03.5.73.62 0" class="cls-7"/><path d="m2.39.96.24.12c.08.06.45.4.52.48.04.04.15.21.2.28.25.35.61.92.79 1.31.02.04-.02.13.08.16-.01.01 0 .12 0 .16-.02.01-.03.08-.08.08-.17-.65-.61-1.31-1.03-1.83-.06-.07-.09-.12-.16-.2-.2-.21-.44-.35-.64-.56zM2.03 1.2v.2c-.03.27-.06.55-.04.83 0 .03 0 .07.04.08 0 .13.03.19.04.28s-.02.21 0 .29c.02.07.08.05.11.06-.12.12-.06.17-.04.28.06.32.18.64.28.95h-.08c-.24-.56-.34-1.16-.4-1.76 0-.03-.04-.06-.04-.06v-.2c-.01-.33.01-.63.04-.95h.08Z" class="cls-22"/><path d="M.76 2.08c.21.03.18.24.12.39-.2.01-.27-.03-.23-.24.05-.08.08-.1.12-.16Z" class="cls-6"/><path d="M1.84.92 1.8.56c.39.02.5.31.04.36" class="cls-23"/><path d="M2.75.8c.08.13.03.26-.12.28-.01-.01-.22-.12-.24-.12L2.35.88c.13-.05.27-.05.4-.08" class="cls-20"/><path d="M3.54.72c.23.35-.31.39-.28 0zM6.05 2.19c-.24.22-.44-.19-.2-.32.1.14.12.17.2.32" class="cls-6"/><path d="M2.59 4.14c-.22.05-.09-.25-.12-.36.21-.03.18.02.28.16a3 3 0 0 0-.16.2M2.07 4.06s-.23-.03-.28-.04c.04-.42.27-.34.28.04M5.21 1.28c-.19.29-.34.03-.32-.2.14.07.2.11.32.2" class="cls-20"/><path d="M1.76 1.2c.07.3-.13.47-.28.16.09-.06.19-.1.28-.16" class="cls-6"/><path d="M2.27 1.2c-.19-.06-.18 0-.24.16V1.2c.01-.06 0-.1.04-.16.15 0 .16.05.2.16" class="cls-20"/><path d="M4.14 6.56s-.14.34-.2.28c0 0-.04-.18-.02-.2.02-.03.21-.09.22-.08" class="cls-7"/><path d="M5.13 2.75s-.24.13-.28.16v-.12c.06-.08.19.01.16-.12.04.03.08.05.12.08" class="cls-6"/><path d="M4.38 3.27s-.04.13-.08.17c-.03.04-.07.02-.08.03 0-.04-.01-.14 0-.16 0-.01.11.04.08-.08 0 0 .06.01.08.04" class="cls-20"/><path d="M3.15 1.56c.18-.23.54.14.2.28-.05-.07-.16-.23-.2-.28M4 2.31c.1-.03.35.15.22.3-.19.21-.37-.26-.22-.3M4.66 1.87c-.19-.38-.04-.51.23-.17.01.07-.17.22-.23.17" class="cls-6"/><path d="M4.05.85s.24.14.25.18c-.14.42-.49-.14-.25-.18M3.9 1.8c.09-.05.03-.13-.04-.16.18-.17.42.25.17.31-.15.04-.11-.11-.13-.15M5.04 2.12c.12-.04.32.21.11.27s-.25-.23-.11-.27" class="cls-1"/><path d="M5.01 2.67c.03.13-.09.04-.16.12 0-.05-.07-.17.06-.2.07-.01.08.06.1.08" class="cls-20"/><path d="M4.14 3.15c.19-.04.14.06.16.08.03.12-.07.07-.08.08-.09-.02-.06-.12-.08-.16" class="cls-10"/><path d="M3.86 1.64c.07.03.13.11.04.16-.02-.04-.15-.05-.04-.16" class="cls-20"/><path d="M.69 3.15c-.02-.09.06-.37.17-.35.2.18.15.5-.17.35M.49 3.7c.03.07-.1.14-.08.16.08.08.06-.1.12-.08v.28H.29c0-.15 0-.38.2-.36M1.4 1.84c.03.07-.1.14-.08.16.08.08.06-.1.12-.08v.28H1.2c0-.15 0-.38.2-.36" class="cls-6"/><path d="M1.68 3.23c-.41.07-.19-.37-.06-.24.07.07.06.15.06.24M1.92 2.31v.04c-.01.14-.15.15-.26.08-.07-.05 0-.12.02-.16zM1.28 3.58v.2c-.07 0-.21.02-.24-.06s.03-.11.04-.13h.2Z" class="cls-1"/><path d="M1.92 2.15v.16l-.24-.04c.05-.15.02-.22.24-.12M1.28 3.58h-.2c.02-.1-.05-.16.06-.16.15 0 .13.05.14.16" class="cls-20"/><path d="M3.35 3.51c-.21.05-.25-.37-.09-.4.09-.02.34.33.09.4M2.95 1.52c.07.07.1.13.16.2.02.2-.14.16-.28.16.02-.12-.07-.35.12-.36M2.81 2.48c.16-.05.3.22.22.29-.25.22-.35-.25-.22-.29" class="cls-6"/><path d="M2.03 2.23c.23-.07.38.4.04.36-.01-.09-.04-.15-.04-.28z" class="cls-20"/><path d="M3.7 2.67s.08.2.08.21c-.03.12-.32.15-.32-.07 0-.01.18-.18.24-.14M2.15 3.23c-.02-.11-.08-.16.04-.28.26.14.3.29-.04.28M2.27 1.2c.09.23-.03.2-.24.2v-.04c.06-.15.05-.22.24-.16" class="cls-1"/><path d="M2.03 2.31s-.04-.05-.04-.08h.04z" class="cls-7"/><path d="M10.33 8.24c.04.84-.25 1.67-.4 2.49-1.19.01-2.49.05-3.61-.41-.08-.03-.56-.26-.58-.3-.19-.31.47-2.45.38-2.54-.15-.16-.26.52-.24.6-.05.05-1.05-.38-1.11-.46-.03-.04-.05-.07-.04-.12.07-.16.03-.92.19-.97.12-.04.62-.07.74-.04.09.02.39.28.52.35.74.42 1.59.63 2.39.91.32.11.65.31.97.38.27.06.53.03.79.1Zm-3.21.87c-.05-.05-.39.25-.48.3-.13.08-.47.16-.52.2-.04.03-.06.12-.04.14.07.07.48-.11.58-.16.08-.04.56-.38.46-.48M11.33 8.19c1.13-.22 1.63-.52 2.55-1.16.46-.32.64-.63 1.28-.63h.62c.02.33.14.76-.12 1.01-.09.09-.9.65-.95.62-.02-.08-.17-.62-.2-.64s-.15.01-.16.06c0 .03.18.49.21.58.17.57.25 1.11.33 1.7-.55.56-1.45.78-2.21.91l-1.97.04c-.13 0-.18-.34.02-.28 0 0 .05.04.08.08.03.05-.04.11.18.08.1-.01.04-.07.06-.08.07-.07.12-.16.16-.2.01-.01.09.04.08-.06-.02-.2-.07-.14-.12-.18-.03-.02-.07-.08-.08-.08-.04-.02-.15-.11-.16-.12.02-.07.09-.09.12-.12s.07-.03 0-.08v-.08s.01-.02 0-.04c-.03-.04-.08-.11-.12-.12v-.16s.05-.06.08-.08c.03-.03.12 0 .12-.18 0-.08-.05-.07-.08-.1 0-.01-.07-.08-.08-.08-.04-.03-.02-.08-.14-.08-.1 0-.05.07-.06.08-.03.03-.09.05-.12.08-.03 0-.05-.03-.08-.04-.02-.12.07-.39-.08-.36v-.12c.08-.04.19 0 .16-.12h.2s0 .04.1.04c.04 0 .36-.03.38-.04v-.08Zm2.11.88c-.1.1.44.49.52.53.11.06.33.21.43.08.02-.08-.35-.22-.43-.28-.1-.06-.43-.42-.52-.33" class="cls-19"/><path d="M14.55 10.22c-.19 1.44-1.63 2.15-2.93 2.37-1.18.2-3.34.14-4.37-.53-.48-.32-.94-.97-.9-1.56 1.18.42 2.45.42 3.69.39.04 0 .05-.03.06-.06.13-.35.13-.91.25-1.28l.08.7c.02.13-.05.62.04.68 1.39.08 2.84-.06 4.09-.7Z" class="cls-21"/><path d="m10.85 8.03 3.73-1.81c-.15.23-.4.4-.62.57-.83.62-1.93 1.27-2.99 1.3-.06 0-.1.02-.12-.06" class="cls-15"/><path d="M14.03 12.25c.05.17.23.29.25.47.2.04.28-.22.47-.05.24.2-.15.41-.27.52-.18.16-.19.36-.53.28-.1-.02-.73-.42-.74-.49-.02-.13.63-.74.83-.73Z" class="cls-8"/><path d="M9.13 13.98s-.53.51-.57.53c-.14.08-.29.06-.39-.08-.19-.26.19-.31.18-.41-.02-.15-.37-.43-.32-.59.03-.1.66-.25.78-.26.14-.01.5-.04.48.16-.01.15-.08.56-.17.65Zm-.3-.11c.13-.1-.46-.24-.4.08z" class="cls-15"/><path d="M10.1 8.03c-.57.08-.97-.32-1.46-.55-.9-.43-1.77-.7-2.56-1.38-.09-.08-.55-.54-.44-.66.06 0 .14-.02.2.02.03.02.28.47.38.58.34.36.57.36.96.55.52.26 1.01.56 1.58.73z" class="cls-13"/><path d="M7.79 7.28v.04c-.6-.19-2.23-.66-2.31-1.41 0-.04-.03-.26.06-.22.51.72 1.44 1.25 2.24 1.59Z" class="cls-13"/><path d="M10.58 8.87s.05.03.08.04c-.2.19-.05.5.28.36v.16c-.22-.05-.36.26-.23.39.06.06.19.03.23.05.01 0 .12.1.16.12a.336.336 0 0 0-.36.44c-.2-.06-.15.28-.02.28l1.97-.04c-.7.12-1.4.14-2.11.12-.03-.63-.05-1.27-.08-1.91h.08Z" class="cls-15"/><path d="M9.11 12.76V13c-.04.03-.83.06-.97.19l-.34-.67zM12.6 12.48c.24-.08.48-.19.7-.31.15-.09.43-.42.51-.17.07.22-.08.18-.2.28-.09.08-.47.5-.52.51-.07.01-.51-.28-.49-.31" class="cls-16"/><path d="M13.36 6.6c-.37.28-.88.53-1.32.68-.06.02-.12.04-.19.03l.49-.32c.33-.15.64-.38 1.02-.39M14.43 6.05l.34-.48c.18.3-.02.5-.34.48" class="cls-13"/><path d="M10.5 8.51c.15-.03.06.23.08.36h-.08zM11.33 8.19v.08c-.02.01-.33.04-.38.04-.09 0-.09-.04-.1-.04.16 0 .32-.05.48-.08" class="cls-19"/><path d="M7.79 7.28c.1.04.26.05.32.16-.12.04-.28-.11-.32-.12z" class="cls-20"/><path d="M11.13 7.76c-.09.11-.32.2-.46.24-.07.02-.08.06-.14-.02z" class="cls-9"/><path d="M10.66 8.27c.03.11-.08.07-.16.12 0-.01-.07-.06-.04-.12z" class="cls-19"/><path d="M11.61 7.48c.02.11-.03.07-.08.1-.12.06-.23.15-.36.18-.02-.11.03-.07.08-.1.12-.06.23-.15.36-.18" class="cls-9"/><path d="M10.54 6.13v.12c-.13-.01-.3.05-.4-.06-.02-.1.08-.06.14-.06z" class="cls-22"/><path d="M7.12 9.11c.1.1-.38.44-.46.48-.09.05-.51.23-.58.16-.02-.02 0-.11.04-.14.05-.04.38-.12.52-.2.08-.05.42-.35.48-.3M10.97 8.83l.08.08-.04.28s-.07.08-.08.08c-.33.14-.48-.16-.28-.36.03-.03.09-.05.12-.08zM13.44 9.07c.09-.08.42.27.52.33.09.06.45.2.43.28-.1.13-.32-.02-.43-.08-.08-.04-.62-.43-.52-.53M11.09 9.98s.05.06.08.08l.04.24s-.09.12-.16.2q-.12.045-.24 0c-.03-.04-.08-.07-.08-.08-.07-.25.11-.46.36-.44m-.04.16c-.08-.09-.29.2-.14.24s.17-.21.14-.24M10.93 9.42s.09.08.12.12v.2s-.1.05-.12.12c-.04-.02-.17.01-.23-.05-.13-.13 0-.44.23-.39" class="cls-14"/><path d="M11.05 8.91s.07.01.08.1c0 .18-.08.16-.12.18zM11.17 10.06s.1-.02.12.18c0 .1-.07.04-.08.06zM11.05 10.5s.04.07-.06.08c-.22.03-.15-.03-.18-.08q.12.045.24 0M10.97 8.83h-.2s-.04-.08.06-.08c.12 0 .1.05.14.08M11.05 9.74v-.08c.07.05.03.05 0 .08M11.05 9.58v-.04s.05.01 0 .04" class="cls-15"/><path d="m8.83 13.87-.4.08c-.06-.32.52-.18.4-.08" class="cls-3"/><path d="M11.05 10.14s.02.28-.14.24.06-.32.14-.24" class="cls-2"/></g></svg>