<svg width="12" height="12" viewBox="0 0 12 12" fill="none" xmlns="http://www.w3.org/2000/svg">
<path d="M6.06368 7.01269C5.88331 7.09556 5.68568 7.20356 5.29006 7.42069C5.14006 7.50506 4.98331 7.58944 4.83744 7.66894C4.82731 7.65881 4.81681 7.64606 4.80668 7.63556C4.02406 6.79931 2.57656 6.20869 2.63806 5.08556C2.66093 4.67644 2.80156 3.60244 5.41794 2.29819C7.57119 1.23694 9.28456 1.53094 9.58043 2.18306C10.0057 3.11269 8.66206 4.84256 6.43831 5.09344C6.19219 5.14333 5.93801 5.13729 5.69454 5.07575C5.45108 5.01422 5.22454 4.89877 5.03168 4.73794C4.91393 4.61006 4.89631 4.60256 4.85281 4.62806C4.78119 4.66556 4.82731 4.78144 4.85281 4.84781C4.93764 5.00139 5.05239 5.1364 5.19029 5.24487C5.3282 5.35334 5.48644 5.43305 5.65568 5.47931C6.53079 5.66846 7.44319 5.57808 8.26418 5.22094C9.61193 4.69931 10.6642 3.24919 10.3559 2.03344C10.0466 0.800811 8.00056 0.394311 6.06481 1.08206C4.85254 1.49058 3.73251 2.13368 2.76856 2.97469C1.70206 3.97219 1.53331 4.83919 1.60231 5.20219C1.85056 6.49106 3.62731 7.32994 4.33981 7.95131C4.30281 7.97131 4.27043 7.98919 4.24268 8.00494C3.88718 8.18156 2.53193 8.88994 2.19406 9.63918C1.81043 10.4882 2.25556 11.0968 2.54956 11.1786C2.99262 11.2848 3.4578 11.25 3.88009 11.0789C4.30239 10.9079 4.66069 10.6092 4.90494 10.2246C5.11241 9.90569 5.23982 9.54143 5.27631 9.16275C5.31281 8.78408 5.25732 8.40219 5.11456 8.04956C5.19875 7.98233 5.28859 7.92249 5.38306 7.87069C5.56456 7.76344 5.73743 7.65769 5.89081 7.57593C6.41605 7.33025 6.98908 7.20361 7.56893 7.20506C8.78618 7.34831 9.02656 8.10769 8.98043 8.42756C8.95879 8.54102 8.91312 8.64855 8.8465 8.74291C8.77989 8.83728 8.69386 8.9163 8.59418 8.97468C8.50981 9.02831 8.48168 9.04631 8.48918 9.08456C8.49931 9.14081 8.54018 9.13818 8.61181 9.12806C8.79469 9.07026 8.95582 8.95849 9.07401 8.80743C9.19221 8.65638 9.26194 8.4731 9.27406 8.28168C9.31156 7.53168 8.59644 6.70894 7.33043 6.71644C6.9514 6.71754 6.57619 6.7923 6.22569 6.93656C6.16944 6.95981 6.11481 6.98481 6.06181 7.01156L6.06368 7.01269ZM4.25431 9.95231C3.85006 10.3922 3.28756 10.5583 3.04456 10.4177C2.78206 10.2677 2.88594 9.61706 3.38206 9.15168C3.67565 8.88664 3.99327 8.64949 4.33081 8.44331C4.38968 8.40581 4.47669 8.35631 4.58131 8.29331L4.60944 8.27794L4.67093 8.24044C4.75934 8.53711 4.76735 8.85194 4.69415 9.15272C4.62095 9.4535 4.46916 9.72944 4.25431 9.95231Z" fill="#CD6799"/>
</svg>
