<svg width="14" height="14" viewBox="0 0 14 14" fill="none" xmlns="http://www.w3.org/2000/svg">
<g clip-path="url(#clip0_118_1802)">
<path d="M6.97472 13.9904C10.8257 13.9904 13.9475 10.8686 13.9475 7.01768C13.9475 3.16673 10.8257 0.0449219 6.97472 0.0449219C3.12376 0.0449219 0.00195312 3.16673 0.00195312 7.01768C0.00195312 10.8686 3.12376 13.9904 6.97472 13.9904Z" fill="#1A171B"/>
<path d="M10.0098 2.62154C9.30235 2.64622 8.68493 3.03609 8.22533 3.57539C7.71643 4.16671 7.37787 4.86808 7.13393 5.58398C6.69759 5.22636 6.36093 4.76338 5.66088 4.56149C5.11978 4.40613 4.55145 4.4703 4.02881 4.85969C3.78123 5.04463 3.61067 5.32419 3.52955 5.58698C3.31955 6.26993 3.75034 6.8777 3.94601 7.09593L4.3738 7.55439C4.462 7.64427 4.67439 7.87878 4.57057 8.215C4.45835 8.58053 4.01765 8.81722 3.56562 8.67776C3.36373 8.61621 3.07371 8.4658 3.13864 8.25401C3.1655 8.16739 3.22749 8.10257 3.26072 8.02766C3.29123 7.96333 3.30577 7.91506 3.31503 7.88674C3.39762 7.61709 3.2848 7.26627 2.99597 7.1772C2.72654 7.09462 2.45085 7.16004 2.34397 7.50699C2.22276 7.90112 2.41135 8.61643 3.42164 8.92791C4.60532 9.29159 5.60662 8.64709 5.74864 7.8065C5.83808 7.28 5.60036 6.88887 5.16483 6.3858L4.80998 5.99336C4.59502 5.77862 4.52121 5.4126 4.74369 5.1313C4.93141 4.89401 5.19877 4.79274 5.63664 4.91182C6.27579 5.08538 6.56069 5.52885 7.03609 5.88653C6.83982 6.53037 6.71153 7.17661 6.59539 7.75611L6.52463 8.18815C6.18481 9.97061 5.92541 10.9494 5.25128 11.5113C5.11548 11.6079 4.92133 11.7524 4.62869 11.7625C4.47529 11.7672 4.42572 11.6617 4.42359 11.6157C4.41994 11.5081 4.5107 11.4587 4.571 11.4102C4.6611 11.3611 4.79734 11.2796 4.78808 11.0185C4.77828 10.7099 4.52268 10.4424 4.15323 10.4547C3.8765 10.4641 3.45471 10.7245 3.47056 11.2013C3.48706 11.6936 3.94601 12.0627 4.63795 12.0393C5.00783 12.0266 5.83378 11.876 6.64779 10.9084C7.59522 9.79918 7.86018 8.52758 8.05951 7.59688L8.28198 6.36815C8.40558 6.38296 8.53774 6.39282 8.6815 6.39625C9.86148 6.42115 10.4517 5.80994 10.4605 5.36538C10.4663 5.09632 10.2839 4.83158 10.0286 4.83757C9.84584 4.84275 9.61623 4.96439 9.5611 5.21715C9.50728 5.46512 9.9366 5.6889 9.60103 5.90625C9.36265 6.06053 8.9353 6.16926 8.33346 6.0809L8.4429 5.47607C8.66625 4.3291 8.94172 2.91826 9.98677 2.88394C10.0629 2.88008 10.3416 2.88738 10.3481 3.07166C10.35 3.13322 10.3348 3.14891 10.2627 3.28983C10.1893 3.39971 10.1616 3.49324 10.1651 3.60072C10.1751 3.89358 10.3978 4.08604 10.7199 4.07443C11.1511 4.06049 11.2751 3.64065 11.2681 3.42504C11.2506 2.91843 10.7167 2.59839 10.0098 2.62154Z" fill="white"/>
</g>
<defs>
<clipPath id="clip0_118_1802">
<rect width="13.95" height="13.95" fill="white"/>
</clipPath>
</defs>
</svg>
