<svg width="13" height="13" viewBox="0 0 13 13" fill="none" xmlns="http://www.w3.org/2000/svg">
<path d="M6.5 2.6001C4.76663 2.6001 3.68367 3.46643 3.25 5.19979C3.8998 4.33336 4.65837 4.00847 5.5248 4.2251C6.01951 4.34839 6.37305 4.70711 6.76457 5.10463C7.40177 5.75128 8.13932 6.49989 9.75 6.49989C11.4833 6.49989 12.5663 5.63346 13 3.89969C12.35 4.76656 11.5917 5.09163 10.7251 4.87489C10.2305 4.7515 9.87736 4.39288 9.48533 3.99536C8.84853 3.34871 8.11119 2.6001 6.5 2.6001ZM3.25 6.49989C1.51673 6.49989 0.433672 7.36632 0 9.1001C0.649932 8.23323 1.4082 7.90816 2.2748 8.12489C2.76951 8.24829 3.12305 8.60691 3.51457 9.00443C4.15177 9.65107 4.88932 10.3997 6.5 10.3997C8.23326 10.3997 9.31633 9.53336 9.75 7.8C9.1 8.66646 8.3417 8.99136 7.4751 8.77469C6.98049 8.65139 6.62736 8.29268 6.23533 7.89516C5.59853 7.24851 4.86119 6.49989 3.25 6.49989Z" fill="#38BDF8"/>
</svg>
