<svg width="14" height="14" viewBox="0 0 14 14" fill="none" xmlns="http://www.w3.org/2000/svg">
<path d="M1.77359 1.72415C1.75506 1.7245 1.73684 1.72901 1.72029 1.73736C1.70373 1.74571 1.68927 1.75767 1.67797 1.77237C1.66667 1.78706 1.65882 1.80411 1.655 1.82225C1.65118 1.84039 1.65149 1.85916 1.6559 1.87716L4.324 12.6771C4.32921 12.6981 4.33986 12.7174 4.35488 12.733C4.36991 12.7487 4.38878 12.7601 4.4096 12.7661C4.43042 12.7721 4.45246 12.7726 4.4735 12.7674C4.49455 12.7622 4.51387 12.7516 4.52951 12.7366L12.5561 5.01579C12.5717 5.00074 12.5831 4.98186 12.5891 4.96103C12.5951 4.9402 12.5955 4.91815 12.5903 4.89711C12.5851 4.87607 12.5744 4.85676 12.5594 4.84114C12.5444 4.82551 12.5255 4.81411 12.5047 4.80808L1.80979 1.72896C1.79804 1.72552 1.78583 1.7239 1.77359 1.72415ZM1.94684 2.02536L12.2307 4.98615L4.51256 12.4102L1.94684 2.02536Z" fill="white"/>
<path d="M7.12374 3.2637C7.10748 3.26335 7.09132 3.26622 7.07617 3.27213C7.06103 3.27804 7.0472 3.28689 7.03547 3.29815L3.02403 7.15964C3.00846 7.17469 2.99711 7.19358 2.99113 7.2144C2.98515 7.23522 2.98475 7.25725 2.98997 7.27828C2.99518 7.29931 3.00584 7.31859 3.02086 7.3342C3.03588 7.34982 3.05474 7.36121 3.07555 7.36723L8.4195 8.90745C8.44032 8.91342 8.46233 8.91381 8.48334 8.9086C8.50436 8.90338 8.52363 8.89273 8.53924 8.87773C8.55484 8.86272 8.56623 8.84388 8.57226 8.82308C8.5783 8.80229 8.57876 8.78028 8.57361 8.75925L7.2411 3.35754C7.23457 3.33118 7.21953 3.3077 7.19832 3.29074C7.1771 3.27378 7.15089 3.26427 7.12374 3.2637ZM7.05253 3.62464L8.28278 8.61104L3.34953 7.18917L7.05253 3.62464Z" fill="white"/>
<path d="M5.13101 5.17507C5.11248 5.17543 5.09426 5.17994 5.07771 5.18829C5.06115 5.19664 5.04669 5.2086 5.03539 5.2233C5.02409 5.23799 5.01624 5.25504 5.01242 5.27318C5.0086 5.29132 5.00891 5.31009 5.01332 5.32809L5.67548 8.01117C5.68066 8.03224 5.69131 8.05157 5.70635 8.06722C5.72138 8.08287 5.74028 8.09428 5.76112 8.1003C5.78197 8.10633 5.80404 8.10675 5.8251 8.10153C5.84617 8.0963 5.86548 8.08562 5.88111 8.07056L7.87414 6.1496C7.88971 6.13454 7.90106 6.11565 7.90703 6.09482C7.913 6.07399 7.91339 6.05195 7.90816 6.03093C7.90294 6.0099 7.89227 5.99061 7.87724 5.97501C7.8622 5.9594 7.84333 5.94802 7.82251 5.94201L5.16721 5.17989C5.15546 5.17645 5.14325 5.17483 5.13101 5.17507ZM5.30415 5.47596L7.54875 6.12018L5.86382 7.74396L5.30415 5.47596Z" fill="white"/>
<path d="M4.47347 2.49498C4.45721 2.49465 4.44104 2.49753 4.42589 2.50347C4.41075 2.5094 4.39692 2.51826 4.38521 2.52954L2.39217 4.45039C2.3766 4.46545 2.36525 4.48434 2.35928 4.50517C2.35331 4.526 2.35292 4.54804 2.35815 4.56907C2.36337 4.5901 2.37404 4.60938 2.38907 4.62499C2.40411 4.64059 2.42298 4.65197 2.4438 4.65798L5.09866 5.42022C5.11947 5.42617 5.14149 5.42655 5.1625 5.42131C5.18351 5.41608 5.20277 5.40542 5.21837 5.39041C5.23396 5.37539 5.24534 5.35654 5.25135 5.33574C5.25737 5.31494 5.25782 5.29293 5.25266 5.2719L4.59083 2.58894C4.58434 2.56253 4.56932 2.539 4.54811 2.522C4.52689 2.50499 4.50066 2.49557 4.47347 2.49498ZM4.40238 2.85592L4.96172 5.12392L2.71767 4.4797L4.40238 2.85592ZM9.78374 4.02448C9.76749 4.02417 9.75134 4.02706 9.73622 4.03299C9.72109 4.03892 9.70728 4.04777 9.69558 4.05904L7.70233 5.97978C7.68669 5.99482 7.6753 6.01372 7.66929 6.03458C7.66328 6.05543 7.66287 6.07749 7.6681 6.09855C7.67334 6.11961 7.68403 6.13892 7.6991 6.15453C7.71417 6.17015 7.73309 6.18151 7.75395 6.18748L10.4089 6.94961C10.4297 6.95556 10.4518 6.95594 10.4728 6.95071C10.4938 6.94547 10.513 6.93482 10.5286 6.9198C10.5442 6.90478 10.5556 6.88593 10.5616 6.86513C10.5676 6.84433 10.5681 6.82232 10.5629 6.8013L9.90121 4.11833C9.89469 4.09192 9.87965 4.06841 9.85841 4.05142C9.83717 4.03444 9.81093 4.02504 9.78374 4.02448ZM9.71264 4.38542L10.272 6.65353L8.02794 6.00931L9.71264 4.38542ZM5.79056 7.86037C5.76027 7.86154 5.73147 7.87381 5.70963 7.89483L3.7166 9.81578C3.70102 9.83084 3.68967 9.84974 3.6837 9.87056C3.67773 9.8914 3.67734 9.91343 3.68257 9.93446C3.6878 9.95549 3.69846 9.97477 3.7135 9.99038C3.72853 10.006 3.7474 10.0174 3.76822 10.0234L6.42363 10.7855C6.44443 10.7914 6.46641 10.7918 6.48739 10.7865C6.50837 10.7813 6.52761 10.7706 6.54319 10.7556C6.55876 10.7406 6.57013 10.7218 6.57616 10.7011C6.58218 10.6803 6.58265 10.6583 6.57752 10.6373L5.91525 7.95422C5.90843 7.92662 5.8923 7.90222 5.86959 7.88513C5.84688 7.86803 5.81897 7.85929 5.79056 7.86037ZM5.72691 8.22131L6.28669 10.4894L4.0421 9.8452L5.72691 8.22131Z" fill="white"/>
</svg>
