<svg width="13" height="13" viewBox="0 0 13 13" fill="none" xmlns="http://www.w3.org/2000/svg">
<g clip-path="url(#clip0_118_1735)">
<path d="M6.49982 0.648438C7.0896 0.648438 7.61366 1.06444 7.61366 1.57672C7.61366 2.0888 7.11478 2.5048 6.49972 2.5048C6.42971 2.50473 6.3381 2.49318 6.22489 2.47016C6.13689 2.45222 6.04537 2.46684 5.96733 2.5113L1.9745 4.78223C1.94592 4.79851 1.92217 4.82208 1.90568 4.85054C1.88918 4.87899 1.88053 4.91132 1.88062 4.94421C1.8807 4.9771 1.88951 5.00938 1.90615 5.03776C1.92278 5.06613 1.94665 5.08958 1.97532 5.10571L6.30371 7.53529C6.35894 7.56632 6.42118 7.58272 6.48453 7.58293C6.54788 7.58315 6.61024 7.56717 6.66568 7.53651L11.0172 5.11729C11.0461 5.10139 11.0703 5.07805 11.0871 5.04969C11.104 5.02133 11.113 4.98898 11.1132 4.95598C11.1133 4.92298 11.1047 4.89054 11.0881 4.86201C11.0715 4.83348 11.0476 4.8099 11.0188 4.79371L9.66096 4.02316C9.60561 3.99173 9.54312 3.97503 9.47948 3.97468C9.41583 3.97432 9.35316 3.99032 9.29746 4.02113L7.86452 4.81595C7.84682 4.82584 7.83173 4.83979 7.82048 4.85665C7.80924 4.87352 7.80216 4.89281 7.79982 4.91295L7.79932 4.92676C7.79932 5.43914 7.30044 5.85473 6.68548 5.85473C6.07103 5.85473 5.57205 5.43924 5.57205 4.92666C5.57205 4.41438 6.07103 3.99838 6.68558 3.99838C6.70864 3.99838 6.73464 4.0002 6.76429 4.00213L6.81142 4.00721L6.86342 4.0133C6.94266 4.02408 7.02326 4.00901 7.09325 3.97034L9.21317 2.79445C9.29285 2.75029 9.38216 2.72636 9.47325 2.72476C9.56434 2.72317 9.65443 2.74396 9.73561 2.78531L9.75836 2.79699L12.7183 4.47744C13.0893 4.68798 13.0934 5.21834 12.7335 5.43701L12.7137 5.44869L10.7333 6.54922C10.704 6.56557 10.6798 6.58951 10.6631 6.61851C10.6463 6.6475 10.6377 6.68048 10.6382 6.71395C10.6388 6.7473 10.6483 6.77987 10.6657 6.80831C10.6831 6.83674 10.7079 6.85999 10.7373 6.87564L12.6985 7.90752C13.0881 8.11216 13.0971 8.66639 12.7153 8.88394L6.75901 12.2784C6.67486 12.3262 6.57972 12.3514 6.48291 12.3514C6.38611 12.3514 6.29097 12.3262 6.20682 12.2784L0.284605 8.89795C-0.0978794 8.67959 -0.087317 8.12415 0.303191 7.92072L2.28579 6.8863C2.3154 6.87076 2.34028 6.84753 2.3578 6.81905C2.37532 6.79056 2.38484 6.75789 2.38536 6.72445C2.38588 6.69101 2.37738 6.65805 2.36075 6.62904C2.34412 6.60003 2.31998 6.57603 2.29087 6.55958L0.283996 5.43325C-0.0869107 5.22484 -0.094731 4.69702 0.261855 4.47552L0.28166 4.46343L5.20978 1.66132C5.28746 1.61684 5.3466 1.54595 5.37644 1.46155L5.38253 1.44174C5.5559 0.926617 5.94925 0.648438 6.49982 0.648438ZM9.24963 7.48562L6.81639 8.88485L6.79364 8.89724C6.71199 8.93928 6.62117 8.96038 6.52934 8.95864C6.43752 8.9569 6.34756 8.93238 6.26755 8.88729L3.84183 7.51955C3.78808 7.48927 3.72762 7.47293 3.66594 7.47201C3.60426 7.47109 3.54333 7.48561 3.4887 7.51427L2.09039 8.24501C2.06086 8.2605 2.03604 8.28364 2.01853 8.31202C2.00103 8.3404 1.99148 8.37296 1.99089 8.4063C1.9903 8.43964 1.99868 8.47252 2.01517 8.5015C2.03166 8.53048 2.05564 8.5545 2.0846 8.57102L6.35652 11.0155C6.41251 11.0474 6.4758 11.0641 6.54019 11.0641C6.60459 11.0641 6.66788 11.0474 6.72387 11.0155L11.0324 8.55386C11.0613 8.5374 11.0854 8.51345 11.1019 8.48452C11.1184 8.4556 11.1269 8.42275 11.1264 8.38943C11.1258 8.35611 11.1163 8.32356 11.0988 8.29519C11.0814 8.26681 11.0566 8.24366 11.0271 8.22815L9.60652 7.47862C9.55122 7.44963 9.48949 7.43509 9.42706 7.43633C9.36463 7.43757 9.30353 7.45456 9.24943 7.48573L9.24963 7.48562Z" fill="#24A1C1"/>
</g>
<defs>
<clipPath id="clip0_118_1735">
<rect width="13" height="13" fill="white"/>
</clipPath>
</defs>
</svg>
