<svg width="13" height="13" viewBox="0 0 13 13" fill="none" xmlns="http://www.w3.org/2000/svg">
<g clip-path="url(#clip0_118_1836)">
<path d="M9.95312 0H3.04688C1.36413 0 0 1.36413 0 3.04688V9.95312C0 11.6359 1.36413 13 3.04688 13H9.95312C11.6359 13 13 11.6359 13 9.95312V3.04688C13 1.36413 11.6359 0 9.95312 0Z" fill="#007ACC"/>
<path d="M2.87521 6.54328L2.87109 7.07567H4.56312V11.8836H5.75999V7.07567H7.45202V6.55359C7.45202 6.26469 7.44587 6.02328 7.4376 6.01708C7.4314 6.00886 6.40171 6.00469 5.1533 6.00678L2.8814 6.01297L2.87521 6.54328ZM10.4902 5.99784C10.8203 6.08041 11.0721 6.22691 11.3032 6.46624C11.4229 6.59421 11.6003 6.8274 11.6148 6.88311C11.6189 6.89961 11.0535 7.2793 10.711 7.49182C10.6986 7.5001 10.649 7.44642 10.5933 7.3639C10.4262 7.12041 10.2508 7.01514 9.9825 6.9966C9.58839 6.96974 9.33458 7.17612 9.33666 7.52072C9.33666 7.62182 9.35109 7.68164 9.39237 7.76421C9.479 7.94372 9.63998 8.05103 10.1456 8.26974C11.0762 8.6701 11.4744 8.93421 11.7221 9.30974C11.9986 9.72863 12.0605 10.3972 11.8727 10.8945C11.6664 11.4351 11.1546 11.8024 10.4344 11.9242C10.2116 11.9634 9.6833 11.9572 9.44396 11.9139C8.92188 11.821 8.42666 11.5631 8.12127 11.2247C8.00157 11.0926 7.76839 10.748 7.78286 10.7232C7.789 10.715 7.84268 10.682 7.9025 10.6469C7.96029 10.6139 8.17905 10.488 8.38538 10.3683L8.75887 10.1516L8.83728 10.2672C8.94666 10.4343 9.186 10.6634 9.33047 10.7397C9.7452 10.9585 10.3148 10.9275 10.5954 10.6758C10.7151 10.5664 10.7646 10.4529 10.7646 10.2858C10.7646 10.1351 10.746 10.0691 10.6676 9.95563C10.5665 9.81121 10.3602 9.68943 9.77409 9.43563C9.10348 9.14673 8.81458 8.96722 8.55047 8.68244C8.39777 8.5174 8.2533 8.25324 8.19348 8.03244C8.14396 7.84881 8.13157 7.38864 8.17078 7.20293C8.309 6.55501 8.79808 6.10311 9.50379 5.96894C9.73286 5.92563 10.2652 5.94213 10.4902 5.99784Z" fill="white"/>
</g>
<defs>
<clipPath id="clip0_118_1836">
<rect width="13" height="13" fill="white"/>
</clipPath>
</defs>
</svg>
