<svg width="14" height="14" viewBox="0 0 14 14" fill="none" xmlns="http://www.w3.org/2000/svg">
<g clip-path="url(#clip0_118_1811)">
<path d="M10.7188 0H3.28125C1.46907 0 0 1.46907 0 3.28125V10.7188C0 12.5309 1.46907 14 3.28125 14H10.7188C12.5309 14 14 12.5309 14 10.7188V3.28125C14 1.46907 12.5309 0 10.7188 0Z" fill="#0073AA"/>
<path d="M2.30859 6.99969C2.30859 8.8566 3.38774 10.4614 4.95257 11.2218L2.71476 5.09049C2.44657 5.69123 2.30816 6.3418 2.30859 6.99969ZM10.1669 6.76295C10.1669 6.1832 9.95861 5.78169 9.78 5.46915C9.54216 5.08273 9.31926 4.75548 9.31926 4.36905C9.31926 3.93779 9.64634 3.53638 10.107 3.53638C10.1279 3.53638 10.1476 3.53895 10.1678 3.5401C9.3332 2.77546 8.22124 2.30859 6.99985 2.30859C5.36098 2.30859 3.91903 3.14947 3.08024 4.42314C3.19027 4.42642 3.29401 4.42877 3.38211 4.42877C3.87282 4.42877 4.63238 4.36916 4.63238 4.36916C4.88525 4.35429 4.91511 4.72573 4.66245 4.75564C4.66245 4.75564 4.40832 4.78555 4.12553 4.80037L5.83386 9.88183L6.86051 6.80276L6.12961 4.80021C5.87701 4.78539 5.6377 4.75548 5.6377 4.75548C5.38488 4.74066 5.41452 4.35412 5.66734 4.36905C5.66734 4.36905 6.44204 4.42855 6.903 4.42855C7.39366 4.42855 8.15327 4.36905 8.15327 4.36905C8.40636 4.35412 8.43606 4.72556 8.18334 4.75548C8.18334 4.75548 7.92867 4.78539 7.64642 4.80021L9.34179 9.84316L9.8097 8.27954C10.0125 7.63062 10.1669 7.16457 10.1669 6.76295Z" fill="white"/>
<path d="M7.08235 7.41012L5.6748 11.5002C6.10514 11.6269 6.55143 11.6913 7.00005 11.6913C7.53063 11.6915 8.0574 11.6016 8.55787 11.4254C8.54486 11.4049 8.5337 11.3832 8.52452 11.3607L7.08235 7.41012ZM11.1164 4.74902C11.1377 4.90892 11.1483 5.07006 11.148 5.23137C11.148 5.70742 11.0591 6.24259 10.7913 6.91175L9.35834 11.0548C10.753 10.2415 11.6911 8.73055 11.6911 6.99985C11.6912 6.18419 11.4829 5.4172 11.1164 4.74902Z" fill="white"/>
<path d="M6.99989 1.53125C3.98453 1.53125 1.53125 3.98437 1.53125 6.99967C1.53125 10.0154 3.98453 12.4684 6.99989 12.4684C10.0151 12.4684 12.4688 10.0154 12.4688 6.99967C12.4686 3.98437 10.0151 1.53125 6.99989 1.53125ZM6.99989 12.2177C4.12278 12.2177 1.78199 9.87689 1.78199 6.99967C1.78199 4.12262 4.12273 1.78199 6.99989 1.78199C9.87684 1.78199 12.2175 4.12262 12.2175 6.99967C12.2175 9.87689 9.87684 12.2177 6.99989 12.2177Z" fill="white"/>
</g>
<defs>
<clipPath id="clip0_118_1811">
<rect width="14" height="14" fill="white"/>
</clipPath>
</defs>
</svg>
